<svg xmlns="http://www.w3.org/2000/svg" viewBox="0 0 242 16.67"><defs><style>.cls-1 { fill: #333; }</style></defs><title>Artboard 1</title><path class="cls-1" d="M5.13 7.51C5 7.42 5 7.3 5.09 7.08l.77-1.18-1.31-.51c-.23-.09-.27-.18-.21-.36V5c0-.14.14-.21.39-.16l1.37.38.08-1.4c0-.26.1-.33.27-.33h.05c.16 0 .26.07.27.33l.05 1.4 1.38-.38c.25-.05.35 0 .4.16.05.18 0 .27-.22.36l-1.31.54.79 1.18c.13.22.09.34 0 .43-.13.09-.25.09-.42-.1l-.9-1.12-.95 1.14c-.17.2-.27.2-.42.1zM10.62 11.09v.6c0 .31-.14.4-.36.4h-.09c-.22 0-.38-.09-.38-.4V3.27a.39.39 0 0 1 .29-.09c.29 0 .56.14.56.82v2.86a2.71 2.71 0 0 1 2.3-1.17 3 3 0 0 1 2.92 3.24 3 3 0 0 1-3 3.26 2.58 2.58 0 0 1-2.24-1.1zM15 8.94a2.28 2.28 0 0 0-2.16-2.51 2.31 2.31 0 0 0-2.22 1.47v1.46a2.16 2.16 0 0 0 2.2 2.09A2.24 2.24 0 0 0 15 8.94zM16.79 10.45c0-1.44 1.44-2 4.3-2.11h.13v-.22a1.53 1.53 0 0 0-1.74-1.65 2.12 2.12 0 0 0-2 1.14.5.5 0 0 1-.48-.49c0-.44.88-1.43 2.52-1.43a2.26 2.26 0 0 1 2.51 2.4V12s-.13.09-.29.09-.53-.14-.53-.82V11a2.74 2.74 0 0 1-2.31 1.14c-1.33.04-2.11-.65-2.11-1.69zm4.43-.87V9h-.36c-2.12.08-3.21.45-3.21 1.43 0 .62.51 1 1.35 1a2 2 0 0 0 2.23-1.85zM23.28 10.93a.51.51 0 0 1 .46-.46 2.48 2.48 0 0 0 2.12 1c1 0 1.6-.42 1.6-1s-.65-.9-1.82-1.14c-1-.21-2.17-.48-2.17-1.73s.94-1.87 2.37-1.87 2.29.71 2.29 1.18-.44.48-.47.44a2.1 2.1 0 0 0-1.82-.91c-1 0-1.56.43-1.56 1s.59.84 1.73 1.09 2.28.49 2.28 1.77-.94 1.89-2.44 1.89-2.57-.79-2.57-1.26zM29.23 9a3.11 3.11 0 0 1 3.12-3.28 2.83 2.83 0 0 1 2.89 3.12v.08c0 .23-.09.29-.35.29h-4.81a2.28 2.28 0 0 0 2.35 2.26 2.22 2.22 0 0 0 2.12-1.11.5.5 0 0 1 .49.48c0 .43-.94 1.38-2.61 1.38A3.07 3.07 0 0 1 29.23 9zm.87-.52h4.24a2 2 0 0 0-2-2 2.26 2.26 0 0 0-2.24 1.97zM36.14 9a3 3 0 0 1 3-3.26 2.63 2.63 0 0 1 2.25 1.09V3.27a.38.38 0 0 1 .29-.09c.29 0 .56.14.56.82v7.68c0 .31-.16.4-.38.4h-.09c-.22 0-.36-.09-.36-.4V11a2.71 2.71 0 0 1-2.31 1.18A3 3 0 0 1 36.14 9zm5.24.51V7.89A2.27 2.27 0 0 0 37 8.94a2.27 2.27 0 0 0 2.16 2.51 2.18 2.18 0 0 0 2.22-1.99zM45.74 8.93a3.19 3.19 0 1 1 6.38 0 3.19 3.19 0 1 1-6.38 0zm5.53 0a2.34 2.34 0 1 0-4.67 0 2.38 2.38 0 0 0 2.34 2.52A2.35 2.35 0 0 0 51.27 9zM54.3 6.82a2.43 2.43 0 0 1 2.1-1.13c1.64 0 2.46 1.09 2.46 2.73v3.26c0 .31-.16.4-.38.4h-.09c-.22 0-.38-.09-.38-.4V8.47c0-1.23-.61-2-1.66-2a2.19 2.19 0 0 0-2 1.31v3.89c0 .31-.16.4-.38.4h-.09c-.22 0-.38-.09-.38-.4V5.89a.39.39 0 0 1 .29-.09c.29 0 .55.14.55.82zM62.29 10.93a.51.51 0 0 1 .46-.46 2.48 2.48 0 0 0 2.12 1c1 0 1.6-.42 1.6-1s-.65-.9-1.82-1.14c-1-.21-2.17-.48-2.17-1.73s.94-1.87 2.37-1.87 2.29.71 2.29 1.18-.44.48-.47.44a2.1 2.1 0 0 0-1.82-.91c-1 0-1.56.43-1.56 1s.58.84 1.73 1.09 2.28.49 2.28 1.77-.94 1.89-2.44 1.89-2.57-.79-2.57-1.26zM68.08 6.26v-.07c0-.22.09-.34.4-.34h.57V4.77c0-.31.16-.4.38-.4h.09c.22 0 .36.09.36.4v1.08h1.65c.31 0 .4.12.4.34v.08c0 .22-.09.34-.4.34h-1.65v3.52c0 .91.23 1.34.92 1.34a1.18 1.18 0 0 0 1-.46s.29.09.29.42-.46.77-1.27.77c-1.21 0-1.73-.69-1.73-2V6.6h-.57c-.35 0-.44-.11-.44-.34zM72.71 10.45c0-1.44 1.44-2 4.3-2.11h.13v-.22a1.53 1.53 0 0 0-1.74-1.65 2.12 2.12 0 0 0-2 1.14.5.5 0 0 1-.48-.49c0-.44.88-1.43 2.52-1.43A2.26 2.26 0 0 1 78 8.1V12s-.13.09-.29.09-.53-.14-.53-.82V11a2.74 2.74 0 0 1-2.31 1.14c-1.39.04-2.16-.65-2.16-1.69zm4.43-.87V9h-.36c-2.12.08-3.21.45-3.21 1.43 0 .62.51 1 1.35 1a2 2 0 0 0 2.22-1.85zM80.49 6.82a2.43 2.43 0 0 1 2.11-1.13c1.64 0 2.46 1.09 2.46 2.73v3.26c0 .31-.16.4-.38.4h-.09c-.22 0-.38-.09-.38-.4V8.47c0-1.23-.61-2-1.66-2a2.19 2.19 0 0 0-2 1.31v3.89c0 .31-.16.4-.38.4H80c-.22 0-.38-.09-.38-.4V5.89a.39.39 0 0 1 .29-.09c.29 0 .55.14.55.82zM86.33 9a3 3 0 0 1 3-3.26 2.63 2.63 0 0 1 2.25 1.09V3.27a.38.38 0 0 1 .29-.09c.29 0 .56.14.56.82v7.68c0 .31-.16.4-.38.4h-.09c-.22 0-.36-.09-.36-.4V11a2.71 2.71 0 0 1-2.31 1.18A3 3 0 0 1 86.33 9zm5.24.51V7.89a2.27 2.27 0 0 0-4.38 1.05 2.27 2.27 0 0 0 2.16 2.51 2.18 2.18 0 0 0 2.22-1.99zM93.75 10.45c0-1.44 1.44-2 4.3-2.11h.13v-.22a1.53 1.53 0 0 0-1.74-1.65 2.12 2.12 0 0 0-2 1.14.5.5 0 0 1-.44-.49c0-.44.88-1.43 2.52-1.43A2.26 2.26 0 0 1 99 8.1V12s-.13.09-.29.09-.53-.14-.53-.82V11a2.74 2.74 0 0 1-2.31 1.14c-1.34.04-2.12-.65-2.12-1.69zm4.43-.87V9h-.36c-2.12.08-3.21.45-3.21 1.43 0 .62.51 1 1.35 1a2 2 0 0 0 2.22-1.85zM101.54 7a1.61 1.61 0 0 1 1.64-1.29c.57 0 .9.23.9.64s-.21.47-.23.44a1.08 1.08 0 0 0-.75-.26c-1.1 0-1.53 1.16-1.53 2.74v2.43c0 .31-.16.4-.38.4h-.09c-.22 0-.38-.09-.38-.4V5.89a.39.39 0 0 1 .28-.09c.29 0 .55.14.55.82zM104.62 9a3 3 0 0 1 3-3.26 2.63 2.63 0 0 1 2.25 1.09V3.27a.38.38 0 0 1 .29-.09c.29 0 .56.14.56.82v7.68c0 .31-.16.4-.38.4h-.09c-.22 0-.36-.09-.36-.4V11a2.71 2.71 0 0 1-2.31 1.18A3 3 0 0 1 104.62 9zm5.24.51V7.89a2.27 2.27 0 0 0-4.38 1.05 2.27 2.27 0 0 0 2.16 2.51 2.18 2.18 0 0 0 2.22-1.99zM114.64 14.2V5.89a.39.39 0 0 1 .29-.09c.29 0 .55.14.55.82v.27a2.69 2.69 0 0 1 2.31-1.2 3 3 0 0 1 2.92 3.24 3 3 0 0 1-3 3.26 2.58 2.58 0 0 1-2.22-1.19v3.2c0 .31-.16.4-.38.4H115c-.2 0-.36-.09-.36-.4zm5.21-5.25a2.28 2.28 0 0 0-2.16-2.51 2.31 2.31 0 0 0-2.22 1.47v1.45a2.16 2.16 0 0 0 2.2 2.09 2.24 2.24 0 0 0 2.19-2.51zM122.87 7a1.61 1.61 0 0 1 1.64-1.29c.57 0 .9.23.9.64s-.21.47-.23.44a1.08 1.08 0 0 0-.75-.26c-1.1 0-1.53 1.16-1.53 2.74v2.43c0 .31-.16.4-.38.4h-.09c-.22 0-.38-.09-.38-.4V5.89a.39.39 0 0 1 .29-.09c.29 0 .55.14.55.82zM126.37 3.74a.5.5 0 0 1 .57-.56.49.49 0 0 1 .55.56.56.56 0 0 1-1.12 0zm.13 7.94V6.2c0-.31.16-.4.38-.4h.12c.22 0 .38.09.38.4v5.49c0 .31-.16.4-.38.4h-.09c-.26 0-.41-.09-.41-.4zM128.73 8.93a3.12 3.12 0 0 1 3.18-3.24c1.81 0 2.67 1.16 2.67 1.72 0 .38-.53.46-.56.4a2.09 2.09 0 0 0-2.11-1.36 2.34 2.34 0 0 0-2.33 2.48 2.35 2.35 0 0 0 2.33 2.51 2.09 2.09 0 0 0 2.09-1.37c0-.05.56 0 .56.4 0 .56-.86 1.72-2.67 1.72a3.14 3.14 0 0 1-3.16-3.26zM135.82 3.74a.5.5 0 0 1 .57-.56.49.49 0 0 1 .55.56.56.56 0 0 1-1.12 0zm.13 7.94V6.2c0-.31.16-.4.38-.4h.09c.22 0 .38.09.38.4v5.49c0 .31-.16.4-.38.4h-.09c-.23 0-.38-.09-.38-.4zM139.43 6.82a2.43 2.43 0 0 1 2.11-1.13c1.64 0 2.46 1.09 2.46 2.73v3.26c0 .31-.16.4-.38.4h-.09c-.22 0-.38-.09-.38-.4V8.47c0-1.23-.61-2-1.66-2a2.19 2.19 0 0 0-2 1.31v3.89c0 .31-.16.4-.38.4H139c-.22 0-.38-.09-.38-.4V5.89a.39.39 0 0 1 .29-.09c.29 0 .55.14.55.82zM144.83 13.09c0-.94.87-1.56 2-1.78a.73.73 0 0 1-.27-.6 1 1 0 0 1 .27-.61 2.19 2.19 0 0 1-1.55-2.1 2.4 2.4 0 0 1 2.51-2.34 2.74 2.74 0 0 1 1.56.48l.43-.69c.18-.26.33-.39.6-.39a.49.49 0 0 1 .48.38l-1 1.14a2.16 2.16 0 0 1 .48 1.42 2.38 2.38 0 0 1-2.55 2.28h-.34a.51.51 0 0 0-.09.31c0 .43.58.47 1.72.75.88.22 1.82.64 1.82 1.63 0 1.16-1.17 1.85-3.16 1.85s-2.91-.59-2.91-1.73zm3.07-1.29c-1.18.07-2.25.51-2.25 1.29s.73 1 2.12 1 2.29-.4 2.29-1.13-1.18-.96-2.16-1.16zm1.57-3.8a1.58 1.58 0 0 0-1.69-1.61A1.55 1.55 0 0 0 146.14 8a1.67 1.67 0 0 0 3.33 0zM153.6 8.93A3.19 3.19 0 1 1 160 9a3.19 3.19 0 1 1-6.38 0zm5.53 0a2.34 2.34 0 1 0-4.67 0 2.38 2.38 0 0 0 2.34 2.52A2.35 2.35 0 0 0 159.13 9zM165.25 6.42c.2-.51.35-.62.61-.62s.43.21.42.25L164 11.78c-.09.22-.18.34-.61.34s-.48-.09-.57-.31L160.52 6c0-.05.12-.25.42-.25s.44.12.64.62l1.82 4.86zM166.8 9a3.11 3.11 0 0 1 3.12-3.28 2.83 2.83 0 0 1 2.89 3.12v.08c0 .23-.09.29-.35.29h-4.81a2.28 2.28 0 0 0 2.35 2.23 2.22 2.22 0 0 0 2.12-1.11.5.5 0 0 1 .49.48c0 .43-.94 1.38-2.61 1.38A3.07 3.07 0 0 1 166.8 9zm.87-.52h4.24a2 2 0 0 0-2-2 2.26 2.26 0 0 0-2.24 1.97zM174.95 7a1.61 1.61 0 0 1 1.64-1.29c.57 0 .9.23.9.64s-.21.47-.23.44a1.08 1.08 0 0 0-.75-.26c-1.1 0-1.53 1.16-1.53 2.74v2.43c0 .31-.16.4-.38.4h-.09c-.22 0-.38-.09-.38-.4V5.89a.39.39 0 0 1 .29-.09c.29 0 .55.14.55.82zM182 11.69V5a1.16 1.16 0 0 1-1 .48c-.56 0-.95-.3-.95-.74a.58.58 0 0 1 .27-.48.93.93 0 0 0 .74.33 1 1 0 0 0 1-1h.38a.35.35 0 0 1 .39.4v7.71c0 .27-.13.4-.39.4h-.12c-.16-.01-.32-.1-.32-.41zM184.91 9.84a2.22 2.22 0 0 1 1.72-2.13 1.91 1.91 0 0 1-1.47-1.92c0-1.37 1.14-2.31 2.91-2.31s2.89.9 2.89 2.29a2 2 0 0 1-1.47 1.94 2.17 2.17 0 0 1 1.72 2.13c0 1.37-1.27 2.37-3.15 2.37s-3.15-.97-3.15-2.37zm5.41-.05c0-1-.83-1.69-2.26-1.69s-2.26.66-2.26 1.69.83 1.65 2.28 1.65 2.23-.62 2.23-1.65zm-.25-4c0-.95-.71-1.6-2-1.6s-2 .61-2 1.6.74 1.52 2 1.52 2-.55 2-1.5zM195.67 6.77a2.37 2.37 0 0 1 2-1.08 2.05 2.05 0 0 1 2 1.31 2.49 2.49 0 0 1 2.2-1.33c1.56 0 2.39.9 2.39 2.61v3.38c0 .31-.16.4-.38.4h-.09c-.22 0-.38-.09-.38-.4v-3.3c0-1.24-.53-1.87-1.6-1.87A2.13 2.13 0 0 0 200 7.73v4c0 .31-.16.4-.38.4h-.09c-.22 0-.38-.09-.38-.4V8.42c0-1.3-.53-1.94-1.6-1.94a2.13 2.13 0 0 0-1.85 1.25v4c0 .31-.16.4-.38.4h-.09c-.22 0-.38-.09-.38-.4V5.89a.39.39 0 0 1 .29-.09c.29 0 .55.14.55.82zM205.54 8.93a3.19 3.19 0 1 1 6.38 0 3.19 3.19 0 1 1-6.38 0zm5.53 0a2.34 2.34 0 1 0-4.67 0 2.38 2.38 0 0 0 2.34 2.52A2.35 2.35 0 0 0 211.06 9zM214.09 6.82a2.43 2.43 0 0 1 2.11-1.13c1.64 0 2.46 1.09 2.46 2.73v3.26c0 .31-.16.4-.38.4h-.09c-.22 0-.38-.09-.38-.4V8.47c0-1.23-.61-2-1.66-2a2.19 2.19 0 0 0-2 1.31v3.89c0 .31-.16.4-.38.4h-.09c-.22 0-.38-.09-.38-.4V5.89a.39.39 0 0 1 .29-.09c.29 0 .55.14.55.82zM219.63 6.26v-.07c0-.22.09-.34.4-.34h.57V4.77c0-.31.16-.4.38-.4h.09c.22 0 .36.09.36.4v1.08h1.65c.31 0 .4.12.4.34v.08c0 .22-.09.34-.4.34h-1.65v3.52c0 .91.23 1.34.92 1.34a1.19 1.19 0 0 0 1-.46s.29.09.29.42-.45.77-1.27.77c-1.21 0-1.73-.69-1.73-2V6.6H220c-.28 0-.37-.11-.37-.34zM225.56 6.84a2.4 2.4 0 0 1 2.09-1.14c1.64 0 2.46 1.09 2.46 2.73v3.26c0 .31-.16.4-.38.4h-.09c-.22 0-.38-.09-.38-.4V8.47c0-1.25-.62-2-1.66-2a2 2 0 0 0-2 2.12v3.08c0 .31-.16.4-.38.4h-.09c-.22 0-.38-.09-.38-.4v-8.4a.39.39 0 0 1 .29-.09c.29 0 .56.14.56.82zM231.33 10.93a.51.51 0 0 1 .46-.46 2.48 2.48 0 0 0 2.12 1c1 0 1.6-.42 1.6-1s-.65-.9-1.82-1.14c-1-.21-2.17-.48-2.17-1.73s.94-1.87 2.37-1.87 2.29.71 2.29 1.18-.44.48-.47.44a2.1 2.1 0 0 0-1.82-.91c-1 0-1.56.43-1.56 1s.58.84 1.73 1.09 2.28.49 2.28 1.77-.94 1.89-2.44 1.89-2.57-.79-2.57-1.26z"/></svg>