<svg xmlns="http://www.w3.org/2000/svg" viewBox="0 0 170.6 188.7" enable-background="new 0 0 170.6 188.7"><style type="text/css">.st0{fill:#333333;} .st1{fill:#F50091;} .st2{fill:#F50091;stroke:#F50091;stroke-miterlimit:10;}</style><title>Artboard 1</title><path class="st0" d="M2.8 169.9c-.1-1.8 1.2-3.3 3-3.4h.3c1.9 0 3.4 1.5 3.4 3.4s-1.5 3.4-3.4 3.4c-1.7.1-3.2-1.3-3.3-3v-.4zm5.8 0c.1-1.4-.9-2.7-2.4-2.8H6c-1.5-.1-2.9 1-3 2.5-.1 1.5 1 2.9 2.5 3s2.9-1 3-2.5c0 0 0-.1.1-.2zM10.8 169.1c.4-.6 1-.9 1.6-.9 1.3 0 1.9.9 1.9 2.1v2.5c0 .2-.1.3-.3.3-.2 0-.3-.1-.3-.3v-2.5c0-1-.5-1.5-1.3-1.5-.7 0-1.3.4-1.6 1v3c0 .2-.1.3-.3.3h-.1c-.2 0-.3-.1-.3-.3v-4.5c.1-.1.1-.1.2-.1.2 0 .4.1.4.6l.1.3zM17.9 172.9v-5.2c-.2.2-.5.4-.8.4-.4 0-.7-.2-.7-.6 0-.2.1-.3.2-.4.1.2.4.3.6.2.4 0 .8-.4.8-.8h.3c.1 0 .3.1.3.2v6.1c0 .2-.1.3-.3.3h-.1c-.2.1-.3 0-.3-.2zM19.9 171.5c0-.8.6-1.5 1.3-1.6-.7-.2-1.2-.8-1.1-1.5 0-1.1.9-1.8 2.3-1.8s2.2.7 2.2 1.8c0 .7-.5 1.3-1.1 1.5.8.2 1.3.9 1.3 1.6 0 1.1-1 1.8-2.4 1.8s-2.5-.7-2.5-1.8zm4.2 0c0-.8-.6-1.3-1.8-1.3s-1.8.5-1.8 1.3.6 1.3 1.8 1.3 1.7-.6 1.8-1.3zm-.2-3.1c0-.7-.5-1.2-1.6-1.2s-1.6.5-1.6 1.2.6 1.2 1.6 1.2 1.6-.5 1.6-1.2zM27.7 169.1c.3-.5.9-.8 1.5-.8.7 0 1.3.4 1.6 1 .3-.6 1-1 1.7-1 1.2 0 1.8.7 1.8 2v2.6c0 .2-.1.3-.3.3-.2 0-.3-.1-.3-.3v-2.6c0-1-.4-1.4-1.2-1.4-.6 0-1.2.4-1.4 1v3.1c0 .2-.1.3-.3.3h-.1c-.2 0-.3-.1-.3-.3v-2.5c0-1-.4-1.5-1.2-1.5-.6 0-1.2.4-1.4 1v3.1c0 .2-.1.3-.3.3h-.1c-.2 0-.3-.1-.3-.3v-4.5c.1-.1.1-.1.2-.1.2 0 .4.1.4.6zM35.1 170.8c0-1.4 1.2-2.4 2.5-2.4 1.4 0 2.4 1.2 2.4 2.5s-1.1 2.4-2.5 2.4c-1.3 0-2.4-1-2.5-2.3.1-.1.1-.2.1-.2zm4.3 0c-.1-1-.9-1.8-1.9-1.7-1 .1-1.8.9-1.7 1.9.1 1 .9 1.7 1.8 1.7 1 0 1.8-.9 1.8-1.9zM41.5 169.1c.4-.6 1-.9 1.6-.9 1.3 0 1.9.9 1.9 2.1v2.5c0 .2-.1.3-.3.3h-.1c-.2 0-.3-.1-.3-.3v-2.5c0-1-.5-1.5-1.3-1.5-.7 0-1.3.4-1.6 1v3c0 .2-.1.3-.3.3H41c-.2 0-.3-.1-.3-.3v-4.5c.1-.1.1-.1.2-.1.2 0 .4.1.4.6l.2.3zM45.5 168.7c0-.2.1-.3.3-.3h.4v-.8c0-.2.1-.3.3-.3h.1c.2 0 .3.1.3.3v.8h1.3c.2 0 .3.1.3.3v.1c0 .2-.1.3-.3.3h-1.3v2.7c0 .7.2 1 .7 1 .3 0 .6-.1.8-.4 0 0 .2.1.2.3s-.3.6-1 .6c-.9 0-1.3-.5-1.3-1.5V169h-.4c-.3 0-.4-.1-.4-.3zM49.8 169.1c.3-.6 1-.9 1.6-.9 1.3 0 1.9.9 1.9 2.1v2.5c0 .2-.1.3-.3.3-.2 0-.3-.1-.3-.3v-2.5c0-1-.5-1.5-1.3-1.5s-1.5.6-1.6 1.5v2.6c0 .2-.1.3-.3.3h-.1c-.2 0-.3-.1-.3-.3v-6.5c.1-.1.1-.1.2-.1.2 0 .4.1.4.6l.1 2.2zM55.6 170.8c0-1.3 1-2.5 2.3-2.5h.1c1.4 0 2.1.9 2.1 1.3s-.4.4-.4.3c-.2-.7-.9-1.1-1.6-1.1-1.1.1-1.9 1-1.8 2.1.1 1 .8 1.7 1.8 1.8.7 0 1.4-.4 1.6-1.1 0 0 .4 0 .4.3s-.7 1.3-2.1 1.3c-1.3.1-2.4-1-2.4-2.4zM60.5 170.8c0-1.4 1.2-2.4 2.5-2.4 1.4 0 2.4 1.2 2.4 2.5s-1.1 2.4-2.5 2.4c-1.3 0-2.4-1-2.5-2.4.1 0 .1-.1.1-.1zm4.3 0c-.1-1-.9-1.8-1.9-1.7-1 .1-1.8.9-1.7 1.9.1 1 .9 1.7 1.8 1.7 1 0 1.8-.9 1.8-1.9zM66.9 169.1c.4-.6 1-.9 1.6-.9 1.3 0 1.9.9 1.9 2.1v2.5c0 .2-.1.3-.3.3H70c-.2 0-.3-.1-.3-.3v-2.5c0-1-.5-1.5-1.3-1.5-.7 0-1.3.4-1.6 1v3c0 .2-.1.3-.3.3h-.1c-.2 0-.3-.1-.3-.3v-4.5c.1-.1.1-.1.2-.1.2 0 .4.1.4.6l.2.3zM71 168.7c0-.2.1-.3.3-.3h.4v-.8c0-.2.1-.3.3-.3h.1c.2 0 .3.1.3.3v.8h1.3c.2 0 .3.1.3.3v.1c0 .2-.1.3-.3.3h-1.3v2.7c0 .7.2 1 .7 1 .3 0 .6-.1.8-.4 0 0 .2.1.2.3s-.3.6-1 .6c-.9 0-1.3-.5-1.3-1.5V169h-.4c-.4 0-.4-.1-.4-.3zM75.3 169.2c.1-.6.7-1 1.3-1 .4 0 .7.2.7.5s-.2.4-.2.3c-.2-.1-.4-.2-.6-.2-.9 0-1.2.9-1.2 2.1v1.9c0 .2-.1.3-.3.3h-.1c-.2 0-.3-.1-.3-.3v-4.5c.1-.1.1-.1.2-.1.2 0 .4.1.4.6l.1.4zM77.4 171.9c0-1.1 1.1-1.6 3.3-1.6h.1v-.2c.1-.7-.4-1.2-1.1-1.3h-.3c-.6 0-1.2.3-1.5.9-.2 0-.4-.2-.4-.4 0-.3.7-1.1 2-1.1 1-.1 1.8.6 1.9 1.5v3.3s-.1.1-.2.1-.4-.1-.4-.6v-.2c-.4.6-1.1.9-1.8.9-1 .1-1.6-.5-1.6-1.3zm3.5-.6v-.4h-.3c-1.6.1-2.5.4-2.5 1.1 0 .5.4.8 1 .8.9.1 1.6-.5 1.8-1.3v-.2zM82.3 170.8c-.1-1.3 1-2.5 2.3-2.5h.1c1.4 0 2.1.9 2.1 1.3s-.4.4-.4.3c-.2-.7-.9-1.1-1.6-1.1-1.1.1-1.9 1-1.8 2.1.1 1 .8 1.7 1.8 1.8.7 0 1.4-.4 1.6-1.1 0 0 .4 0 .4.3s-.7 1.3-2.1 1.3c-1.3 0-2.4-1-2.5-2.4h.1zM87.1 168.7c0-.2.1-.3.3-.3h.4v-.8c0-.2.1-.3.3-.3h.1c.2 0 .3.1.3.3v.8h1.3c.2 0 .3.1.3.3v.1c0 .2-.1.3-.3.3h-1.3v2.7c0 .7.2 1 .7 1 .3 0 .6-.1.8-.4 0 0 .2.1.2.3s-.3.6-1 .6c-.9 0-1.3-.5-1.3-1.5V169h-.4c-.3 0-.4-.1-.4-.3zM90.8 172.8v-.1c0-.2.1-.4.4-.4h.2c.2 0 .4.1.4.4v.2c0 .2-.2.4-.4.4h-.2c-.2-.1-.4-.2-.4-.5zM93.8 170.2c0-.3.1-.3.3-.3h.9l.3-1.5c.2-1.2.8-1.8 1.9-1.8.8-.1 1.5.5 1.7 1.3 0 .2-.2.4-.4.4h-.1c-.1-.6-.6-1.1-1.2-1.1-.8 0-1.1.4-1.3 1.3l-.3 1.5h1.7c.2 0 .3.1.3.3v.1c0 .2-.1.3-.3.3h-1.7l-.4 2h3.2c.2 0 .3.1.3.3 0 .2-.1.3-.3.3H94c-.2 0-.3-.1-.3-.3v-.1c0-.2.1-.3.3-.3h.6l.4-2h-.8c-.3-.1-.4-.2-.4-.4zM99.2 167c0-.2.1-.3.3-.3h4.1c.3 0 .4.1.4.3 0 .2-.1.3-.2.5l-2.9 5.5c-.1.1-.2.2-.4.2s-.4-.2-.4-.3l3-5.6h-3.6c-.2 0-.3-.1-.3-.2v-.1zM103.7 172.8v-.1c0-.2.1-.4.4-.4h.2c.2 0 .4.1.4.4v.2c0 .2-.2.4-.4.4h-.2c-.2-.1-.4-.2-.4-.5zM106.2 169.5c.4-.2.9-.3 1.4-.3 1.1-.2 2.1.6 2.3 1.7v.3c0 1.3-.9 2.1-2.4 2.1-1.3 0-2.2-.8-2.2-1.3 0-.3.4-.4.4-.4.4.7 1.1 1.1 1.8 1 1 0 1.7-.6 1.7-1.5 0-.8-.6-1.4-1.4-1.5h-.2c-.6 0-1.2.1-1.7.5-.2 0-.4-.2-.4-.4V167c0-.2.2-.4.4-.4h3.4c.2 0 .3.1.3.3 0 .2-.1.3-.3.3h-3.1v2.3zM110.6 170.2v-.7c0-1.9 1-3.1 2.6-3.1s2.6 1.2 2.6 3v.7c0 1.9-1 3.1-2.6 3.1s-2.6-1.1-2.6-3zm4.5 0v-.6c0-1.6-.7-2.5-1.9-2.5s-1.9.9-1.9 2.5v.6c0 1.6.7 2.5 1.9 2.5s1.9-.9 1.9-2.5zM117.9 171.9c0-1.1 1.1-1.6 3.3-1.6h.1v-.2c.1-.7-.4-1.2-1.1-1.3h-.3c-.6 0-1.2.3-1.5.9-.2 0-.4-.2-.4-.4 0-.3.7-1.1 2-1.1 1-.1 1.8.6 1.9 1.5v3.3s-.1.1-.2.1-.4-.1-.4-.6v-.2c-.4.6-1.1.9-1.8.9-.9.1-1.6-.5-1.6-1.3zm3.5-.6v-.4h-.3c-1.6.1-2.5.4-2.5 1.1 0 .5.4.8 1 .8.9.1 1.6-.5 1.8-1.3v-.2zM125.2 169.1c.3-.5.9-.8 1.5-.8.7 0 1.3.4 1.6 1 .3-.6 1-1 1.7-1 1.2 0 1.9.7 1.9 2v2.6c0 .2-.1.3-.3.3h-.1c-.2 0-.3-.1-.3-.3v-2.6c0-1-.4-1.4-1.2-1.4-.6 0-1.2.4-1.4 1v3.1c0 .2-.1.3-.3.3h-.1c-.2 0-.3-.1-.3-.3v-2.5c0-1-.4-1.5-1.2-1.5-.6 0-1.2.4-1.4 1v3.1c0 .2-.1.3-.3.3h-.1c-.2 0-.3-.1-.3-.3v-4.5c.1-.1.1-.1.2-.1.2 0 .4.1.4.6zM132.6 170.8c0-1.4 1.2-2.4 2.5-2.4 1.4 0 2.4 1.2 2.4 2.5s-1.1 2.4-2.5 2.4c-1.3 0-2.4-1-2.5-2.3.1-.1.1-.2.1-.2zm4.3 0c-.1-1-.9-1.8-1.9-1.7-1 .1-1.8.9-1.7 1.9.1 1 .9 1.7 1.8 1.7 1 0 1.8-.9 1.8-1.9zM139 169.1c.4-.6 1-.9 1.6-.9 1.3 0 1.9.9 1.9 2.1v2.5c0 .2-.1.3-.3.3h-.1c-.2 0-.3-.1-.3-.3v-2.5c0-1-.5-1.5-1.3-1.5-.7 0-1.3.4-1.6 1v3c0 .2-.1.3-.3.3h-.1c-.2 0-.3-.1-.3-.3v-4.5c.1-.1.1-.1.2-.1.2 0 .4.1.4.6l.2.3zM143 168.7c0-.2.1-.3.3-.3h.4v-.8c0-.2.1-.3.3-.3h.1c.2 0 .3.1.3.3v.8h1.3c.2 0 .3.1.3.3v.1c0 .2-.1.3-.3.3h-1.3v2.7c0 .7.2 1 .7 1 .3 0 .6-.1.8-.4 0 0 .2.1.2.3s-.4.6-1 .6c-.9 0-1.3-.5-1.3-1.5V169h-.4c-.3 0-.4-.1-.4-.3zM147.3 169.1c.3-.6 1-.9 1.6-.9 1.3 0 1.9.9 1.9 2.1v2.5c0 .2-.1.3-.3.3h-.1c-.2 0-.3-.1-.3-.3v-2.5c0-1-.5-1.5-1.3-1.5s-1.5.6-1.6 1.5v2.6c0 .2-.1.3-.3.3h.1c-.2 0-.3-.1-.3-.3v-6.5c.1-.1.1-.1.2-.1.2 0 .4.1.4.6v2.2zM2.5 179.8c0-.2.1-.3.3-.3h.4v-.8c0-.2.1-.3.3-.3h.1c.2 0 .3.1.3.3v.8h1.3c.2 0 .3.1.3.3v.1c0 .2-.1.3-.3.3H3.9v2.7c0 .7.2 1 .7 1 .3 0 .6-.1.8-.4 0 0 .2.1.2.3s-.3.6-1 .6c-.9 0-1.3-.5-1.3-1.5V180h-.5c-.2 0-.3-.1-.3-.2zM6.9 180.2c.3-.6 1-.9 1.6-.9 1.3 0 1.9.9 1.9 2.1v2.6c0 .2-.1.3-.3.3H10c-.2 0-.3-.1-.3-.3v-2.5c0-1-.5-1.5-1.3-1.5s-1.5.6-1.6 1.5v2.6c0 .2-.1.3-.3.3-.2 0-.3-.1-.3-.3v-6.5c.1-.1.1-.1.2-.1.2 0 .4.1.4.6l.1 2.1zM11.1 181.9c-.1-1.3.9-2.5 2.3-2.5h.1c1.2 0 2.2.9 2.3 2.1v.4c0 .2-.1.2-.3.2h-3.7c0 1 .8 1.8 1.8 1.8.7.1 1.3-.3 1.6-.9.2 0 .4.2.4.4 0 .3-.7 1.1-2 1.1-1.3.1-2.4-1-2.5-2.3v-.3zm.7-.4h3.3c0-.8-.6-1.5-1.5-1.6h-.1c-.9 0-1.6.7-1.7 1.6zM17.2 180.3c.1-.6.7-1 1.3-1 .4 0 .7.2.7.5s-.2.4-.2.3c-.2-.1-.4-.2-.6-.2-.9 0-1.2.9-1.2 2.1v1.9c0 .2-.1.3-.3.3h-.1c-.2 0-.3-.1-.3-.3v-4.5c.1-.1.1-.1.2-.1.2 0 .4.1.4.6l.1.4zM19.3 181.9c-.1-1.3.9-2.5 2.3-2.5h.1c1.2 0 2.2.9 2.3 2.1v.4c0 .2-.1.2-.3.2H20c0 1 .8 1.8 1.8 1.8.7.1 1.3-.3 1.6-.9.2 0 .4.2.4.4 0 .3-.7 1.1-2 1.1-1.3.1-2.4-.9-2.5-2.2v-.4zm.7-.4h3.3c0-.8-.6-1.5-1.5-1.6h-.1c-.9 0-1.6.7-1.7 1.6zM24.4 183c0-1.1 1.1-1.6 3.3-1.6h.1v-.2c.1-.7-.4-1.2-1.1-1.3h-.3c-.6 0-1.2.3-1.5.9-.2 0-.4-.2-.4-.4 0-.3.7-1.1 2-1.1 1-.1 1.8.6 1.9 1.5v3.3s-.1.1-.2.1-.4-.1-.4-.6v-.2c-.4.6-1.1.9-1.8.9-1 .1-1.6-.5-1.6-1.3zm3.5-.7v-.4h-.3c-1.6.1-2.5.4-2.5 1.1 0 .5.4.8 1 .8.9.1 1.6-.5 1.8-1.3v-.2zM29 179.8c0-.2.1-.3.3-.3h.7v-.5c0-1.1.5-1.7 1.4-1.7.6 0 1 .3 1 .6s-.2.3-.2.3c-.2-.2-.5-.3-.8-.3-.5 0-.8.4-.8 1.1v.4h1c.2 0 .3.1.3.3v.1c0 .2-.1.3-.3.3h-1v4c0 .2-.1.3-.3.3h-.1c-.2 0-.3-.1-.3-.3v-4h-.7c-.1-.1-.2-.2-.2-.3zM32.2 179.8c0-.2.1-.3.3-.3h.5v-.8c0-.2.1-.3.3-.3h.1c.2 0 .3.1.3.3v.8H35c.2 0 .3.1.3.3v.1c0 .2-.1.3-.3.3h-1.3v2.7c0 .7.2 1 .7 1 .3 0 .6-.1.8-.4 0 0 .2.1.2.3s-.3.6-1 .6c-.9 0-1.3-.5-1.3-1.5V180h-.4c-.4 0-.5-.1-.5-.2zM35.5 181.9c-.1-1.3.9-2.5 2.3-2.5h.1c1.2 0 2.2.9 2.3 2.1v.4c0 .2-.1.2-.3.2h-3.7c0 1 .8 1.8 1.8 1.8.7.1 1.3-.3 1.6-.9.2 0 .4.2.4.4 0 .3-.7 1.1-2 1.1-1.3.1-2.4-.9-2.5-2.2v-.4zm.7-.4h3.3c0-.8-.6-1.5-1.5-1.6h-.1c-.9 0-1.6.7-1.7 1.6zM41.6 180.3c.1-.6.7-1 1.3-1 .4 0 .7.2.7.5s-.2.4-.2.3c-.2-.1-.4-.2-.6-.2-.9 0-1.2.9-1.2 2.1v1.9c0 .2-.1.3-.3.3h-.1c-.2 0-.3-.1-.3-.3v-4.5c.1-.1.1-.1.2-.1.2 0 .4.1.4.6l.1.4zM45.3 181.6c0-.2.1-.3.3-.3h1.6v-1.6c0-.2.1-.3.3-.3.2 0 .3.1.3.3v1.6h1.6c.2 0 .3.1.3.3v.1c0 .2-.1.3-.3.3h-1.6v1.8c0 .2-.1.3-.3.3-.2 0-.3-.1-.3-.3V182h-1.6c-.2-.2-.3-.2-.3-.4zM51.8 181.3c0-.3.1-.3.3-.3h.9l.3-1.5c.2-1.2.8-1.8 1.9-1.8.8-.1 1.5.5 1.7 1.3 0 .2-.2.4-.4.4h-.1c-.1-.6-.6-1.1-1.2-1.1-.8 0-1.1.4-1.3 1.3l-.3 1.5h1.7c.2 0 .3.1.3.3v.1c0 .2-.1.3-.3.3h-1.7l-.4 2h3.2c.2 0 .3.1.3.3 0 .2-.1.3-.3.3H52c-.2 0-.3-.1-.3-.3v-.1c0-.2.1-.3.3-.3h.6l.4-2h-.8c-.3-.1-.4-.2-.4-.4zM58.7 184v-5.2c-.2.2-.5.4-.8.4-.4 0-.7-.2-.7-.6 0-.2.1-.3.2-.4.1.2.4.3.6.2.4 0 .8-.4.8-.8h.3c.1 0 .3.1.3.2v6.1c0 .2-.1.3-.3.3H59c-.2.1-.3 0-.3-.2zM60.5 178.1c0-.2.1-.3.3-.3h4.1c.3 0 .4.1.4.3v.1c0 .2-.1.3-.2.5l-2.9 5.4c-.1.1-.2.2-.4.2s-.4-.2-.4-.3l3-5.6h-3.6c-.1 0-.2-.1-.3-.3zM65 183.9v-.1c0-.2.1-.4.4-.4h.2c.2 0 .4.1.4.4v.2c0 .2-.2.4-.4.4h-.2c-.2-.1-.4-.2-.4-.5zM66.6 178.1c0-.2.1-.3.3-.3H71c.3 0 .4.1.4.3v.1c0 .2-.1.3-.2.5l-2.9 5.4c-.1.1-.2.2-.4.2s-.4-.2-.4-.3l3-5.6h-3.6c-.2 0-.3-.1-.3-.3zM71.7 181.3v-.7c0-1.9 1-3.1 2.6-3.1s2.6 1.2 2.6 3v.7c0 1.9-1 3.1-2.6 3.1s-2.6-1.1-2.6-3zm4.5 0v-.6c0-1.6-.7-2.5-1.9-2.5s-1.9.9-1.9 2.5v.6c0 1.6.7 2.5 1.9 2.5s1.9-.9 1.9-2.5zM80 180.2c.3-.5.9-.8 1.5-.8.7 0 1.3.4 1.6 1 .3-.6 1-1 1.7-1 1.2 0 1.8.7 1.8 2v2.7c0 .2-.1.3-.3.3h-.1c-.2 0-.3-.1-.3-.3v-2.6c0-1-.4-1.4-1.2-1.4-.6 0-1.2.4-1.4 1v3.1c0 .2-.1.3-.3.3-.2 0-.3-.1-.3-.3v-2.5c0-1-.4-1.5-1.2-1.5-.6 0-1.2.4-1.4 1v3c0 .2-.1.3-.3.3h-.1c-.2 0-.3-.1-.3-.3v-4.5c.1-.1.1-.1.2-.1.2 0 .4.1.4.6zM87.4 181.8c0-1.4 1.2-2.4 2.5-2.4 1.4 0 2.4 1.2 2.4 2.5s-1.1 2.4-2.5 2.4c-1.3 0-2.4-1-2.5-2.3.1 0 .1-.1.1-.2zm4.3 0c-.1-1-.9-1.8-1.9-1.7-1 .1-1.8.9-1.7 1.9.1 1 .9 1.7 1.8 1.7 1 .1 1.8-.8 1.8-1.9 0 .1 0 .1 0 0zM93.8 180.2c.4-.6 1-.9 1.6-.9 1.3 0 1.9.9 1.9 2.1v2.6c0 .2-.1.3-.3.3-.2 0-.3-.1-.3-.3v-2.5c0-1-.5-1.5-1.3-1.5-.7 0-1.3.4-1.6 1v3c0 .2-.1.3-.3.3h-.1c-.2 0-.3-.1-.3-.3v-4.5c.1-.1.1-.1.2-.1.2 0 .4.1.4.6l.1.2zM97.8 179.8c0-.2.1-.3.3-.3h.4v-.8c0-.2.1-.3.3-.3h.2c.2 0 .3.1.3.3v.8h1.3c.2 0 .3.1.3.3v.1c0 .2-.1.3-.3.3h-1.3v2.7c0 .7.2 1 .7 1 .3 0 .6-.1.8-.4 0 0 .2.1.2.3s-.3.6-1 .6c-.9 0-1.3-.5-1.3-1.5V180h-.4c-.4 0-.5-.1-.5-.2zM102.2 180.2c.3-.6 1-.9 1.6-.9 1.3 0 1.9.9 1.9 2.1v2.6c0 .2-.1.3-.3.3h-.1c-.2 0-.3-.1-.3-.3v-2.5c0-1-.5-1.5-1.3-1.5s-1.5.6-1.6 1.5v2.6c0 .2-.1.3-.3.3h-.1c-.2 0-.3-.1-.3-.3v-6.5c.1-.1.1-.1.2-.1.2 0 .4.1.4.6v2.1zM106.8 184v-6.5c.1-.1.1-.1.2-.1.2 0 .4.1.4.6v6c0 .2-.1.3-.3.3h-.1c-.1 0-.2-.1-.2-.3zM109.4 186.1l.8-2.1c-.2 0-.3-.1-.4-.2l-1.8-4.1s.1-.2.3-.2.3.1.5.4l1.5 3.8 1.3-3.7c.1-.4.3-.5.5-.5s.3.1.3.2l-2.3 6.2c-.1.4-.3.4-.5.4s-.2-.2-.2-.2zM114.6 184v-6.5c.1-.1.1-.1.2-.1.2 0 .4.1.4.6v6c0 .2-.1.3-.3.3h-.1s-.2-.1-.2-.3zM116.4 177.8c0-.2.1-.4.3-.4h.1c.2 0 .4.1.4.3v.1c0 .2-.2.4-.4.4-.2.1-.4-.1-.4-.4zm.1 6.2v-4.2c0-.2.1-.3.3-.3h.1c.2 0 .3.1.3.3v4.3c0 .2-.1.3-.3.3h-.1c-.2-.1-.3-.2-.3-.4zM118.9 180.2c.4-.6 1-.9 1.6-.9 1.3 0 1.9.9 1.9 2.1v2.6c0 .2-.1.3-.3.3h-.1c-.2 0-.3-.1-.3-.3v-2.5c0-1-.5-1.5-1.3-1.5-.7 0-1.3.4-1.6 1v3c0 .2-.1.3-.3.3h-.1c-.2 0-.3-.1-.3-.3v-4.5c.1-.1.1-.1.2-.1.2 0 .4.1.4.6l.2.2zM123.2 181.9c-.1-1.3.9-2.5 2.3-2.5h.1c1.2 0 2.2.9 2.3 2.1v.4c0 .2-.1.2-.3.2h-3.7c0 1 .8 1.8 1.8 1.8.7.1 1.3-.3 1.6-.9.2 0 .4.2.4.4 0 .3-.7 1.1-2 1.1-1.3.1-2.4-.9-2.5-2.3v-.3zm.7-.4h3.3c0-.8-.6-1.5-1.5-1.6h-.1c-.9 0-1.6.7-1.7 1.6zM130.7 180.3c.1-.6.7-1 1.3-1 .4 0 .7.2.7.5s-.2.4-.2.3c-.2-.1-.4-.2-.6-.2-.9 0-1.2.9-1.2 2.1v1.9c0 .2-.1.3-.3.3h-.1c-.2 0-.3-.1-.3-.3v-4.5c.1-.1.1-.1.2-.1.2 0 .4.1.4.6l.1.4zM132.9 181.9c-.1-1.3.9-2.5 2.3-2.5h.1c1.2 0 2.2.9 2.3 2.1v.4c0 .2-.1.2-.3.2h-3.7c0 1 .8 1.8 1.8 1.8.7.1 1.3-.3 1.6-.9.2 0 .4.2.4.4 0 .3-.7 1.1-2 1.1-1.3.1-2.4-.9-2.5-2.3v-.3zm.6-.4h3.3c0-.8-.6-1.5-1.5-1.6h-.1c-.8 0-1.6.7-1.7 1.6zM138.9 180.2c.4-.6 1-.9 1.6-.9 1.3 0 1.9.9 1.9 2.1v2.6c0 .2-.1.3-.3.3h-.1c-.2 0-.3-.1-.3-.3v-2.5c0-1-.5-1.5-1.3-1.5-.7 0-1.3.4-1.6 1v3c0 .2-.1.3-.3.3h-.1c-.2 0-.3-.1-.3-.3v-4.5c.1-.1.1-.1.2-.1.2 0 .4.1.4.6l.2.2zM143 179.8c0-.2.1-.3.3-.3h.4v-.8c0-.2.1-.3.3-.3h.1c.2 0 .3.1.3.3v.8h1.3c.2 0 .3.1.3.3v.1c0 .2-.1.3-.3.3h-1.3v2.7c0 .7.2 1 .7 1 .3 0 .6-.1.8-.4 0 0 .2.1.2.3s-.4.6-1 .6c-.9 0-1.3-.5-1.3-1.5V180h-.4c-.4 0-.4-.1-.4-.2zM146.3 183c0-1.1 1.1-1.6 3.3-1.6h.1v-.2c.1-.7-.4-1.2-1.1-1.3h-.3c-.6 0-1.2.3-1.5.9-.2 0-.4-.2-.4-.4 0-.3.7-1.1 2-1.1 1-.1 1.8.6 1.9 1.5v3.3s-.1.1-.2.1-.4-.1-.4-.6v-.2c-.4.6-1.1.9-1.8.9-1 .1-1.6-.5-1.6-1.3zm3.4-.7v-.4h-.3c-1.6.1-2.5.4-2.5 1.1 0 .5.4.8 1 .8.9.1 1.6-.5 1.8-1.3v-.2zM151.5 184v-6.5c.1-.1.1-.1.2-.1.2 0 .4.1.4.6v6c0 .2-.1.3-.3.3h-.1c-.1 0-.2-.1-.2-.3zM3.7 6.9c0-.7.3-1 1-1h9.1c.6 0 .9.3.9.9v.1c0 .5-.3.8-.7.9h-3.7V18c.1.5-.3.9-.7.9h-.5c-.6 0-.9-.3-.9-.9V7.8H4.6c-.6 0-.9-.3-.9-.9zM14 14.1c-.1-2.7 2-4.9 4.7-5h.4c2.7-.1 4.9 2 5 4.7v.4c.1 2.7-2 4.9-4.7 5h-.3c-2.7.1-4.9-1.9-5.1-4.6v-.5zm8.2 0c.1-1.8-1.2-3.3-3-3.5-1.8-.1-3.3 1.2-3.5 3v.5c-.1 1.8 1.3 3.3 3.1 3.5h.1c1.8 0 3.2-1.5 3.2-3.2.1-.1.1-.2.1-.3zM25 10.2V10c0-.5.2-.7.9-.7h.7V7.8c0-.7.3-.9.9-.9h.2c.5 0 .9.2.9.9v1.5h2.2c.6 0 .8.2.8.7v.1c0 .5-.2.8-.9.8h-2.2v4.9c0 1.2.3 1.8 1.3 1.8.5 0 1-.2 1.4-.7.1-.1.6.2.6.8s-.8 1.5-2.2 1.5c-2 0-2.9-1.1-2.9-3.2v-5.1H26c-.7 0-1-.2-1-.7zM32.6 16.4c0-2.2 2.1-3.2 6.5-3.3h.3v-.2c.1-1.1-.7-2.2-1.9-2.3H37c-1.2-.1-2.3.6-2.8 1.6 0 0-1.2 0-1.2-1S34.3 9 37.1 9s4.2 1.4 4.2 3.8v5.9c0 .1-.4.2-.7.2-.7 0-1.2-.4-1.2-1.5-.8 1.1-2.1 1.7-3.5 1.7-2.1 0-3.3-1.1-3.3-2.7zm6.7-1.3v-.7h-.5c-2.8.1-4.2.6-4.2 1.9 0 .9.7 1.4 1.8 1.4 1.5.2 2.8-.9 2.9-2.4v-.2zM43.7 18.1V5.4c.2-.2.5-.2.7-.2.6 0 1.3.3 1.3 1.7v11.2c0 .7-.4.9-.9.9h-.2c-.5 0-.9-.2-.9-.9zM48.3 18.1V5.4c.2-.2.5-.2.7-.2.6 0 1.3.3 1.3 1.7v11.2c0 .7-.4.9-.9.9h-.2c-.5 0-.9-.2-.9-.9zM54.5 22.3l1.6-3.9c-.4 0-.7-.2-.8-.6l-3.4-8c0-.1.4-.6 1-.6s.9.3 1.3 1.1l2.6 6.6 2.3-6.6c.3-.9.7-1.2 1.2-1.2s1.1.4 1 .5l-4.5 12c-.3.9-.8 1.1-1.2 1.1s-1.1-.3-1.1-.4zM66.2 13.7V6.8c-.1-.4.2-.9.7-.9h.4c.6 0 .9.3.9.9v6.8c0 2.5 1.1 3.7 3.2 3.7s3.2-1.2 3.2-3.8V6.8c0-.6.3-.9.9-.9h.3c.6 0 .9.3.9.9v6.8c0 3.6-1.9 5.5-5.3 5.5s-5.2-1.8-5.2-5.4zM81.1 10.8c.7-1.1 1.9-1.8 3.2-1.7 2.5 0 3.7 1.7 3.7 4.1v4.9c0 .7-.4.9-.9.9h-.2c-.5 0-.9-.2-.9-.9v-4.6c0-1.6-.8-2.6-2.2-2.6-1.2 0-2.2.6-2.7 1.7v5.6c0 .7-.4.9-.9.9H80c-.5 0-.9-.2-.9-.9V9.4c.2-.2.5-.2.7-.2.7 0 1.3.3 1.3 1.6zM90.5 18.1V5.4c.2-.2.5-.2.7-.2.6 0 1.3.3 1.3 1.7v11.2c0 .7-.4.9-.9.9h-.2c-.6 0-.9-.2-.9-.9zM94.9 6.2c-.1-.6.4-1.1 1-1.2h.2c.5-.1 1.1.3 1.2.8v.3c0 .7-.4 1.1-1.2 1.1-.6.1-1.1-.2-1.2-.8v-.2zm.2 11.9v-7.9c0-.7.4-1 .9-1h.2c.5 0 .9.2.9 1v7.9c0 .7-.4.9-.9.9H96c-.6 0-.9-.2-.9-.9zM101.5 10.7c.7-1 1.8-1.6 3-1.6 1.4-.1 2.6.7 3.1 2 .7-1.2 1.9-2 3.3-2 2.4 0 3.6 1.5 3.6 4v5c0 .7-.4.9-.9.9h-.2c-.5 0-.9-.2-.9-.9v-4.8c0-1.6-.7-2.5-2.1-2.5-1 0-2 .7-2.4 1.6v5.7c0 .7-.4.9-.9.9h-.1c-.5 0-.9-.2-.9-.9v-4.7c0-1.7-.7-2.5-2.1-2.5-1 0-2 .7-2.4 1.6v5.7c0 .7-.4.9-.9.9h-.2c-.5 0-.9-.2-.9-.9V9.4c.2-.2.5-.2.7-.2.6 0 1.2.3 1.2 1.5zM116.9 6.2c-.1-.6.4-1.1 1-1.2h.2c.5-.1 1.1.3 1.2.8v.3c0 .7-.4 1.1-1.2 1.1-.5.1-1.1-.3-1.2-.8v-.2zm.1 11.9v-7.9c0-.7.4-1 .9-1h.2c.5 0 .9.2.9 1v7.9c0 .7-.4.9-.9.9h-.2c-.5 0-.9-.2-.9-.9zM120.7 10.2V10c0-.5.2-.7.9-.7h.7V7.8c0-.7.3-.9.9-.9h.2c.5 0 .9.2.9.9v1.5h2.2c.6 0 .8.2.8.7v.1c0 .5-.2.8-.9.8h-2.2v4.9c0 1.2.3 1.8 1.3 1.8.5 0 1-.2 1.4-.7.1-.1.6.2.6.8s-.8 1.5-2.2 1.5c-2 0-2.9-1.1-2.9-3.2v-5.1h-.7c-.7 0-1-.2-1-.7zM128.3 14.2c-.1-2.7 2-5 4.7-5.1h.3c2.5-.1 4.5 1.8 4.6 4.3v.7c0 .4-.1.6-.6.6h-7.1c.3 1.9 2 3.2 3.9 2.9 1-.1 1.9-.7 2.4-1.6 0 0 1 .1 1 1s-1.5 2.2-4.1 2.2c-2.6.1-4.9-1.9-5-4.5-.1-.2-.1-.4-.1-.5zm1.8-.9h5.8c.1-1.5-1.1-2.7-2.5-2.7h-.2c-1.6 0-2.9 1.2-3.1 2.7zM139.1 14.1c0-3 1.9-5.1 4.6-5.1 1.3-.1 2.5.5 3.3 1.6V5.4c.2-.2.5-.2.7-.2.6 0 1.3.3 1.3 1.7v11.2c0 .7-.4.9-.9.9h-.2c-.5 0-.9-.2-.9-.9v-.7c-.7 1.2-2 1.9-3.4 1.9-2.6-.1-4.5-2.1-4.5-5.2zm7.8.6v-2c-.4-1.3-1.7-2.1-3-2-1.8 0-3 1.4-3 3.4s1.2 3.4 3 3.4c1.6.1 3-1.1 3-2.8 0 .1 0 0 0 0zM4.7 39.9V29.1c0-.6.4-1.1 1-1.1h7.1c.6 0 1 .3 1 .8v.2c0 .6-.3.9-1 .9h-6V34h4.5c.7 0 1 .3 1 .8v.1c0 .6-.3.8-1 .8H6.7v4.4c0 .6-.3.9-.9.9h-.3c-.5 0-.8-.4-.8-1.1zM15.1 28.1c-.1-.5.3-1.1.9-1.1h.2c.5-.1 1.1.3 1.2.8v.3c0 .7-.4 1.1-1.2 1.1-.5.1-1.1-.3-1.2-.8.1-.1.1-.2.1-.3zm.1 12v-7.9c0-.7.4-1 .9-1h.2c.5 0 .9.2.9 1v7.9c0 .7-.4.9-.9.9h-.2c-.5 0-.9-.2-.9-.9zM21.7 39.5v.6c0 .7-.4.9-.9.9h-.2c-.5 0-.9-.2-.9-.9V27.4c.2-.2.5-.2.7-.2.6 0 1.3.3 1.3 1.7v3.9c.7-1.1 2-1.8 3.4-1.7 2.6 0 4.5 2 4.5 5s-1.9 5.1-4.6 5.1c-1.3 0-2.6-.6-3.3-1.7zm6-3.4c0-2-1.2-3.4-3-3.4-1.3-.1-2.5.8-3 2v2.1c.1 1.6 1.4 2.8 3 2.7 1.8 0 3-1.3 3-3.4zM33.4 32.9c.3-1.1 1.3-1.9 2.4-1.8 1 0 1.6.5 1.6 1.3 0 .4-.2.8-.6 1-.3-.3-.8-.4-1.2-.4-1.6 0-2.2 1.5-2.2 3.7v3.4c0 .7-.4.9-.9.9h-.2c-.5 0-.9-.2-.9-.9v-8.6c.2-.2.5-.2.7-.2.7-.1 1.3.2 1.3 1.6zM38.2 36.2c-.1-2.7 2-5 4.7-5.1h.3c2.5-.1 4.5 1.8 4.6 4.3v.7c0 .4-.1.6-.6.6H40c.2 1.9 1.9 3.2 3.8 3 1-.1 2-.7 2.5-1.6 0 0 1 .1 1 1s-1.5 2.2-4.1 2.2c-2.6.1-4.9-1.9-5-4.5v-.6zm1.9-.9h5.8c.1-1.5-1.1-2.7-2.5-2.7h-.2c-1.7 0-3 1.2-3.1 2.7zM53.1 39.8V29.1c0-.6.4-1.1 1-1.1H58.5c2.8 0 4.4 1.2 4.4 3.4 0 1.4-.9 2.5-2.3 2.8 1.6.2 2.8 1.6 2.8 3.2 0 2.4-1.5 3.6-4.9 3.6h-4.2c-.6 0-1.1-.4-1.1-1-.1-.1-.1-.2-.1-.2zm5.1-6.2c1.5 0 2.5-.8 2.5-2s-.8-1.9-2.5-1.9h-3v4l3-.1zm.1 5.7c2.1 0 2.9-.6 2.9-2.1s-1-2-2.9-2h-3.2v4.2l3.2-.1zM67.3 32.9c.3-1.1 1.3-1.9 2.4-1.8 1 0 1.6.5 1.6 1.3 0 .4-.2.8-.6 1-.3-.3-.8-.4-1.2-.4-1.6 0-2.2 1.5-2.2 3.7v3.4c0 .7-.4.9-.9.9h-.2c-.5 0-.9-.2-.9-.9v-8.6c.2-.2.5-.2.7-.2.6-.1 1.3.2 1.3 1.6zM72.1 36.1c0-2.8 2.3-5 5-5s5 2.3 5 5-2.3 5-5 5-5-2.2-5-5zm8.2 0c.1-1.8-1.2-3.3-3-3.5s-3.3 1.2-3.5 3v.5c-.1 1.8 1.3 3.3 3.1 3.5h.1c1.8 0 3.2-1.5 3.2-3.3.1 0 .1-.1.1-.2zM83.5 38.4c0-2.2 2.1-3.2 6.5-3.3h.3V35c.1-1.1-.7-2.2-1.9-2.3h-.5c-1.2-.1-2.3.6-2.8 1.6 0 0-1.2 0-1.2-1S85.3 31 88 31s4.2 1.4 4.2 3.8v5.9c0 .1-.4.2-.7.2-.7 0-1.2-.4-1.2-1.5-.8 1.1-2.1 1.7-3.5 1.7-2.1.1-3.3-1.1-3.3-2.7zm6.7-1.3v-.7h-.5c-2.8.1-4.2.6-4.2 1.9 0 .9.7 1.4 1.8 1.4 1.5.2 2.8-.9 2.9-2.4v-.2zM93.9 36.1c0-3 1.9-5.1 4.6-5.1 1.3-.1 2.5.5 3.3 1.6v-5.2c.2-.2.5-.2.7-.2.6 0 1.3.3 1.3 1.7v11.2c0 .7-.4.9-.9.9h-.2c-.5 0-.9-.2-.9-.9v-.7c-.7 1.2-2 1.9-3.4 1.9-2.6-.1-4.5-2.1-4.5-5.2zm7.9.6v-2c-.4-1.3-1.7-2.1-3-2-1.8 0-3 1.4-3 3.4s1.2 3.4 3 3.4c1.6.1 2.9-1.1 3-2.8 0 .1 0 0 0 0zM108.1 39.5v.6c0 .7-.4.9-.9.9h-.2c-.5 0-.9-.2-.9-.9V27.4c.2-.2.5-.2.7-.2.6 0 1.3.3 1.3 1.7v3.9c.7-1.1 2-1.8 3.4-1.7 2.6 0 4.5 2 4.5 5s-1.9 5.1-4.6 5.1c-1.3 0-2.5-.6-3.3-1.7zm6-3.4c0-2-1.2-3.4-3-3.4-1.3-.1-2.5.8-3 2v2.1c.1 1.6 1.4 2.8 3 2.7 1.8 0 3-1.3 3-3.4zM117.3 38.4c0-2.2 2.1-3.2 6.5-3.3h.2V35c.1-1.1-.7-2.2-1.9-2.3h-.5c-1.2-.1-2.3.6-2.8 1.6 0 0-1.2 0-1.2-1s1.4-2.3 4.1-2.3 4.2 1.4 4.2 3.8v5.9c0 .1-.4.2-.7.2-.7 0-1.2-.4-1.2-1.5-.8 1.1-2.1 1.7-3.5 1.7-2 .1-3.2-1.1-3.2-2.7zm6.7-1.3v-.7h-.5c-2.8.1-4.2.6-4.2 1.9 0 .9.7 1.4 1.8 1.4 1.5.2 2.8-.9 2.9-2.4v-.2zM130.3 32.8c.7-1.1 1.9-1.7 3.2-1.7 2.5 0 3.7 1.7 3.7 4.1v4.9c0 .7-.4.9-.9.9h-.2c-.5 0-.9-.2-.9-.9v-4.6c0-1.6-.8-2.6-2.2-2.6-1.2 0-2.2.6-2.7 1.7v5.6c0 .7-.4.9-.9.9h-.2c-.5 0-.9-.2-.9-.9v-8.6c.2-.2.5-.2.7-.2.6-.2 1.2.1 1.3 1.4zM139 36.1c0-3 1.9-5.1 4.6-5.1 1.3-.1 2.5.5 3.3 1.6v-5.2c.2-.2.5-.2.7-.2.6 0 1.3.3 1.3 1.7v11.2c0 .7-.4.9-.9.9h-.2c-.5 0-.9-.2-.9-.9v-.7c-.7 1.2-2 1.9-3.4 1.9-2.6-.1-4.5-2.1-4.5-5.2zm7.9.6v-2c-.4-1.3-1.7-2.1-3-2-1.8 0-3 1.4-3 3.4s1.2 3.4 3 3.4c1.6.1 2.9-1.1 3-2.8z"/><path class="st1" d="M3.7 73.5v-18c0-1 .5-1.5 1.4-1.5h.5c1 0 1.4.5 1.4 1.5V63h11v-7.6c0-1 .5-1.5 1.4-1.5h.5c1 0 1.5.5 1.5 1.5v18c0 1-.5 1.5-1.5 1.5h-.5c-.9 0-1.4-.5-1.4-1.5v-7.6H7v7.6c0 1-.5 1.5-1.4 1.5h-.5c-.9.1-1.4-.4-1.4-1.4zM37.7 68.8h-8.3l-1.8 4.8c-.2.9-.9 1.5-1.8 1.5-1 0-1.9-.7-1.8-1L31.3 55c.3-.7.8-1.1 2.3-1.1s2 .4 2.3 1.1l7.5 19.1c.1.3-.8 1-1.8 1-.9 0-1.8-.6-2-1.5l-1.9-4.8zm-7.5-2.7h6.7l-3.3-8.8-3.4 8.8zM46 73.1V55.5c0-1 .5-1.5 1.4-1.5h.5c1 0 1.5.5 1.5 1.5v16.4h9c1 0 1.5.5 1.5 1.4v.1c.1.7-.5 1.4-1.2 1.5h-11c-.9 0-1.7-.7-1.7-1.7v-.1zM62.9 73.3V56c-.1-.9.6-1.8 1.6-1.9H75.9c1 0 1.5.5 1.5 1.3v.2c0 .9-.5 1.4-1.5 1.4h-9.7v6.6h7.2c1.1 0 1.5.5 1.5 1.3v.1c0 .9-.5 1.3-1.5 1.3h-7.1v7.1c0 1-.5 1.5-1.4 1.5h-.5c-1 .1-1.5-.5-1.5-1.6zM85.8 73.5V56c-.1-.9.6-1.8 1.6-1.9H93c5.1 0 8.1 2.3 8.1 6.6s-2.8 6.7-8.2 6.7h-3.7v6.1c.1.7-.5 1.4-1.2 1.5h-.7c-1 0-1.5-.5-1.5-1.5zm3.3-8.7h3.8c3.2 0 4.8-1.4 4.8-4s-1.6-4-4.8-4h-3.8v8zM115.3 73.8l-5.7-7h-2.3v6.8c.1.7-.4 1.4-1.2 1.5h-.7c-.9 0-1.4-.6-1.4-1.7V56c-.1-.9.6-1.8 1.6-1.9H111.7c5.1 0 7.8 2.1 7.8 6.2 0 3.5-2.2 5.8-6.2 6.1l6.1 7.2c.2.2-.6 1.3-1.9 1.3-.9.1-1.7-.4-2.2-1.1zm-8-9.6h4.4c3.1 0 4.5-1.4 4.5-3.7 0-2.4-1.5-3.7-4.6-3.7h-4.3v7.4zM123.3 73.5v-18c0-1 .5-1.5 1.4-1.5h.4c1 0 1.4.5 1.4 1.5v18c0 1-.5 1.5-1.4 1.5h-.4c-.9 0-1.4-.5-1.4-1.5zM130.5 64.6c0-6.4 4.3-10.9 10.6-10.9 5.2 0 7.8 3 7.8 4.4-.1 1-.9 1.8-1.9 1.8-1.2-2-3.5-3.3-5.9-3.2-4.2 0-7.2 3.2-7.2 7.8s3.1 7.8 7.2 7.8c2.6.2 5-1.3 6-3.6.1-.2 2.1.2 2.1 1.8s-2.7 4.8-8.2 4.8c-6.2 0-10.5-4.4-10.5-10.7zM152.4 73.1V56c-.1-.9.6-1.8 1.6-1.9h12.2c1 0 1.5.5 1.5 1.4v.2c0 .9-.5 1.4-1.5 1.4h-10.5v5.8h8.1c1.1 0 1.5.5 1.5 1.3v.1c0 .9-.5 1.4-1.5 1.4h-8.1V72h10.7c1 0 1.5.4 1.5 1.3v.2c0 .9-.5 1.4-1.5 1.4h-12.2c-.9 0-1.7-.7-1.8-1.6v-.2z"/><path class="st0" d="M3 148.9v-.1c0-.3.2-.5.6-.5h.8v-.5c0-1.7.8-2.5 2.2-2.5 1 0 1.5.4 1.5.9 0 .3-.1.5-.3.6-.3-.3-.6-.4-1-.4-.7 0-1 .4-1 1.4v.5H7c.4 0 .6.2.6.5v.1c0 .3-.2.5-.6.5H5.8v5.1c0 .5-.2.7-.6.7H5c-.4 0-.6-.2-.6-.7v-5.1h-.8c-.5 0-.6-.2-.6-.5zM8 151.7c-.1-1.9 1.4-3.5 3.3-3.6h.3c2 0 3.6 1.6 3.6 3.6s-1.6 3.6-3.6 3.6c-1.9.1-3.5-1.4-3.6-3.3v-.3zm5.9 0c0-1.3-1-2.3-2.3-2.3s-2.3 1-2.3 2.3c-.1 1.3.9 2.4 2.2 2.5h.1c1.3 0 2.3-1 2.3-2.3v-.2zM17.9 149.4c.2-.8.9-1.3 1.7-1.3.7 0 1.1.3 1.1.9 0 .3-.1.6-.4.7-.2-.2-.6-.3-.9-.3-1.1 0-1.5 1.1-1.5 2.6v2.4c0 .5-.3.7-.6.7h-.2c-.4 0-.6-.2-.6-.7v-6.1c.1-.1.3-.2.5-.2.4.1.9.3.9 1.3zM25.7 154.5v-6.6c-.3.3-.6.4-1 .4-.5.1-1-.3-1.1-.9v-.1c0-.3.1-.6.4-.7.2.2.5.3.8.3.6 0 1.1-.5 1.2-1.1h.5c.4 0 .6.2.6.7v8c0 .4-.2.7-.6.7h-.2c-.4 0-.6-.3-.6-.7zM29 152.7c0-1.1.8-2.1 1.9-2.3-1-.2-1.6-1.1-1.6-2.1 0-1.5 1.3-2.6 3.3-2.6s3.3 1 3.3 2.5c0 1-.6 1.8-1.6 2.1 1.1.2 1.9 1.2 1.9 2.3 0 1.5-1.4 2.6-3.6 2.6s-3.6-1-3.6-2.5zm5.8-.1c0-1-.8-1.6-2.2-1.6s-2.2.6-2.2 1.6.8 1.6 2.2 1.6 2.2-.7 2.2-1.6zm-.3-4.2c0-.9-.7-1.5-1.9-1.5s-1.9.6-1.9 1.5.7 1.5 1.9 1.5 2-.6 1.9-1.5zM41.5 149.3c.5-.7 1.3-1.1 2.1-1.1 1-.1 1.9.5 2.2 1.4.5-.9 1.4-1.4 2.4-1.4 1.7 0 2.6 1 2.6 2.8v3.6c0 .5-.3.7-.6.7H50c-.4 0-.6-.2-.6-.7v-3.4c0-1.1-.5-1.8-1.5-1.8-.7 0-1.4.5-1.7 1.1v4c0 .5-.2.7-.6.7h-.1c-.4 0-.6-.2-.6-.7v-3.4c0-1.2-.5-1.8-1.5-1.8-.7 0-1.4.5-1.7 1.1v4c0 .5-.3.7-.6.7h-.2c-.4 0-.6-.2-.6-.7v-6.1c.1-.1.3-.2.5-.2.2.1.6.3.7 1.2zM52 151.7c0-2 1.6-3.6 3.6-3.6s3.6 1.6 3.6 3.6-1.6 3.6-3.6 3.6c-1.9.1-3.5-1.4-3.6-3.3v-.3zm5.8 0c0-1.3-1-2.3-2.3-2.3-1.3 0-2.3 1-2.3 2.3-.1 1.3.9 2.4 2.2 2.5h.1c1.3 0 2.3-1.1 2.3-2.3v-.2zM61.8 149.3c.5-.8 1.4-1.2 2.3-1.2 1.8 0 2.6 1.2 2.6 2.9v3.5c0 .5-.3.7-.6.7H66c-.4 0-.6-.2-.6-.7v-3.3c0-1.1-.6-1.9-1.6-1.9-.8 0-1.6.4-1.9 1.2v4c0 .5-.3.7-.6.7h-.2c-.4 0-.6-.2-.6-.7v-6.1c.1-.1.3-.2.5-.2.4 0 .8.2.8 1.1zM67.7 148.9v-.1c0-.3.2-.5.6-.5h.5v-1c0-.5.2-.7.6-.7h.1c.4 0 .6.1.6.7v1h1.6c.4 0 .6.2.6.5v.1c0 .4-.2.5-.6.5h-1.6v3.4c0 .9.2 1.3.9 1.3.4 0 .8-.2 1-.5 0 0 .4.2.4.6s-.6 1-1.6 1c-1.4 0-2-.8-2-2.3v-3.6h-.5c-.5.1-.6-.1-.6-.4zM75 149.4c.5-.8 1.3-1.3 2.3-1.2 1.8 0 2.6 1.2 2.6 3v3.4c0 .5-.3.7-.6.7h-.2c-.4 0-.6-.2-.6-.7v-3.3c0-1.2-.6-1.9-1.6-1.9-1-.1-1.9.7-1.9 1.7v3.4c0 .5-.3.7-.6.7h-.2c-.4 0-.6-.2-.6-.7v-9c.1-.1.3-.2.5-.2.4 0 .9.2.9 1.2v2.9zM81 153.8c0-.3.2-.6.6-.6.6.7 1.4 1 2.3 1 1 0 1.5-.4 1.5-.9s-.6-.8-1.8-1.1-2.4-.5-2.4-2c0-1.3 1.1-2.1 2.7-2.1s2.6.7 2.6 1.4c0 .3-.3.6-.6.6-.5-.6-1.2-1-2-1-1 0-1.5.4-1.5.9s.6.8 1.7 1 2.5.5 2.5 2c0 1.3-1.1 2.1-2.8 2.1s-2.8-.6-2.8-1.3z"/><path class="st1" d="M46.3 123.7c0-6.7 4-11.9 11.7-14.4-6.8-2.2-10-6.9-10-13.1C48 86.7 56.3 80 69.2 80c13 0 20.9 6.3 20.9 16 0 6.2-3.3 10.8-9.9 13.2 7.9 2.4 11.7 7.6 11.7 14.5 0 9.7-9 16.5-22.7 16.5-14.3 0-22.9-6.5-22.9-16.5zm36.5-.7c0-6.2-5.1-10.3-13.7-10.3s-13.7 4-13.7 10.3c0 5.9 5.1 10.1 13.8 10.1 8.9 0 13.6-3.8 13.6-10.1zm-1.6-26.2c0-5.7-4.4-9.7-12.2-9.7-8.1 0-12.2 3.8-12.2 9.7 0 5.6 4.6 9.3 12.3 9.3s12.1-3.5 12.1-9.3zM5.1 119.4v-.6c0-1.3 1-2.3 2.2-2.4H12.6l1.6-8.6c1.4-7.9 5.8-12.3 13.2-12.3 7.6 0 11.4 4.6 11.4 8.5 0 3.6-4 3.5-4 3.3-.8-4-3.1-6.4-7.1-6.4-4.5 0-6.5 2.3-7.4 7.5l-1.5 8h9.8c1.6 0 2.6.8 2.6 2.3v.6c0 1.5-1 2.3-2.6 2.3H17.8l-2 11.1h19.4c2 0 3 .8 3 2.6v.4c0 1.8-1 2.6-3 2.6H6.9c-2 0-3-.8-3-2.6v-.5c0-1.7 1-2.5 3-2.5h2.7l2-11.1h-4c-1.6 0-2.5-.7-2.5-2.2zM95.9 116.4v-.7c0-2.1 1.1-3.2 3.2-3.2h.8c1.6-.2 3 .9 3.2 2.5v1.4c0 2.1-1.1 3.2-3.2 3.2h-.8c-1.6.2-3-.9-3.2-2.5v-.7zM107.2 83.6c0-1.7.9-2.5 2.7-2.5h22.2c3.2 0 3.8 1.3 3.8 2.9v.5c0 1.3-.9 2.8-1.8 4.4l-15.4 28.5c-.5 1.3-1.7 2.1-3.1 2.1-2 0-3.7-1.9-3.4-2.3l16.9-30.7h-19.3c-1.8 0-2.7-.8-2.7-2.5l.1-.4zM146.4 97.2c2.5-1.1 5.1-1.7 7.8-1.7 8.2 0 13.7 4.7 13.7 12 0 7.6-5.6 12.5-14.8 12.5-8.3 0-13.6-4.3-13.6-7.5 0-2.1 2.7-3.3 2.9-3 2.3 3.7 6.4 5.8 10.7 5.6 5.6 0 9.1-2.9 9.1-7.5s-3.2-7.4-8.6-7.4c-3.2-.2-6.3.8-8.9 2.6-2.5-.2-3.7-1.4-3.7-3.8V84.5c0-2.1 1.2-3.4 3.1-3.4h19.1c1.9 0 2.8.8 2.8 2.5v.3c0 1.6-.9 2.4-2.8 2.4h-16.9v10.9zM95.5 136.5c0-2.3 2.2-3.2 6.6-3.3h.3v-.2c.1-1.2-.8-2.2-1.9-2.3h-.5c-1.2 0-2.3.6-2.8 1.7 0 0-1.2 0-1.2-1s1.4-2.4 4.2-2.4 4.3 1.4 4.3 3.9v6c0 .1-.4.2-.7.2-.7 0-1.2-.4-1.2-1.6-.8 1.1-2.1 1.7-3.5 1.7-2.3.1-3.6-1-3.6-2.7zm6.9-1.3v-.8h-.6c-2.9.1-4.3.6-4.3 2 0 .9.7 1.4 1.9 1.4 1.5.1 2.9-1 3-2.5v-.1zM112.3 130.7c.7-1 1.8-1.6 3-1.6 1.4-.1 2.7.7 3.2 2.1.7-1.3 2-2.1 3.4-2.1 2.5 0 3.7 1.5 3.7 4v5.1c0 .7-.4 1-.9 1h-.2c-.6 0-.9-.2-.9-1v-4.9c0-1.7-.7-2.5-2.2-2.5-1.1 0-2 .7-2.5 1.6v5.8c0 .7-.4 1-.9 1h-.2c-.5 0-.9-.2-.9-1v-4.8c0-1.7-.7-2.6-2.2-2.6-1.1 0-2 .7-2.5 1.6v5.8c0 .7-.4 1-.9 1h-.2c-.5 0-.9-.2-.9-1v-8.8c.2-.2.5-.2.7-.2.7 0 1.3.2 1.4 1.5zM127.4 134.2c0-2.8 2.3-5.1 5.2-5.1 2.8 0 5.1 2.3 5.1 5.2 0 2.8-2.3 5.1-5.1 5.1-2.7.1-5-2-5.2-4.7v-.5zm8.4 0c.1-1.8-1.2-3.4-3-3.5s-3.4 1.2-3.5 3v.5c-.1 1.8 1.3 3.4 3.1 3.5h.1c1.8 0 3.3-1.5 3.3-3.3v-.2zM141.6 130.8c.7-1.1 2-1.8 3.3-1.7 2.6 0 3.8 1.8 3.8 4.2v5c0 .7-.4 1-.9 1h-.2c-.5 0-.9-.2-.9-1v-4.7c0-1.6-.8-2.7-2.3-2.7-1.2 0-2.3.7-2.8 1.7v5.7c0 .7-.4 1-.9 1h-.2c-.5 0-.9-.2-.9-1v-8.8c.2-.2.5-.2.7-.2.6-.1 1.3.2 1.3 1.5zM150 130.2v-.2c0-.5.2-.8.9-.8h.7v-1.5c0-.7.4-1 .9-1h.2c.5 0 .9.2.9 1v1.5h2.2c.6 0 .9.2.9.7v.1c0 .5-.2.8-.9.8h-2.2v5c0 1.2.4 1.8 1.3 1.8.5 0 1.1-.2 1.4-.7.1-.1.6.2.6.9s-.8 1.5-2.3 1.5c-2 0-2.9-1.1-2.9-3.2v-5.2h-.7c-.7 0-1-.2-1-.7zM160.5 130.8c.7-1.1 1.9-1.8 3.2-1.8 2.6 0 3.8 1.8 3.8 4.2v4.9c0 .7-.4 1-.9 1h-.2c-.5 0-.9-.2-.9-1v-4.7c0-1.7-.9-2.7-2.3-2.7-1.5-.1-2.7 1-2.8 2.5v4.9c0 .7-.4 1-.9 1h-.2c-.5 0-.9-.2-.9-1v-12.9c.2-.2.5-.2.7-.2.6 0 1.3.3 1.3 1.7l.1 4.1z"/><path class="st0" d="M1.2 87.4v-.1c0-.3.2-.6.6-.6H3l.4-2.1c.3-1.9 1.4-3 3.2-3s2.8 1.1 2.8 2.1c0 .5-.4.8-.8.8h-.2c-.1-.9-.9-1.6-1.8-1.6-1.1 0-1.6.6-1.8 1.9l-.4 2H7c.4 0 .6.2.6.6v.1c0 .3-.2.5-.6.5H4.3l-.5 2.7h4.8c.5 0 .7.2.7.6v.1c0 .4-.2.6-.7.6h-7c-.5 0-.7-.2-.7-.6v-.1c0-.4.2-.6.7-.6h.7l.5-2.7h-1c-.4-.1-.6-.3-.6-.6zM12.8 91.4V84c-.3.3-.7.4-1.1.4-.6.1-1.2-.4-1.3-1v-.1c0-.3.2-.7.5-.8.3.2.6.4.9.4.7 0 1.2-.5 1.3-1.2h.6c.5 0 .7.3.7.8v9c0 .5-.2.8-.7.8h-.2c-.5-.2-.7-.4-.7-.9zM16.3 82.4c0-.4.3-.7.7-.7h6.1c.9 0 1 .4 1 .8v.1c-.1.4-.2.8-.5 1.2l-4.2 7.8c-.1.3-.5.6-.9.6-.5 0-1-.5-.9-.6l4.6-8.3H17c-.5 0-.7-.2-.7-.7v-.2zM24 91.3v-.2c-.1-.4.2-.8.7-.9h.4c.4-.1.8.3.9.7v.4c.1.4-.2.8-.7.9h-.4c-.4.1-.8-.3-.9-.7v-.2zM29.1 86c.7-.3 1.4-.5 2.1-.5 2.2 0 3.7 1.3 3.7 3.3s-1.5 3.4-4 3.4c-2.3 0-3.7-1.2-3.7-2.1 0-.6.7-.9.8-.8.6 1 1.7 1.6 2.9 1.5 1.5 0 2.5-.8 2.5-2.1s-.9-2-2.3-2c-.9 0-1.7.2-2.4.7-.7 0-1-.4-1-1v-3.9c-.1-.5.3-.9.7-.9h5.3c.5 0 .8.2.8.7v.1c0 .4-.3.7-.8.7h-4.6V86zM36.2 87.4v-1.1c0-3 1.7-4.9 4.3-4.9s4.3 1.9 4.3 4.8v1c0 3-1.7 4.9-4.3 4.9s-4.3-1.7-4.3-4.7zm7 0v-1.1c0-2.2-1-3.5-2.7-3.5s-2.6 1.2-2.6 3.4v1.2c0 2.2 1 3.4 2.6 3.4s2.7-1.2 2.7-3.4z"/><path class="st2" d="M.4 92.6l43.5-11.8"/></svg>