<svg xmlns="http://www.w3.org/2000/svg" viewBox="0 0 129.3 77.21"><defs><style>.cls-1{fill:#fff;}</style></defs><title>Artboard 2</title><path class="cls-1" d="M20.7 3.58v-.15c0-.83.51-1.28 1.43-1.28h13.65c.92 0 1.4.45 1.4 1.28v.15a1.22 1.22 0 0 1-1.4 1.31h-5.27v15.27a1.24 1.24 0 0 1-1.37 1.4h-.42c-.87 0-1.31-.48-1.31-1.4V4.89h-5.28c-.93 0-1.43-.47-1.43-1.31zM36.05 14.25a7.22 7.22 0 0 1 7.55-7.51 7.24 7.24 0 0 1 7.48 7.57 7.22 7.22 0 0 1-7.51 7.51 7.22 7.22 0 0 1-7.52-7.57zm12.28.06c0-3-2-5.16-4.77-5.16a4.82 4.82 0 0 0-4.8 5.1 4.87 4.87 0 0 0 4.8 5.16 4.81 4.81 0 0 0 4.78-5.1zM52.52 8.41V8.2c0-.72.36-1.1 1.28-1.1h1V4.89c0-1 .51-1.4 1.31-1.4h.3c.78 0 1.28.3 1.28 1.4V7.1H61c.92 0 1.25.36 1.25 1.07v.21c0 .75-.36 1.13-1.28 1.13H57.7v7.25c0 1.79.51 2.65 1.91 2.65a2.43 2.43 0 0 0 2-1c.09-.09.83.33.83 1.25 0 1.1-1.22 2.18-3.34 2.18-3 0-4.29-1.64-4.29-4.74V9.51h-1c-.94 0-1.29-.38-1.29-1.1zM63.79 17.68c0-3.31 3.16-4.74 9.63-4.86h.39v-.3c0-2.18-1.25-3.37-3.55-3.37a4.33 4.33 0 0 0-4.11 2.44s-1.82 0-1.82-1.43 2.09-3.43 6.14-3.43 6.26 2.09 6.26 5.72v8.8c0 .15-.54.33-1.07.33-1 0-1.79-.57-1.82-2.3a6.2 6.2 0 0 1-5.16 2.48c-3.07.01-4.89-1.63-4.89-4.08zm10-1.91v-1.1h-.8c-4.17.15-6.32.92-6.32 2.86 0 1.28 1 2.09 2.71 2.09 2.62.03 4.43-1.62 4.43-3.84zM80.34 20.16V1.28A1.53 1.53 0 0 1 81.41 1c.92 0 1.88.48 1.88 2.53v16.63c0 1.07-.54 1.4-1.31 1.4h-.3c-.78 0-1.34-.33-1.34-1.4zM87.2 20.16V1.28A1.53 1.53 0 0 1 88.27 1c.92 0 1.88.48 1.88 2.53v16.63c0 1.07-.54 1.4-1.31 1.4h-.3c-.78 0-1.34-.33-1.34-1.4zM96.5 26.45l2.39-5.81a1.24 1.24 0 0 1-1.25-.83l-5.13-12c-.06-.18.6-.86 1.55-.86s1.4.39 1.88 1.67l3.88 9.9 3.43-9.84c.42-1.31 1.07-1.73 1.85-1.73s1.61.66 1.55.8l-6.78 17.86c-.48 1.28-1.13 1.64-1.82 1.64s-1.61-.65-1.55-.8zM1.85 39.37V29.21a1.22 1.22 0 0 1 1.31-1.4h.42c.89 0 1.34.48 1.34 1.4v10.07c0 3.67 1.61 5.58 4.8 5.58s4.8-1.85 4.8-5.61v-10c0-1 .45-1.4 1.31-1.4h.48c.86 0 1.28.45 1.28 1.4v10.06c0 5.37-2.77 8.26-7.9 8.26s-7.84-2.83-7.84-8.2zM24.15 35.05a5.56 5.56 0 0 1 4.77-2.53c3.79 0 5.55 2.59 5.55 6.14v7.27c0 1.07-.57 1.4-1.31 1.4h-.33c-.78 0-1.31-.33-1.31-1.4V39c0-2.42-1.22-3.91-3.31-3.91a4.33 4.33 0 0 0-4 2.5v8.32c0 1.07-.57 1.4-1.31 1.4h-.33c-.78 0-1.31-.33-1.31-1.4V33.05a1.47 1.47 0 0 1 1.07-.33c.84.01 1.74.45 1.82 2.33zM38.08 45.93V27.06a1.53 1.53 0 0 1 1.07-.33c.92 0 1.88.48 1.88 2.53v16.67c0 1.07-.54 1.4-1.31 1.4h-.3c-.77.01-1.34-.33-1.34-1.4zM44.67 28.16a1.57 1.57 0 0 1 1.79-1.67 1.54 1.54 0 0 1 1.73 1.67c0 1.07-.63 1.64-1.76 1.64a1.56 1.56 0 0 1-1.76-1.64zm.27 17.77V34.16c0-1.07.57-1.43 1.34-1.43h.3c.78 0 1.31.33 1.31 1.43v11.77c0 1.07-.54 1.4-1.31 1.4h-.3c-.77.01-1.34-.33-1.34-1.4zM54.6 34.93a5.33 5.33 0 0 1 4.4-2.41 4.65 4.65 0 0 1 4.68 3 5.64 5.64 0 0 1 5-3c3.64 0 5.4 2.21 5.4 5.9v7.51c0 1.07-.54 1.4-1.31 1.4h-.3c-.8 0-1.34-.33-1.34-1.4v-7.15c0-2.42-1-3.67-3.16-3.67a4.19 4.19 0 0 0-3.64 2.39v8.44c0 1.07-.54 1.4-1.31 1.4h-.3c-.78 0-1.34-.33-1.34-1.4v-7c0-2.53-1-3.79-3.16-3.79a4.15 4.15 0 0 0-3.61 2.39v8.44c0 1.07-.57 1.4-1.31 1.4H53c-.78 0-1.31-.33-1.31-1.4V33.05a1.47 1.47 0 0 1 1.07-.33c.83.01 1.72.42 1.84 2.21zM77.44 28.16a1.57 1.57 0 0 1 1.79-1.67A1.54 1.54 0 0 1 81 28.16c0 1.07-.63 1.64-1.76 1.64a1.56 1.56 0 0 1-1.8-1.64zm.27 17.77V34.16c0-1.07.57-1.43 1.34-1.43h.3c.78 0 1.31.33 1.31 1.43v11.77c0 1.07-.54 1.4-1.31 1.4h-.3c-.77.01-1.34-.33-1.34-1.4zM83.2 34.19V34c0-.72.36-1.1 1.28-1.1h1v-2.23c0-1 .51-1.4 1.31-1.4h.3c.78 0 1.28.3 1.28 1.4v2.21h3.25c.92 0 1.25.36 1.25 1.07v.21c0 .75-.36 1.13-1.28 1.13h-3.2v7.25c0 1.79.51 2.65 1.91 2.65a2.43 2.43 0 0 0 2-1c.09-.09.83.33.83 1.25 0 1.1-1.22 2.18-3.34 2.18-3 0-4.29-1.64-4.29-4.74v-7.59h-1c-.94 0-1.3-.39-1.3-1.1zM94.44 40.12a7.27 7.27 0 0 1 7.33-7.6c4.14 0 6.89 2.92 6.89 7.22V40c0 .63-.21.86-.89.86H97.19a5.11 5.11 0 0 0 9.39 2.06c.06-.06 1.55.21 1.55 1.46s-2.21 3.22-6.13 3.22c-4.52 0-7.56-3.01-7.56-7.48zm2.77-1.28h8.59c-.15-2.47-1.67-4.08-4.05-4.08a4.57 4.57 0 0 0-4.54 4.08zM110.54 40.06c0-4.53 2.83-7.54 6.8-7.54a5.79 5.79 0 0 1 4.92 2.36v-7.82a1.53 1.53 0 0 1 1.07-.33c.92 0 1.88.48 1.88 2.53v16.67c0 1.07-.54 1.4-1.31 1.4h-.3c-.78 0-1.31-.33-1.31-1.4v-1.1a5.73 5.73 0 0 1-5 2.77c-3.88 0-6.75-3.01-6.75-7.54zm11.75.89v-3a4.48 4.48 0 0 0-4.41-3c-2.68 0-4.47 2-4.47 5.1s1.85 5.1 4.41 5.1a4.32 4.32 0 0 0 4.47-4.15zM26.88 72.76V56.69A1.59 1.59 0 0 1 28.52 55h10.41c1 0 1.43.45 1.43 1.25v.18c0 .83-.48 1.28-1.43 1.28h-9v6.14h6.67c1 0 1.43.45 1.43 1.22v.12q0 1.25-1.43 1.25H30V73c0 .92-.45 1.4-1.34 1.4h-.48c-.85-.03-1.3-.6-1.3-1.64zM43.34 73V56.24c0-.92.45-1.4 1.31-1.4h.42c.89 0 1.34.48 1.34 1.4V73c0 .92-.45 1.4-1.34 1.4h-.42c-.86-.03-1.31-.51-1.31-1.4zM50.8 72.52V56.69A1.59 1.59 0 0 1 52.44 55h6.35c4.2 0 6.5 1.76 6.5 5 0 2.09-1.19 3.49-3.4 4.14 2.86.66 4.17 2.47 4.17 4.74 0 3.61-2.3 5.4-7.33 5.4h-6.29a1.59 1.59 0 0 1-1.64-1.76zm7.6-9.15c2.27 0 3.7-1.19 3.7-3s-1.25-2.89-3.76-2.89h-4.5v5.93zm.12 8.41c3.1 0 4.38-.92 4.38-3.16q0-3-4.29-3h-4.77v6.2zM79.66 73.18l-5.28-6.47h-2.11V73a1.25 1.25 0 0 1-1.34 1.4h-.42c-.83 0-1.28-.57-1.28-1.58V56.69A1.59 1.59 0 0 1 70.87 55h5.49c4.71 0 7.21 2 7.21 5.78 0 3.28-2 5.37-5.75 5.67l5.63 6.71c.15.18-.51 1.25-1.79 1.25a2.34 2.34 0 0 1-2-1.23zm-7.42-8.89h4.06c2.83 0 4.17-1.31 4.17-3.4S79 57.5 76.21 57.5h-4zM86.79 72.55V56.69A1.59 1.59 0 0 1 88.43 55h11.18c1 0 1.43.48 1.43 1.28v.18c0 .83-.48 1.28-1.43 1.28h-9.75v5.4h7.54c1 0 1.43.42 1.43 1.22v.09c0 .83-.48 1.28-1.43 1.28h-7.54v5.84h9.93c1 0 1.4.42 1.4 1.22v.15c0 .86-.45 1.34-1.4 1.34H88.43a1.57 1.57 0 0 1-1.64-1.73z"/></svg>