<svg xmlns="http://www.w3.org/2000/svg" viewBox="0 0 111.81 87"><defs><style>.cls-1{fill:#fff;}</style></defs><title>Artboard 1</title><path class="cls-1" d="M12 17.23A18.81 18.81 0 0 1 18.61 16C26.7 16 32 20.38 32 27.51c0 7.36-5.62 12-14.77 12-8.54 0-13.53-3.76-13.53-7.08 0-2.47 3.14-4.21 3.37-3.93a12.12 12.12 0 0 0 10.05 4.89c4.66 0 7.52-2.3 7.52-5.9s-2.58-5.84-7.24-5.84a11.86 11.86 0 0 0-7.52 2.25C6.71 23.8 5 22.4 5 19.09v-12c0-2.92 1.29-4.6 4-4.6h17.64c2.58 0 3.88 1.07 3.88 3.26V6c0 2.19-1.24 3.2-3.87 3.2H12zM35.63 22.46v-3.6c0-10.5 6.06-17.13 15.95-17.13s15.88 6.58 15.88 17.08v3.59c0 10.5-6 17.13-15.95 17.13S35.63 33 35.63 22.46zm23.52.54v-4.7c0-6.4-2.75-9.94-7.64-9.94S44 11.79 44 18.24v4.66c0 6.4 2.7 9.88 7.58 9.88s7.57-3.47 7.57-9.78zM70.61 11.06v-.45c0-5.11 3.82-8.7 9.27-8.7S89 5.44 89 10.55V11c0 5.11-3.82 8.7-9.21 8.7s-9.18-3.53-9.18-8.64zm3 25.61c0-1 .39-1.68 1.52-2.86l28.24-32c.34-.34 3.54.67 3.54 2.7a4.56 4.56 0 0 1-1.46 2.92l-28.3 32c-.31.32-3.57-.8-3.57-2.77zm10-25.44v-.84c0-2.58-1.63-4.16-3.76-4.16s-3.71 1.52-3.71 4.16v.84c0 2.53 1.57 4.16 3.76 4.16s3.68-1.58 3.68-4.16zm8 19.43v-.45c0-5.11 3.82-8.7 9.26-8.7S110 25 110 30.15v.45c0 5.11-3.82 8.7-9.21 8.7s-9.18-3.54-9.18-8.65zm13 .17V30c0-2.58-1.63-4.21-3.76-4.21s-3.74 1.55-3.74 4.21v.84c0 2.53 1.57 4.1 3.76 4.1s3.71-1.53 3.71-4.12zM20.75 71c0-8.42 6-14.32 14.71-14.32s14.6 5.9 14.6 14.43-6 14.32-14.71 14.32S20.75 79.6 20.75 71zm22.25.07c0-4.77-3.2-8.25-7.64-8.25s-7.65 3.42-7.65 8.18 3.26 8.2 7.69 8.2 7.6-3.47 7.6-8.13zM51.63 60.51v-.45c0-1.85 1-2.81 3.31-2.81h2.25v-1.46c0-7.64 3.76-10.5 9.49-10.5 4.83 0 7 2.08 7 4.32 0 1.91-1.57 3.37-1.68 3.2a5.77 5.77 0 0 0-3.76-1.46c-2.3 0-3.37 1.29-3.37 4.44v1.46h3.54c2.3 0 3.31 1 3.31 2.92v.51c0 1.8-1 2.75-3.31 2.75H65.1v17.69c0 2.92-1.4 3.76-3.54 3.76h-.84c-2 0-3.54-.9-3.54-3.76V63.43h-2.24c-2.3 0-3.31-1.01-3.31-2.92zM73.3 60.51v-.45c0-1.85 1-2.81 3.31-2.81h2.25v-1.46c0-7.64 3.76-10.5 9.49-10.5 4.83 0 7 2.08 7 4.32 0 1.91-1.57 3.37-1.68 3.2a5.77 5.77 0 0 0-3.76-1.46c-2.3 0-3.37 1.29-3.37 4.44v1.46H90c2.3 0 3.31 1 3.31 2.92v.51c0 1.8-1 2.75-3.31 2.75h-3.22v17.69c0 2.92-1.4 3.76-3.54 3.76h-.84c-2 0-3.54-.9-3.54-3.76V63.43h-2.25c-2.3 0-3.31-1.01-3.31-2.92z"/></svg>