<svg xmlns="http://www.w3.org/2000/svg" viewBox="0 0 81.8 83.3" enable-background="new 0 0 81.8 83.3"><style type="text/css">.st0{fill:#FFFFFF;}</style><path class="st0" d="M0 19.8c0-1.2 1.6-2.1 1.7-2 1.3 2 3.9 3.6 7.1 3.6 3.3 0 5.1-1.3 5.1-3.7 0-2.7-2.8-3.3-5.9-4C4.4 12.9.6 11.6.6 6.8.6 2.8 4.1 0 9.1 0c5.2 0 8.1 2.5 8.1 4.2 0 1.3-1.7 2.2-1.7 2.1-1.2-1.8-3.6-3.2-6.3-3.2-2.9 0-4.9 1.4-4.9 3.6 0 2.6 2.3 3 5.6 3.7 4 .9 7.9 2.5 7.9 7 0 4.3-3.3 7-8.8 7-5.8.1-9-2.7-9-4.6zM35.3 17.1h-9.4l-2.1 5.4c-.5 1.3-1.3 1.7-2.1 1.7-1.1 0-2.1-.8-2-1.1L28 1.5c.3-.8.9-1.2 2.6-1.2 1.7 0 2.3.4 2.6 1.2l8.4 21.6c.1.3-.9 1.1-2.1 1.1-.8 0-1.7-.4-2.2-1.7l-2-5.4zm-8.5-3h7.6l-3.8-10-3.8 10zM44.1 2l6.4 18 6.4-18C57.3.7 58.2.3 59 .3c1.2 0 2.3.9 2.2 1.2l-8.4 21.3c-.4 1-.9 1.4-2.3 1.4-1.3 0-1.9-.4-2.3-1.4L39.7 1.5c-.1-.3 1-1.2 2.2-1.2 1 0 1.8.5 2.2 1.7zM64.2 21.9V2.6c0-1.3.8-2.1 2-2.1h13.6c1.2 0 1.7.6 1.7 1.6v.2c0 1-.6 1.6-1.7 1.6H68v6.6h9.2c1.2 0 1.7.5 1.7 1.5s-.6 1.6-1.7 1.6H68v7.1h12.1c1.2 0 1.7.5 1.7 1.5v.2c0 1.1-.5 1.6-1.7 1.6H66.2c-1.2 0-2-.8-2-2.1zM7.4 57.3V57c0-.8.6-1.3 1.5-1.3h2.8l.9-4.8c.8-4.4 3.2-6.9 7.4-6.9 4.3 0 6.4 2.6 6.4 4.8 0 2-2.2 2-2.3 1.9-.5-2.2-1.7-3.6-4-3.6-2.5 0-3.6 1.3-4.1 4.2l-.8 4.5h5.5c.9 0 1.5.5 1.5 1.3v.3c0 .8-.5 1.3-1.5 1.3h-6l-1.1 6.2h10.8c1.1 0 1.7.5 1.7 1.5v.2c0 1-.5 1.5-1.7 1.5H8.5c-1.1 0-1.7-.4-1.7-1.5v-.3c0-.9.5-1.4 1.7-1.4H10l1.1-6.2H8.9c-.9-.2-1.5-.6-1.5-1.4zM33.7 66.4V49.5c-.6.6-1.5 1-2.4 1-1.7 0-2.9-1-2.9-2.5 0-1.2.9-1.9 1.1-1.9.5.5 1.2.8 2.1.8 1.6 0 2.8-1.2 2.9-2.8h1.3c1.1 0 1.6.6 1.6 1.7v20.5c0 1.1-.5 1.7-1.6 1.7h-.5c-1 .1-1.6-.5-1.6-1.6zM54.1 66.4v-4.8h-9.6c-1.4 0-2.3-.7-2.3-1.7V59c0-.8.4-1.4 1.1-2.3l8.4-10.9c.9-1.3 1.4-1.7 3.2-1.7 2 0 2.8.7 2.8 2.4v11.9h2.6c1.1 0 1.6.5 1.6 1.5v.2c0 1-.5 1.4-1.6 1.4h-2.6v4.8c0 1.1-.5 1.7-1.6 1.7h-.4c-1 .1-1.6-.7-1.6-1.6zm-8.5-7.8h8.7V47.2l-8.7 11.4zM68.5 66.4V49.5c-.6.6-1.5 1-2.4 1-1.7 0-2.9-1-2.9-2.5 0-1.2.9-1.9 1.1-1.9.5.5 1.2.8 2.1.8 1.6 0 2.8-1.2 2.9-2.8h1.3c1.1 0 1.6.6 1.6 1.7v20.5c0 1.1-.5 1.7-1.6 1.7h-.5c-1.1.1-1.6-.5-1.6-1.6zM25 75.7c.3-.8.6-1 1-1 .5 0 .9.4.9.5l-3 7.4c-.2.4-.5.5-1 .5-.6 0-.9-.1-1-.5l-3-7.4c0-.1.3-.5.9-.5.5 0 .8.2 1.1 1l2.1 5.8 2-5.8zM27.1 81.5c0-.5.6-.8.7-.8.5.7 1.5 1.2 2.8 1.2 1.2 0 1.8-.4 1.8-1.1 0-.8-.8-1-2.1-1.3-1.2-.3-2.9-.6-2.9-2.4 0-1.5 1.3-2.6 3.3-2.6 2.1 0 3.2.9 3.2 1.7 0 .5-.7.8-.7.8-.5-.7-1.4-1.2-2.4-1.2-1.2 0-1.8.4-1.8 1.1 0 .8.7.9 2.1 1.2 1.3.3 3 .7 3 2.4 0 1.6-1.3 2.6-3.4 2.6-2.4.2-3.6-.8-3.6-1.6zM37.9 82.1V73c0-.6.4-1 .9-1h3.7c2.4 0 3.7 1 3.7 2.9 0 1.2-.7 2-2 2.4 1.6.4 2.4 1.4 2.4 2.7 0 2.1-1.3 3.1-4.2 3.1h-3.6c-.5 0-.9-.4-.9-1zm4.4-5.3c1.3 0 2.1-.7 2.1-1.7 0-1.1-.7-1.7-2.2-1.7h-2.6v3.4h2.7zm0 4.8c1.8 0 2.5-.5 2.5-1.8 0-1.2-.8-1.7-2.5-1.7h-2.7v3.6h2.7zM47.2 72.8c0-.6.3-.8.8-.8h7.9c.5 0 .8.3.8.7v.1c0 .5-.3.8-.8.8h-3v8.8c0 .5-.3.8-.8.8h-.2c-.5 0-.8-.3-.8-.8v-8.8h-3c-.6-.1-.9-.3-.9-.8zM58.1 77.4c-.2-.1-.3-.3-.1-.7l.9-1.5-1.5-.7c-.4-.1-.4-.3-.4-.6v-.1c.1-.3.2-.4.7-.3l1.7.4.1-1.7c.1-.4.2-.5.5-.5h.1c.3 0 .4.1.5.5l.1 1.7 1.7-.4c.4-.1.6.1.7.3v.1c.1.3.1.5-.3.6l-1.6.7.9 1.5c.2.4.1.6-.1.7h-.1c-.2.2-.4.2-.7-.1L60 76l-1.1 1.3c-.3.3-.5.3-.8.1zM19.8 35.4v-5.8c0-.5.3-.8.8-.8h.2c.5 0 .8.3.8.8v5.8c0 2.1.9 3.2 2.8 3.2s2.8-1.1 2.8-3.2v-5.8c0-.5.3-.8.8-.8h.3c.5 0 .7.3.7.8v5.8c0 3.1-1.6 4.8-4.5 4.8-3.2-.1-4.7-1.8-4.7-4.8zM30.6 39.1v-9.4c0-.6.4-1 .9-1h2.9c2.7 0 4.3 1.3 4.3 3.5 0 2.3-1.5 3.6-4.4 3.6h-2v3.3c0 .5-.3.8-.8.8h-.3c-.3 0-.6-.2-.6-.8zm1.8-4.7h2c1.7 0 2.6-.7 2.6-2.1 0-1.4-.9-2.1-2.6-2.1h-2v4.2zM41.6 29.6c0-.6.3-.8.8-.8h7.9c.5 0 .8.3.8.7v.1c0 .5-.3.8-.8.8h-3v8.8c0 .5-.3.8-.8.8h-.2c-.5 0-.8-.3-.8-.8v-8.8h-3c-.6-.1-.9-.3-.9-.8zM51.3 34.3c0-3.4 2.3-5.8 5.6-5.8s5.6 2.4 5.6 5.8-2.3 5.8-5.6 5.8-5.6-2.4-5.6-5.8zm9.4 0c0-2.5-1.6-4.2-3.8-4.2S53 31.8 53 34.3s1.6 4.2 3.8 4.2c2.3 0 3.9-1.7 3.9-4.2z"/></svg>