<svg xmlns="http://www.w3.org/2000/svg" viewBox="0 0 136.74 141.86"><defs><style>.cls-1{fill:#fff;}</style></defs><title>Artboard 4</title><path class="cls-1" d="M39.14 50.83l-1.85-4.34L26.59 51c-2.33 1-4.23.37-4.92-1.24l-.48-1.12a6.9 6.9 0 0 1-.08-4l3.61-16.13c.44-2.57 1.14-3.4 4.41-4.79s5.22-.9 6.58 2.28l5.5 12.9 2.24-1c2-.86 3.13-.48 3.83 1.17l.09.22c.72 1.7.22 2.76-1.79 3.62l-2.24 1 1.85 4.34c.86 2 .44 3.41-1.48 4.23l-.58.25c-1.75.75-3.19-.02-3.99-1.9zm-12.52-5.56l8.87-3.77L30.15 29zM52.21 45.38l-.27-.63q-1.26-3 1.7-4.21l.81-.34c2.06-.88 3.46-.31 4.3 1.66l.27.63c.84 2 .27 3.37-1.79 4.25l-.8.34a2.86 2.86 0 0 1-4.22-1.7zM62.71 23.72a16.31 16.31 0 0 1 4.86-3.23c6.45-2.74 12.19-1.06 14.61 4.63 2.5 5.87-.4 11.49-7.7 14.59-6.81 2.9-12.07 1.59-13.19-1-.84-2 1.08-4.43 1.35-4.28a10.51 10.51 0 0 0 9.67.48c3.72-1.58 5.22-4.39 4-7.25s-4-3.78-7.76-2.2a10.28 10.28 0 0 0-5.24 4.35c-2.59 1-4.41.45-5.53-2.19L53.71 18c-1-2.33-.53-4.11 1.62-5l14.06-6c2.06-.88 3.45-.46 4.2 1.28l.09.22c.74 1.75.1 3-2 3.87L60 17.32zM108.69 22.29c.36.22-.49 2.7-2.73 3.65a4.09 4.09 0 0 1-4.37-.83l-6.19-4.24-1.2 7.38A4.25 4.25 0 0 1 91.67 32c-2.1.9-4.54-.24-4.43-.6L90 19.56l-10.45-6.34c-.31-.24.54-2.71 2.6-3.59a4.12 4.12 0 0 1 4.51.78l6.19 4.24 1.24-7.4a4.2 4.2 0 0 1 2.48-3.75c2.15-.91 4.57.17 4.48.58l-2.78 12zM35.22 69.72l-.1-.23c-.4-.95-.1-1.66 1.08-2.16l1.15-.49-.35-.74c-1.66-3.91-.36-6.19 2.57-7.44 2.47-1.05 4-.45 4.5.7a2.1 2.1 0 0 1-.17 2 3.2 3.2 0 0 0-2.24.07c-1.18.5-1.44 1.39-.76 3l.32.75 1.81-.77c1.18-.5 1.92-.2 2.33.77l.11.26c.39.92.08 1.63-1.1 2.13l-1.67.71 3.85 9c.63 1.49.1 2.23-1 2.7l-.43.18a1.79 1.79 0 0 1-2.63-1.15L38.7 70l-1.15.49c-1.18.51-1.92.21-2.33-.77zM49.23 73.94c-1.37-3.22.88-5.91 7-8.61l.46-.2c-.77-1.81-2.19-2.36-4.06-1.56a3.9 3.9 0 0 0-2.56 3.63c0 .06-2.55 1.26-3.35-.61s.59-4.36 4.87-6.18 7.46-.8 9.06 3l3.53 8.3c.09.2-.55.78-1.33 1.11a2.45 2.45 0 0 1-3.33-1.2A6.25 6.25 0 0 1 55.66 76c-2.93 1.23-5.42.32-6.43-2.06zM58 68.15l-.34-.8-.74.35c-3.19 1.44-4.58 2.78-3.92 4.3.44 1 1.55 1.34 2.9.77a3.44 3.44 0 0 0 2.1-4.62zM64.4 68.67a2.09 2.09 0 0 1 .53-2.19 6.82 6.82 0 0 0 5.42-.1c1.58-.67 2.28-1.51 1.9-2.4-.45-1.06-1.65-.76-3.71-.35s-5.39 1-6.75-2.15c-1.16-2.73.37-5.52 3.93-7 3.79-1.61 6.27-1 7 .57a2.21 2.21 0 0 1-.59 2.29 6 6 0 0 0-4.9-.12c-1.52.65-2.18 1.5-1.8 2.39s1.61.67 3.66.31 5.64-1.11 7 2.08c1.2 2.82-.4 5.53-4.25 7.17-4.17 1.71-6.76 1.11-7.44-.5zM73.15 53.68l-.15-.25c-.42-1-.09-1.73 1.06-2.21l.69-.29-.75-1.79a1.85 1.85 0 0 1 1-2.74l.34-.15c1.09-.46 2-.31 2.64 1.18l.76 1.78 2.44-1c1.15-.49 1.85-.21 2.25.74l.1.23c.42 1 .12 1.71-1 2.2L80 52.41l2.54 6c.59 1.38 1.34 1.87 2.43 1.41a2.39 2.39 0 0 0 1.41-1.72 1.72 1.72 0 0 1 1.65 1.16c.6 1.41-.32 3.16-2.62 4.13-3.1 1.32-5.24.29-6.58-2.87l-2.74-6.43-.69.29c-1.11.48-1.86.22-2.25-.7zM86.35 54.41a7.77 7.77 0 0 1 4.16-10.56 7.27 7.27 0 0 1 10 4l.12.29c.28.73.25 1.22-.5 1.53l-9.68 4.12a4.13 4.13 0 0 0 5.5 1.6A4.61 4.61 0 0 0 99 51.68c0-.07 2-.63 2.72 1s-.79 4.13-4.69 5.8c-4.57 1.91-8.79.35-10.68-4.07zm3.06-2.93l6.89-2.93a3.4 3.4 0 0 0-4.66-1.85 4 4 0 0 0-2.23 4.78zM104.1 41.09a3.77 3.77 0 0 1 2.33-4c1.64-.7 3-.19 3.62 1.24a2.28 2.28 0 0 1-.39 2.68 2.89 2.89 0 0 0-2.13.09c-2 .84-2.11 2.93-.91 5.75L108.4 51c.62 1.46.07 2.24-1 2.68l-.43.18c-1.09.46-2 .35-2.66-1.14l-5.03-11.86c0-.12.52-.77 1.33-1.11 1.06-.44 2.39-.45 3.49 1.34zM16.66 64.08l-5.24 2.23a.42.42 0 0 1-.62-.23l-.06-.08a.43.43 0 0 1 .26-.62l5.17-2.2c2-.85 2.65-2.18 1.9-3.95s-2.14-2.23-4.18-1.41L8.74 60c-.3.13-.49.08-.62-.21L8 59.63c-.12-.27 0-.45.28-.58l5.2-2.21c2.51-1.07 4.43-.36 5.43 2s.25 4.16-2.25 5.24zM19 52.68l-9.23 3.91s-.16-.1-.24-.27-.1-.67.65-1l.3-.13a3.23 3.23 0 0 1-2.41-2 3.57 3.57 0 0 1 2.2-4.75 3.6 3.6 0 0 1 5 1.75 3.1 3.1 0 0 1-.25 3l3.52-1.5c.34-.15.52 0 .62.23v.1c.16.3.13.51-.16.66zm-8.3-3.29A2.73 2.73 0 0 0 8.94 53a2.77 2.77 0 0 0 2.67 1.77l1.61-.77a2.59 2.59 0 0 0 1.28-3.41c-.62-1.42-2.15-1.9-3.8-1.2zM6.25 47.16h-.09c-.24.1-.42.06-.56-.29l-.27-.63-1.19.51c-.34.15-.52 0-.62-.23v-.1c-.1-.24-.07-.44.27-.59l1.19-.51-.78-1.83c-.15-.34-.06-.5.18-.6h.09c.24-.1.42-.06.56.29L5.78 45l3.89-1.66c1-.43 1.37-.89 1-1.65a1.42 1.42 0 0 0-1-.85s0-.36.32-.51 1.06.14 1.45 1c.57 1.33.05 2.23-1.37 2.84l-4 1.7.27.63c.24.4.16.56-.09.66zM7.18 41.18a3.74 3.74 0 0 1-5.08-2 3.75 3.75 0 0 1 2.11-5.05 3.83 3.83 0 1 1 3 7.07zm-2.56-6.12a2.81 2.81 0 1 0 2.17 5.17 2.86 2.86 0 0 0 1.69-3.77 2.82 2.82 0 0 0-3.86-1.4zM35.65 118.86v-.1c-.12-.29-.07-.5.34-.67l.75-.32-.61-1.43c-.18-.41 0-.62.27-.75l.12-.05c.29-.12.53-.08.71.33l.61 1.43 2.18-.93c.41-.17.6-.07.72.22v.1c.12.29.07.5-.34.67l-2.18.93 2 4.65c.51 1.2 1.06 1.64 2 1.25a1.7 1.7 0 0 0 1-1.14s.43 0 .61.39-.17 1.27-1.25 1.73c-1.6.68-2.67.06-3.39-1.64l-2-4.77-.75.32c-.44.18-.66.07-.79-.22zM43.38 116.47a3.45 3.45 0 0 1 2.12-2.69c2.16-.92 3.86.06 4.78 2.22l1.83 4.31c.18.41 0 .62-.27.74l-.12.05c-.29.13-.55.09-.72-.32l-1.8-4.24c-.7-1.65-1.94-2.28-3.32-1.69a2.81 2.81 0 0 0-1.5 3.95l1.73 4.07c.17.41 0 .62-.27.74l-.12.05c-.29.12-.55.09-.72-.32l-4.73-11.11s.12-.19.33-.28c.38-.16.82-.12 1.2.77zM52.7 118.14c-.81-1.91.76-3.51 4.5-5.2l.17-.07-.12-.29a2.2 2.2 0 0 0-3.23-1.2 3 3 0 0 0-2 2.62.71.71 0 0 1-.91-.38c-.25-.58.36-2.39 2.53-3.31a3.25 3.25 0 0 1 4.67 1.77l2.19 5.15s-.12.19-.33.28c-.38.16-.79.11-1.16-.78l-.13-.31a3.93 3.93 0 0 1-2.41 2.81c-1.77.77-3.18.28-3.77-1.09zm5.37-3.64l-.32-.75-.47.22c-2.76 1.29-4 2.41-3.44 3.69.35.82 1.25 1.07 2.36.6 1.68-.73 2.49-2.26 1.87-3.77zM60.52 109.15a3.49 3.49 0 0 1 2.15-2.68c2.16-.92 3.86.06 4.78 2.22l1.83 4.31c.17.41 0 .62-.27.74l-.12.05c-.29.13-.55.09-.72-.32l-1.8-4.24c-.69-1.63-1.92-2.28-3.32-1.69a3.14 3.14 0 0 0-2 2.88l2.19 5.13c.17.41 0 .62-.27.74l-.12.05c-.29.13-.55.09-.72-.32l-3.26-7.66s.12-.19.33-.28c.38-.16.8-.12 1.18.77zM72.53 110.45a.73.73 0 0 1 .34-.86 3.56 3.56 0 0 0 3.36.13c1.36-.58 1.88-1.45 1.53-2.27-.42-1-1.36-.82-3-.49-1.39.27-3.14.58-3.84-1.06-.62-1.46.18-3 2.07-3.8s3.42-.34 3.69.28a.74.74 0 0 1-.37.85 3 3 0 0 0-2.92-.18c-1.34.57-1.82 1.44-1.48 2.25s1.25.79 2.9.47c1.45-.27 3.28-.63 4 1.05.64 1.51-.18 3-2.17 3.86-2.22.93-3.85.39-4.11-.23zM77.11 101.22v-.1c-.12-.29-.07-.5.34-.67l.76-.32-.61-1.43c-.18-.41 0-.62.27-.75l.13-.05c.29-.12.53-.08.71.33l.61 1.43 2.18-.93c.41-.17.6-.07.72.22v.1c.13.29.07.5-.34.67l-2.18.93 2 4.65c.51 1.2 1.06 1.64 2 1.25a1.7 1.7 0 0 0 1-1.14s.43 0 .61.39-.17 1.27-1.25 1.73c-1.6.68-2.67.06-3.39-1.64l-2-4.77-.76.32c-.49.17-.67.07-.8-.22zM85.15 104.33c-.81-1.91.76-3.51 4.5-5.2l.17-.07-.12-.29a2.2 2.2 0 0 0-3.23-1.2 3 3 0 0 0-2 2.62.71.71 0 0 1-.91-.38c-.25-.58.36-2.39 2.53-3.31a3.25 3.25 0 0 1 4.67 1.77l2.24 5.14s-.12.19-.33.28c-.38.16-.79.11-1.16-.78l-.13-.31a3.93 3.93 0 0 1-2.41 2.81c-1.82.76-3.24.29-3.82-1.08zm5.37-3.64l-.32-.75-.47.22c-2.75 1.29-4 2.41-3.44 3.69.35.82 1.25 1.07 2.36.6 1.68-.72 2.49-2.3 1.86-3.76zM93 95.34a3.49 3.49 0 0 1 2.15-2.68c2.16-.92 3.86.06 4.78 2.22l1.83 4.31c.17.41 0 .62-.27.74l-.12.05c-.29.12-.55.09-.72-.32l-1.8-4.24c-.69-1.63-1.92-2.28-3.32-1.69a3.14 3.14 0 0 0-2 2.88l2.19 5.13c.17.41 0 .62-.27.74l-.12.05c-.29.12-.55.09-.72-.32l-3.26-7.66s.12-.19.33-.28c.38-.16.8-.12 1.18.77zM101.44 95.06c-1.1-2.58-.17-5 2.1-6a3.77 3.77 0 0 1 3.58.18l-2-4.64s.12-.19.33-.28c.38-.16.82-.12 1.2.77L111 95.26c.18.41 0 .62-.27.74l-.12.05c-.29.12-.53.09-.71-.33l-.38-.89a3.89 3.89 0 0 1-2.39 2.86c-2.13.92-4.59-.04-5.69-2.63zm7.21-2.28l-.88-2.08A3.23 3.23 0 0 0 104 90c-1.73.74-2.31 2.57-1.47 4.54s2.61 2.8 4.26 2.1a3.13 3.13 0 0 0 1.86-3.85zM111.65 93c-.81-1.91.76-3.51 4.5-5.2l.17-.07-.12-.29a2.2 2.2 0 0 0-3.23-1.2 3 3 0 0 0-2 2.62.71.71 0 0 1-.91-.38c-.25-.58.36-2.39 2.53-3.31a3.25 3.25 0 0 1 4.69 1.83l2.19 5.15s-.12.19-.33.28c-.38.16-.78.11-1.16-.78l-.13-.31a3.93 3.93 0 0 1-2.41 2.81c-1.78.74-3.2.27-3.79-1.15zm5.35-3.59l-.32-.75-.47.22c-2.75 1.29-4 2.41-3.44 3.69.35.82 1.25 1.07 2.36.6 1.7-.72 2.51-2.3 1.87-3.76zM119.56 84.27a2.31 2.31 0 0 1 1.44-2.62c.76-.32 1.32-.2 1.54.34s0 .74-.06.72a1.54 1.54 0 0 0-1.14.08c-1.46.62-1.38 2.39-.48 4.49l1.37 3.21c.17.41 0 .62-.27.74l-.12.05c-.29.13-.55.09-.72-.32l-3.26-7.66s.12-.19.33-.28c.38-.16.8-.12 1.18.77zM124.31 85.33c-1.1-2.58-.17-5 2.1-6a3.77 3.77 0 0 1 3.58.18l-2-4.64s.12-.19.33-.28c.38-.16.82-.12 1.2.77l4.32 10.15c.17.41 0 .62-.27.74l-.12.05c-.29.13-.53.09-.71-.33l-.38-.89A3.89 3.89 0 0 1 130 88c-2.17.88-4.59-.08-5.69-2.67zm7.21-2.28l-.89-2.05a3.23 3.23 0 0 0-3.72-.69c-1.73.74-2.32 2.57-1.47 4.54s2.61 2.8 4.26 2.1a3.13 3.13 0 0 0 1.81-3.89zM57 137.56l.34.79c.18.41 0 .61-.25.74l-.12.05c-.29.12-.55.09-.72-.32l-4.73-11.11s.12-.19.33-.28c.38-.16.82-.13 1.2.77l1.63 3.8a3.89 3.89 0 0 1 2.38-2.84c2.16-.92 4.58 0 5.68 2.63s.17 5-2.1 6a3.7 3.7 0 0 1-3.64-.23zm4.58-5.3c-.82-1.92-2.61-2.8-4.26-2.1a3.31 3.31 0 0 0-2.11 3.19l.82 1.92a3.1 3.1 0 0 0 4.08 1.53c1.77-.73 2.35-2.56 1.51-4.53zM64.07 128.16a2.31 2.31 0 0 1 1.44-2.62c.76-.32 1.32-.2 1.54.34s0 .74-.06.72a1.54 1.54 0 0 0-1.14.08c-1.46.62-1.38 2.39-.48 4.49l1.37 3.21c.18.41 0 .62-.27.74l-.12.05c-.29.13-.55.09-.72-.32l-3.26-7.66s.12-.19.33-.28c.38-.16.8-.12 1.18.77zM68.8 129.19a4.58 4.58 0 1 1 6.06 2.51 4.46 4.46 0 0 1-6.06-2.51zm7.31-3.07a3.36 3.36 0 1 0-1.67 4.61 3.4 3.4 0 0 0 1.67-4.61zM78.91 127.26c-.81-1.91.76-3.51 4.5-5.2l.17-.07-.12-.29a2.2 2.2 0 0 0-3.23-1.2 3 3 0 0 0-2 2.62.72.72 0 0 1-.91-.38c-.25-.58.37-2.38 2.53-3.31a3.25 3.25 0 0 1 4.67 1.77l2.19 5.15s-.12.19-.33.28c-.38.16-.78.11-1.16-.78l-.13-.31a3.93 3.93 0 0 1-2.41 2.81c-1.77.75-3.19.28-3.77-1.09zm5.37-3.64l-.32-.75-.47.22c-2.75 1.29-4 2.41-3.44 3.69.35.82 1.25 1.07 2.36.6 1.68-.72 2.49-2.3 1.87-3.76zM86.27 121.79c-1.1-2.58-.17-5 2.1-6A3.77 3.77 0 0 1 92 116l-2-4.64s.12-.19.33-.28c.38-.16.82-.13 1.2.77l4.3 10.15c.18.41 0 .62-.27.74l-.12.05c-.29.12-.53.08-.71-.33l-.38-.89a3.89 3.89 0 0 1-2.35 2.85c-2.21.92-4.62-.03-5.73-2.63zm7.21-2.28l-.88-2.08a3.23 3.23 0 0 0-3.72-.69c-1.73.74-2.32 2.57-1.48 4.54s2.61 2.8 4.26 2.1a3.13 3.13 0 0 0 1.82-3.86zM98.46 119.93l.34.79c.18.41 0 .61-.25.74l-.12.05c-.29.12-.55.09-.72-.32L93 110.08s.12-.19.33-.28c.38-.16.82-.12 1.2.77l1.61 3.78a3.89 3.89 0 0 1 2.38-2.84c2.16-.92 4.58 0 5.68 2.63s.17 5-2.1 6a3.7 3.7 0 0 1-3.64-.21zm4.58-5.3c-.82-1.92-2.61-2.8-4.26-2.1a3.31 3.31 0 0 0-2.11 3.19l.82 1.92a3.1 3.1 0 0 0 4.08 1.53c1.73-.73 2.31-2.56 1.43-4.53zM105.83 115.81c-.81-1.91.76-3.51 4.5-5.2l.17-.07-.12-.29a2.2 2.2 0 0 0-3.23-1.2 3 3 0 0 0-2 2.62.71.71 0 0 1-.91-.38c-.25-.58.36-2.39 2.53-3.31a3.25 3.25 0 0 1 4.67 1.77l2.19 5.15s-.12.19-.33.28c-.38.16-.78.11-1.16-.78l-.13-.31a3.94 3.94 0 0 1-2.41 2.81c-1.77.75-3.19.28-3.77-1.09zm5.37-3.64l-.32-.75-.47.22c-2.76 1.29-4 2.41-3.44 3.69.35.82 1.25 1.07 2.36.6 1.67-.73 2.48-2.31 1.86-3.77zM113.64 106.82a3.49 3.49 0 0 1 2.15-2.68c2.16-.92 3.86.06 4.78 2.23l1.83 4.31c.18.41 0 .62-.27.74l-.12.05c-.29.13-.55.09-.73-.32l-1.8-4.24c-.69-1.63-1.92-2.28-3.32-1.69a3.14 3.14 0 0 0-2 2.88l2.19 5.13c.18.41 0 .62-.27.74l-.08.03c-.29.13-.55.09-.72-.32l-3.28-7.63s.12-.19.33-.28c.38-.16.8-.12 1.18.77zM122.12 106.54c-1.1-2.58-.17-5 2.1-6a3.77 3.77 0 0 1 3.58.18l-2-4.64s.12-.19.33-.28c.38-.16.82-.13 1.2.77l4.32 10.15c.18.41 0 .62-.27.74l-.12.05c-.29.13-.53.09-.71-.33l-.38-.89a3.89 3.89 0 0 1-2.39 2.86c-2.14.94-4.56-.02-5.66-2.61zm7.21-2.28l-.88-2.08a3.23 3.23 0 0 0-3.72-.69c-1.73.74-2.32 2.57-1.47 4.54s2.61 2.8 4.26 2.1a3.13 3.13 0 0 0 1.8-3.87z"/></svg>