<svg xmlns="http://www.w3.org/2000/svg" viewBox="0 0 100.47 65.58"><defs><style>.cls-1{fill:#fff;}</style></defs><title>Artboard 3</title><path class="cls-1" d="M7.71 8.23v-.17c0-.6.3-.9 1.1-.9h1.4v-.9c0-3 1.42-4.42 3.82-4.42 1.85 0 2.7.77 2.7 1.62a1.15 1.15 0 0 1-.6 1.07 2.71 2.71 0 0 0-1.8-.7c-1.2 0-1.72.75-1.72 2.45v.88h2c.8 0 1.1.32 1.1.92v.17c0 .6-.3.92-1.1.92h-2v8.92c0 .9-.42 1.17-1.07 1.17h-.25c-.65 0-1.12-.27-1.12-1.17V9.18H8.81c-.81 0-1.1-.32-1.1-.95zM16.66 13.16A6.06 6.06 0 0 1 23 6.86a6.07 6.07 0 0 1 6.27 6.35 6 6 0 0 1-6.3 6.3 6 6 0 0 1-6.31-6.35zm10.3 0a4 4 0 1 0-8 0 4.08 4.08 0 0 0 4 4.32A4 4 0 0 0 27 13.21zM34 9.13a3 3 0 0 1 3-2.27c1.25 0 2 .6 2 1.6a1.23 1.23 0 0 1-.75 1.27 2.33 2.33 0 0 0-1.52-.52c-2 0-2.72 1.9-2.72 4.67v4.22c0 .9-.47 1.17-1.1 1.17h-.28c-.65 0-1.1-.27-1.1-1.17V7.31a1.23 1.23 0 0 1 .9-.27C33.21 7 34 7.43 34 9.13zM47.28 23.38l2-4.87a1 1 0 0 1-1-.7l-4.3-10c0-.15.5-.72 1.3-.72s1.17.32 1.57 1.4l3.25 8.3 2.87-8.25c.35-1.1.9-1.45 1.55-1.45s1.35.55 1.3.67l-5.67 15c-.4 1.07-.95 1.38-1.52 1.38s-1.4-.64-1.35-.76zM56.53 13.16a6.3 6.3 0 1 1 12.6 0 6.3 6.3 0 1 1-12.6 0zm10.3 0a4 4 0 1 0-8 0 4.08 4.08 0 0 0 4 4.32 4 4 0 0 0 4-4.27zM80 17.38a4.67 4.67 0 0 1-4 2.1c-3.17 0-4.62-2.15-4.62-5.15v-6.1c0-.9.45-1.2 1.07-1.2h.28c.65 0 1.1.27 1.1 1.2V14c0 2.07 1 3.3 2.87 3.3a3.61 3.61 0 0 0 3.3-2.09v-7c0-.9.45-1.2 1.07-1.2h.28c.65 0 1.1.27 1.1 1.2V19a1.2 1.2 0 0 1-.87.27c-.77.01-1.58-.34-1.58-1.89zM87.93 9.13a3 3 0 0 1 3-2.27c1.25 0 2 .6 2 1.6a1.23 1.23 0 0 1-.75 1.27 2.33 2.33 0 0 0-1.52-.52c-2 0-2.72 1.9-2.72 4.67v4.22c0 .9-.47 1.17-1.1 1.17h-.28c-.65 0-1.1-.27-1.1-1.17V7.31a1.23 1.23 0 0 1 .9-.27c.75-.04 1.55.39 1.57 2.09zM21.27 40.53l-3-10.77c0-.15.75-.72 1.47-.72.52 0 1.1.3 1.3 1.33l1.87 8.42 2.3-7.27c.17-.6.6-.87 1.52-.87s1.33.28 1.5.88l2.22 7.22 1.85-8.37c.17-1 .77-1.33 1.27-1.33a1.83 1.83 0 0 1 1.42.72L32 40.53c-.15.6-.6.8-1.5.8s-1.3-.2-1.52-.87l-2.28-7.28-2.4 7.27c-.22.65-.53.87-1.5.87s-1.35-.19-1.53-.79zM39.52 31.06a4.5 4.5 0 0 1 4-2.2c3.17 0 4.65 2.2 4.65 5.2v6c0 .9-.47 1.17-1.1 1.17h-.28c-.65 0-1.1-.27-1.1-1.17v-5.73c0-2.07-1-3.3-2.77-3.3a3.22 3.22 0 0 0-3.37 3.52v5.55c0 .9-.47 1.17-1.1 1.17h-.28c-.65 0-1.1-.27-1.1-1.17V24.28a1.23 1.23 0 0 1 .9-.27c.75 0 1.57.4 1.57 2.12zM50.35 35.16a6.3 6.3 0 1 1 12.6 0 6.3 6.3 0 1 1-12.6 0zm10.3 0a4 4 0 1 0-8 0 4.08 4.08 0 0 0 4 4.32 4 4 0 0 0 3.99-4.27zM65.37 40.11V24.28a1.29 1.29 0 0 1 .9-.27c.77 0 1.57.4 1.57 2.12v14c0 .9-.45 1.17-1.1 1.17h-.24c-.65-.02-1.13-.3-1.13-1.19zM70.3 35.23a6.09 6.09 0 0 1 6.15-6.37c3.47 0 5.77 2.45 5.77 6v.2c0 .53-.17.73-.75.73H72.6a4.28 4.28 0 0 0 7.87 1.72c0-.05 1.3.17 1.3 1.22s-1.85 2.72-5.12 2.72a6 6 0 0 1-6.35-6.22zm2.32-1.07h7.2a3.3 3.3 0 0 0-3.4-3.42 3.83 3.83 0 0 0-3.8 3.42zM3.91 57.16a6.08 6.08 0 0 1 6.25-6.3c3.57 0 5.15 2.2 5.15 3.32s-1.4 1.22-1.47 1.1a3.57 3.57 0 0 0-3.62-2.35 4.26 4.26 0 0 0 0 8.5 3.59 3.59 0 0 0 3.62-2.35c.07-.12 1.47.05 1.47 1.13s-1.6 3.3-5.15 3.3a6.08 6.08 0 0 1-6.25-6.35zM16.81 57.16a6.06 6.06 0 0 1 6.32-6.3 6.32 6.32 0 0 1 0 12.65 6 6 0 0 1-6.32-6.35zm10.3 0a4 4 0 1 0-8 0 4.08 4.08 0 0 0 4 4.32 4 4 0 0 0 4-4.27zM34.18 53a4.66 4.66 0 0 1 4-2.12c3.17 0 4.65 2.17 4.65 5.15v6.1c0 .9-.47 1.17-1.1 1.17h-.28c-.65 0-1.1-.27-1.1-1.17v-5.8c0-2-1-3.27-2.77-3.27a3.63 3.63 0 0 0-3.37 2.1v7c0 .9-.47 1.17-1.1 1.17h-.28c-.65 0-1.1-.27-1.1-1.17V51.31a1.23 1.23 0 0 1 .9-.28c.73-.03 1.48.38 1.55 1.97zM44.46 52.26v-.17c0-.6.3-.92 1.08-.92h.88v-1.86c0-.85.42-1.17 1.1-1.17h.25c.65 0 1.07.25 1.07 1.17v1.85h2.72c.77 0 1 .3 1 .9v.17c0 .63-.3.95-1.08.95h-2.67v6.07c0 1.5.42 2.22 1.6 2.22a2 2 0 0 0 1.7-.85c.08-.08.7.28.7 1 0 .92-1 1.82-2.8 1.82-2.47 0-3.6-1.37-3.6-4v-6.26h-.87c-.78 0-1.08-.32-1.08-.92zM57.23 53.13a3 3 0 0 1 3-2.27c1.25 0 2 .6 2 1.6a1.23 1.23 0 0 1-.75 1.27 2.33 2.33 0 0 0-1.48-.52c-2 0-2.72 1.9-2.72 4.67v4.22c0 .9-.47 1.17-1.1 1.17h-.28c-.65 0-1.1-.27-1.1-1.17V51.31a1.23 1.23 0 0 1 .9-.28c.71-.03 1.51.4 1.53 2.1zM63.23 60c0-2.77 2.65-4 8.07-4.07h.33v-.25c0-1.82-1-2.82-3-2.82a3.63 3.63 0 0 0-3.45 2s-1.52 0-1.52-1.2 1.75-2.87 5.15-2.87 5.25 1.75 5.25 4.8V63c0 .13-.45.28-.9.28-.87 0-1.5-.48-1.52-1.92a5.2 5.2 0 0 1-4.32 2.07c-2.56.03-4.09-1.35-4.09-3.43zm8.4-1.6v-.92h-.67c-3.5.13-5.3.77-5.3 2.4 0 1.07.85 1.75 2.27 1.75 2.15.05 3.7-1.3 3.7-3.2zM76.28 57.16a6.08 6.08 0 0 1 6.25-6.3c3.57 0 5.15 2.2 5.15 3.32s-1.4 1.22-1.47 1.1a3.57 3.57 0 0 0-3.62-2.35 4.26 4.26 0 0 0 0 8.5 3.59 3.59 0 0 0 3.62-2.35c.08-.12 1.47.05 1.47 1.13s-1.6 3.3-5.15 3.3a6.08 6.08 0 0 1-6.25-6.35zM88.86 52.26v-.17c0-.6.3-.92 1.08-.92h.88v-1.86c0-.85.42-1.17 1.1-1.17h.25c.65 0 1.07.25 1.07 1.17v1.85H96c.77 0 1 .3 1 .9v.17c0 .63-.3.95-1.08.95h-2.71v6.07c0 1.5.42 2.22 1.6 2.22a2 2 0 0 0 1.7-.85c.08-.08.7.28.7 1 0 .92-1 1.82-2.8 1.82-2.47 0-3.6-1.37-3.6-4v-6.26h-.87c-.78 0-1.08-.32-1.08-.92z"/></svg>