<svg xmlns="http://www.w3.org/2000/svg" viewBox="0 0 202.017 96.468"><defs><style>.cls-1{fill:#33a275;}.cls-2{fill:#fff;}</style></defs><title>textseven</title><g id="Layer_2"><g id="Layer_1-2"><path class="cls-1" d="M202.017 75.44V0H0v75.493s122.97-.03 167.7-.042a10.506 10.506 0 0 1 7.228 3.1l15.463 15.53a8.968 8.968 0 0 0 6.06 2.384 5.208 5.208 0 0 0 5.57-5.85z"/><path class="cls-2" d="M17.16 14.494a1 1 0 0 1 1.14-1.118.973.973 0 0 1 1.1 1.118 1 1 0 0 1-1.144 1.117.994.994 0 0 1-1.097-1.116zm.26 15.887V19.41c0-.624.312-.807.754-.807h.183c.44 0 .754.184.754.808V30.38c0 .624-.31.807-.753.807h-.183c-.443 0-.754-.187-.754-.806zM24.387 20.656a4.86 4.86 0 0 1 4.213-2.262c3.275 0 4.914 2.184 4.914 5.46v6.526c0 .623-.312.806-.754.806h-.182c-.443 0-.755-.183-.755-.806v-6.42c0-2.472-1.222-3.98-3.328-3.98a4.375 4.375 0 0 0-4.082 2.625v7.775c0 .623-.312.806-.754.806h-.184c-.44 0-.754-.183-.754-.806v-11.6c0-.052.26-.183.572-.183.572 0 1.092.287 1.092 1.64zM40.48 24.868a6.385 6.385 0 1 1 12.77.052 6.385 6.385 0 1 1-12.77-.052zm11.052.052a4.68 4.68 0 1 0-9.334-.052 4.753 4.753 0 0 0 4.68 5.044 4.7 4.7 0 0 0 4.654-4.992zM64.948 29.55v-.392a4.907 4.907 0 0 1-4.213 2.236c-3.275 0-4.914-2.184-4.914-5.46v-6.526c0-.624.314-.807.755-.807h.183c.442 0 .754.184.754.808v6.422c0 2.5 1.248 3.98 3.458 3.98a4.325 4.325 0 0 0 3.952-2.628v-7.774c0-.624.312-.807.755-.807h.182c.44 0 .753.184.753.808V31c0 .053-.26.183-.572.183-.572.003-1.092-.283-1.092-1.634zM71.76 20.968a3.222 3.222 0 0 1 3.276-2.574c1.144 0 1.793.467 1.793 1.273 0 .624-.417.936-.468.885a2.15 2.15 0 0 0-1.508-.52c-2.21 0-3.068 2.312-3.068 5.484v4.863c0 .622-.312.805-.754.805h-.183c-.443 0-.755-.183-.755-.806v-11.6c0-.053.26-.184.57-.184.573 0 1.094.287 1.094 1.64zM92.325 29.55v-.392a4.9 4.9 0 0 1-4.21 2.236c-3.278 0-4.915-2.184-4.915-5.46v-6.526c0-.624.312-.807.754-.807h.182c.44 0 .754.184.754.808v6.422c0 2.5 1.248 3.98 3.458 3.98a4.327 4.327 0 0 0 3.952-2.63V19.41c0-.624.313-.807.754-.807h.182c.443 0 .754.184.754.808V31c0 .053-.26.183-.57.183-.574.003-1.095-.283-1.095-1.634zM99.137 20.656a4.858 4.858 0 0 1 4.212-2.262c3.275 0 4.914 2.184 4.914 5.46v6.526c0 .623-.312.806-.755.806h-.184c-.44 0-.754-.183-.754-.806v-6.42c0-2.472-1.22-3.98-3.328-3.98a4.376 4.376 0 0 0-4.082 2.625v7.775c0 .623-.312.806-.754.806h-.182c-.44 0-.754-.183-.754-.806v-11.6c0-.052.26-.183.572-.183.572 0 1.092.287 1.092 1.64zM111.773 30.38V13.56c0-.053.26-.183.57-.183.573 0 1.12.286 1.12 1.638V30.38c0 .624-.312.807-.754.807h-.184c-.44 0-.753-.187-.753-.806zM116.948 14.494a1 1 0 0 1 1.143-1.118.974.974 0 0 1 1.094 1.118 1.118 1.118 0 0 1-2.235 0zm.26 15.887V19.41c0-.624.312-.807.754-.807h.182c.44 0 .754.184.754.808V30.38c0 .624-.312.807-.754.807h-.182c-.443 0-.754-.187-.754-.806zM124.176 20.552a4.744 4.744 0 0 1 3.9-2.158 4.1 4.1 0 0 1 4.11 2.652 4.97 4.97 0 0 1 4.393-2.652c3.12 0 4.783 1.793 4.783 5.226v6.76c0 .624-.312.807-.754.807h-.183c-.442 0-.754-.183-.754-.806v-6.656c0-2.47-1.066-3.744-3.2-3.744a4.255 4.255 0 0 0-3.69 2.5v7.9c0 .623-.313.806-.755.806h-.182c-.443 0-.755-.183-.755-.806v-6.527c0-2.6-1.064-3.873-3.2-3.873a4.254 4.254 0 0 0-3.69 2.5v7.9c0 .623-.312.806-.754.806h-.183c-.442 0-.754-.183-.754-.806v-11.6c0-.052.26-.183.57-.183.572 0 1.093.287 1.093 1.64zM144.612 14.494a1 1 0 0 1 1.143-1.118.974.974 0 0 1 1.093 1.118 1.118 1.118 0 0 1-2.235 0zm.26 15.887V19.41c0-.624.312-.807.754-.807h.182c.44 0 .754.184.754.808V30.38c0 .624-.312.807-.754.807h-.182c-.443 0-.754-.187-.754-.806zM149 19.538v-.155c0-.443.182-.677.807-.677h1.144v-2.158c0-.624.313-.806.756-.806h.182c.44 0 .728.182.728.806v2.158h3.3c.625 0 .807.233.807.677v.155c0 .442-.182.677-.807.677h-3.3v7.045c0 1.82.468 2.68 1.847 2.68a2.37 2.37 0 0 0 1.924-.91c.052-.053.572.182.572.83 0 .7-.91 1.535-2.55 1.535-2.418 0-3.458-1.378-3.458-3.952v-7.228h-1.144c-.622 0-.808-.235-.808-.677zM158.34 24.946a6.222 6.222 0 0 1 6.24-6.552c3.483 0 5.77 2.47 5.77 6.24v.156c0 .467-.182.57-.7.57h-9.62a4.568 4.568 0 0 0 4.707 4.525 4.45 4.45 0 0 0 4.238-2.21 1 1 0 0 1 .988.962c0 .857-1.873 2.756-5.227 2.756a6.143 6.143 0 0 1-6.397-6.447zm1.74-1.04h8.478c-.156-2.443-1.664-4.03-3.98-4.03a4.524 4.524 0 0 0-4.497 4.03zM172.145 24.92c0-3.9 2.52-6.525 5.953-6.525a5.25 5.25 0 0 1 4.5 2.184v-7.02c0-.054.26-.184.572-.184.572 0 1.12.286 1.12 1.638V30.38c0 .624-.313.807-.756.807h-.183c-.44 0-.726-.183-.726-.806V29.03a5.42 5.42 0 0 1-4.63 2.366c-3.275 0-5.85-2.55-5.85-6.474zm10.48 1.014v-3.146a4.5 4.5 0 0 0-4.396-2.912c-2.628 0-4.37 2.028-4.37 5.02 0 2.91 1.82 5.017 4.316 5.017a4.365 4.365 0 0 0 4.448-3.98zM18.954 56.184v1.2c0 .623-.286.806-.73.806h-.18c-.442 0-.755-.183-.755-.806V40.558c0-.053.26-.183.57-.183.573 0 1.118.286 1.118 1.638v5.72a5.417 5.417 0 0 1 4.6-2.34c3.276 0 5.85 2.548 5.85 6.475 0 3.9-2.52 6.526-5.954 6.526a5.15 5.15 0 0 1-4.52-2.21zm8.762-4.29c0-2.912-1.82-5.02-4.316-5.02a4.615 4.615 0 0 0-4.445 2.94v2.91a4.314 4.314 0 0 0 4.395 4.187c2.623.002 4.366-2.025 4.366-5.016zM33.747 47.968a3.222 3.222 0 0 1 3.276-2.574c1.144 0 1.794.467 1.794 1.273 0 .624-.416.936-.468.885a2.147 2.147 0 0 0-1.51-.52c-2.21 0-3.067 2.312-3.067 5.484v4.863c0 .622-.312.805-.754.805h-.184c-.44 0-.754-.183-.754-.806v-11.6c0-.053.26-.184.572-.184.572 0 1.092.287 1.092 1.64zM40.04 51.868a6.384 6.384 0 1 1 12.766.052 6.384 6.384 0 1 1-12.766-.052zm11.05.052a4.68 4.68 0 1 0-9.335-.052 4.753 4.753 0 0 0 4.68 5.044 4.7 4.7 0 0 0 4.655-4.992zM54.7 54.91c0-2.886 2.886-4.082 8.606-4.212h.26v-.442c0-2.132-1.248-3.3-3.484-3.3a4.242 4.242 0 0 0-3.95 2.288 1 1 0 0 1-.964-.988c0-.884 1.77-2.86 5.045-2.86 3.146 0 5.018 1.82 5.018 4.81V58c0 .053-.26.183-.57.183-.573 0-1.066-.286-1.066-1.638v-.465a5.485 5.485 0 0 1-4.628 2.29c-2.704 0-4.266-1.38-4.266-3.46zm8.866-1.742v-1.144l-.73.026c-4.236.156-6.42.91-6.42 2.86 0 1.247 1.013 2.054 2.704 2.054 2.55 0 4.45-1.585 4.45-3.796zM67.78 51.92c0-3.9 2.523-6.525 5.955-6.525a5.252 5.252 0 0 1 4.5 2.184v-7.02c0-.054.26-.184.572-.184.572 0 1.117.286 1.117 1.638V57.38c0 .624-.31.807-.754.807h-.182c-.44 0-.73-.183-.73-.806V56.03a5.417 5.417 0 0 1-4.626 2.366c-3.278 0-5.85-2.55-5.85-6.474zm10.48 1.014v-3.146a4.5 4.5 0 0 0-4.395-2.912c-2.626 0-4.368 2.028-4.368 5.02 0 2.91 1.82 5.017 4.316 5.017a4.36 4.36 0 0 0 4.446-3.98zM85.07 56.184v1.2c0 .623-.286.806-.728.806h-.182c-.442 0-.754-.183-.754-.806V40.558c0-.053.26-.183.57-.183.573 0 1.12.286 1.12 1.638v5.72a5.415 5.415 0 0 1 4.6-2.34c3.276 0 5.85 2.548 5.85 6.475 0 3.9-2.522 6.526-5.954 6.526a5.15 5.15 0 0 1-4.52-2.21zm8.763-4.29c0-2.912-1.82-5.02-4.316-5.02a4.614 4.614 0 0 0-4.445 2.94v2.91a4.313 4.313 0 0 0 4.394 4.187c2.625.002 4.367-2.025 4.367-5.016zM97.42 54.91c0-2.886 2.887-4.082 8.606-4.212h.26v-.442c0-2.132-1.248-3.3-3.483-3.3a4.243 4.243 0 0 0-3.952 2.288 1 1 0 0 1-.96-.988c0-.884 1.768-2.86 5.043-2.86 3.146 0 5.018 1.82 5.018 4.81V58c0 .053-.26.183-.57.183-.57 0-1.065-.286-1.065-1.638v-.465a5.485 5.485 0 0 1-4.63 2.29c-2.705 0-4.264-1.38-4.264-3.46zm8.866-1.742v-1.144l-.727.026c-4.24.156-6.424.91-6.424 2.86 0 1.247 1.015 2.054 2.7 2.054 2.552 0 4.45-1.585 4.45-3.796zM112.994 47.656a4.86 4.86 0 0 1 4.212-2.262c3.276 0 4.914 2.184 4.914 5.46v6.526c0 .623-.312.806-.754.806h-.182c-.442 0-.754-.183-.754-.806v-6.42c0-2.472-1.223-3.98-3.328-3.98a4.375 4.375 0 0 0-4.082 2.625v7.775c0 .623-.312.806-.754.806h-.183c-.442 0-.754-.183-.754-.806v-11.6c0-.052.26-.183.57-.183.572 0 1.093.287 1.093 1.64zM124.668 51.92c0-3.9 2.522-6.525 5.954-6.525a5.252 5.252 0 0 1 4.5 2.184v-7.02c0-.054.26-.184.572-.184.572 0 1.117.286 1.117 1.638V57.38c0 .624-.31.807-.753.807h-.182c-.44 0-.73-.183-.73-.806V56.03a5.417 5.417 0 0 1-4.626 2.366c-3.28 0-5.852-2.55-5.852-6.474zm10.478 1.014v-3.146a4.5 4.5 0 0 0-4.394-2.912c-2.626 0-4.368 2.028-4.368 5.02 0 2.91 1.82 5.017 4.316 5.017a4.36 4.36 0 0 0 4.445-3.98zM143.778 55.873a1.01 1.01 0 0 1 .91-.91 4.957 4.957 0 0 0 4.237 2c2.054 0 3.2-.832 3.2-2.08 0-1.482-1.3-1.795-3.64-2.29-1.925-.415-4.343-.96-4.343-3.456 0-2.21 1.872-3.744 4.732-3.744 3.016 0 4.576 1.43 4.576 2.365 0 .65-.885.963-.936.885a4.2 4.2 0 0 0-3.64-1.82c-2.03 0-3.12.857-3.12 2.08 0 1.326 1.17 1.69 3.457 2.184 2 .442 4.552.988 4.552 3.537 0 2.287-1.873 3.77-4.89 3.77-3.3 0-5.094-1.586-5.094-2.52zM155.737 54.91c0-2.886 2.887-4.082 8.606-4.212h.26v-.442c0-2.132-1.247-3.3-3.483-3.3a4.245 4.245 0 0 0-3.953 2.288 1 1 0 0 1-.96-.988c0-.884 1.767-2.86 5.042-2.86 3.145 0 5.02 1.82 5.02 4.81V58c0 .053-.262.183-.573.183-.572 0-1.066-.286-1.066-1.638v-.465a5.485 5.485 0 0 1-4.63 2.29c-2.7 0-4.263-1.38-4.263-3.46zm8.867-1.742v-1.144l-.73.026c-4.237.156-6.42.91-6.42 2.86 0 1.247 1.013 2.054 2.7 2.054 2.552 0 4.446-1.585 4.446-3.796zM169.777 57.38V40.56c0-.053.26-.183.57-.183.573 0 1.12.286 1.12 1.638V57.38c0 .624-.312.807-.754.807h-.183c-.44 0-.753-.187-.753-.806zM174.25 51.946a6.222 6.222 0 0 1 6.24-6.552c3.483 0 5.77 2.47 5.77 6.24v.156c0 .467-.182.57-.7.57h-9.62a4.57 4.57 0 0 0 4.706 4.525 4.45 4.45 0 0 0 4.238-2.21 1 1 0 0 1 .988.962c0 .857-1.873 2.756-5.227 2.756a6.143 6.143 0 0 1-6.396-6.447zm1.74-1.04h8.478c-.156-2.443-1.664-4.03-3.98-4.03a4.523 4.523 0 0 0-4.497 4.03z"/></g></g></svg>