<svg xmlns="http://www.w3.org/2000/svg" viewBox="0 0 213.346 83.102"><defs><style>.cls-1{fill:#1d4e9d;}.cls-2{fill:#fff;}</style></defs><title>textsix</title><g id="Layer_2"><g id="Layer_1-2"><path class="cls-1" d="M0 62.075V0h213.346v62.127s-134.3-.03-179.025-.042a10.506 10.506 0 0 0-7.227 3.1L11.63 80.72a8.968 8.968 0 0 1-6.06 2.38 5.777 5.777 0 0 1-3.888-1.32A5.823 5.823 0 0 1 0 77.253z"/><path class="cls-2" d="M16.632 29.7c0-6.535 4.422-11.123 10.66-11.123 6.27 0 10.594 4.52 10.594 11.057s-4.39 11.09-10.66 11.09S16.632 36.24 16.632 29.7zm18.944 0c0-5.314-3.5-9.176-8.35-9.176s-8.285 3.763-8.285 9.11 3.5 9.142 8.352 9.142 8.284-3.725 8.284-9.076zM52.042 26.073c.494-1.287.89-1.584 1.55-1.584.76 0 1.09.526 1.058.626L48.873 39.67c-.23.563-.462.86-1.552.86-1.12 0-1.22-.232-1.45-.793l-5.842-14.62c-.033-.133.3-.628 1.056-.628s1.122.3 1.617 1.583l4.62 12.344zM56.3 32.542c0-4.785 3.367-8.316 7.922-8.316 4.422 0 7.326 3.135 7.326 7.92v.2c0 .595-.23.727-.89.727H58.44a5.8 5.8 0 0 0 5.974 5.743 5.648 5.648 0 0 0 5.384-2.808 1.273 1.273 0 0 1 1.254 1.222c0 1.09-2.377 3.5-6.635 3.5a7.8 7.8 0 0 1-8.12-8.188zm2.212-1.32h10.755c-.2-3.1-2.11-5.115-5.05-5.115a5.742 5.742 0 0 0-5.71 5.115zM76.987 27.493a4.09 4.09 0 0 1 4.16-3.268c1.45 0 2.276.594 2.276 1.617 0 .792-.528 1.188-.595 1.122a2.724 2.724 0 0 0-1.914-.66c-2.8 0-3.895 2.937-3.895 6.964v6.172c0 .792-.4 1.023-.958 1.023h-.23c-.562 0-.957-.23-.957-1.023V24.72c0-.065.33-.23.726-.23.727 0 1.387.363 1.387 2.08zM92.992 38.285h11.65c.693 0 1.057.33 1.057.925v.164c0 .627-.364.957-1.057.957h-12.41a1.268 1.268 0 0 1-1.42-1.352v-.66c0-4.62 3.27-6.535 6.6-8.218 2.9-1.486 5.645-2.707 5.645-5.38 0-2.542-1.882-4.093-4.95-4.093-3.466 0-4.984 2.046-5.678 4.39a1.224 1.224 0 0 1-1.518-1.188c0-1.85 2.475-5.282 7.36-5.282 4.323 0 7 2.377 7 6.205 0 3.73-3.1 5.314-6.438 6.932-3.1 1.518-5.842 2.97-5.842 6.238zM110.68 28.22a10.408 10.408 0 0 1 4.753-1.123c4.488 0 7.492 2.64 7.492 6.7 0 4.258-3.07 6.932-7.987 6.932-4.356 0-7.327-2.51-7.327-4.226 0-.957 1.255-1.354 1.32-1.22a6.353 6.353 0 0 0 6.07 3.43c3.434 0 5.678-1.88 5.678-4.818 0-2.9-2.047-4.72-5.28-4.72a8.767 8.767 0 0 0-5.446 1.585 1.416 1.416 0 0 1-1.42-1.55v-8.98a1.254 1.254 0 0 1 1.255-1.253h11.023c.66 0 1.022.33 1.022.957v.166c0 .595-.362.925-1.022.925h-10.13zM125.234 23.962v-.33a4.993 4.993 0 0 1 4.95-4.984 4.888 4.888 0 0 1 4.918 4.918v.33a4.994 4.994 0 0 1-4.95 4.983 4.888 4.888 0 0 1-4.918-4.918zm1.45 15.71c0-.628.232-.99.99-1.815l16.6-19.34a.957.957 0 0 1 1.058.923 3.1 3.1 0 0 1-.99 1.815l-16.6 19.345a1.01 1.01 0 0 1-1.057-.93zm6.47-15.678v-.462a3.042 3.042 0 0 0-3-3.2 3 3 0 0 0-2.97 3.2v.462a3.033 3.033 0 0 0 3 3.17 2.988 2.988 0 0 0 2.97-3.17zm3.928 11.552v-.33a4.994 4.994 0 0 1 4.95-4.984 4.89 4.89 0 0 1 4.92 4.918v.33A4.994 4.994 0 0 1 142 40.464a4.89 4.89 0 0 1-4.92-4.918zm7.922.033v-.464a3.043 3.043 0 0 0-3-3.2 3 3 0 0 0-2.97 3.2v.463a3.033 3.033 0 0 0 3 3.167A2.988 2.988 0 0 0 145 35.58zM154.933 32.443a8.1 8.1 0 1 1 16.205.065 8.1 8.1 0 1 1-16.205-.065zm14.027.065c0-3.663-2.51-6.4-5.908-6.4s-5.94 2.674-5.94 6.337 2.54 6.4 5.94 6.4c3.366.002 5.908-2.672 5.908-6.336zM172.653 25.677v-.2c0-.56.23-.858 1.023-.858h2.31v-1.45c0-3.6 1.585-5.58 4.62-5.58 2.113 0 3.137.893 3.137 1.85 0 .76-.562 1.09-.627 1.023a3.818 3.818 0 0 0-2.51-.958c-1.78 0-2.54 1.156-2.54 3.764v1.352h3.168c.792 0 1.023.3 1.023.858v.2c0 .562-.23.86-1.023.86H178.1v12.9c0 .79-.363 1.022-.924 1.022h-.23c-.562 0-.957-.23-.957-1.023v-12.9h-2.312c-.794-.004-1.025-.302-1.025-.863zM183.543 25.677v-.2c0-.56.23-.858 1.022-.858h2.31v-1.45c0-3.6 1.585-5.58 4.622-5.58 2.112 0 3.135.893 3.135 1.85 0 .76-.56 1.09-.627 1.023a3.81 3.81 0 0 0-2.505-.963c-1.782 0-2.54 1.156-2.54 3.764v1.353h3.167c.793 0 1.023.3 1.023.858v.2c0 .562-.23.86-1.023.86h-3.135v12.9c0 .79-.363 1.022-.925 1.022h-.23c-.562 0-.958-.23-.958-1.023v-12.9h-2.312c-.793.002-1.025-.296-1.025-.857z"/></g></g></svg>