<svg xmlns="http://www.w3.org/2000/svg" viewBox="0 0 83.973 15.014"><defs><style>.cls-1{fill:#e52639;}</style></defs><title>texttwo</title><g id="Layer_2"><g id="Layer_1-2"><path class="cls-1" d="M0 1.25C0 .536.335.2.96.2h.333c.67 0 1 .335 1 1.05v11.4h6.273c.692 0 1.07.333 1.07.98v.09a.937.937 0 0 1-1.07 1h-7.34A1.172 1.172 0 0 1 0 13.45zM17.96 0c4.305 0 7.294 3.08 7.294 7.5a7.118 7.118 0 0 1-7.317 7.518c-4.305 0-7.294-3.08-7.294-7.473A7.148 7.148 0 0 1 17.96 0zm0 12.983c2.92 0 4.974-2.23 4.974-5.443s-2.075-5.51-5-5.51-4.972 2.23-4.972 5.47c0 3.208 2.075 5.483 4.997 5.483zM26.17.848A1.426 1.426 0 0 1 27.53.2c.6 0 1.116.357 1.34 1.34l2.34 10.618 2.745-9.08a1.34 1.34 0 0 1 1.518-1.048 1.368 1.368 0 0 1 1.517 1.048l2.7 9.035 2.387-10.6C42.277.58 42.7.2 43.347.2c.848 0 1.34.536 1.294.647l-3.323 13.118c-.156.67-.58.915-1.562.915-.893 0-1.294-.268-1.495-.937l-2.787-9.325-2.923 9.325c-.18.67-.558.937-1.45.937-.98 0-1.405-.223-1.562-.915zM47.274 1.584A1.19 1.19 0 0 1 48.5.29h8.366c.714 0 1.07.357 1.07.96v.133c0 .625-.356.96-1.07.96h-7.294V6.38h5.644c.736 0 1.07.312 1.07.915v.067c0 .625-.356.96-1.07.96h-5.644v4.37H57c.714 0 1.048.314 1.048.916v.11c0 .648-.334 1-1.048 1h-8.5a1.172 1.172 0 0 1-1.227-1.27zM60.593 10.91a5.235 5.235 0 0 0 4.35 2.207c2.008 0 3.146-.825 3.146-2.253 0-1.628-1.7-2.008-3.615-2.454-2.23-.513-4.55-1.293-4.55-4.216C59.924 1.74 62.042 0 65.12 0c3.212 0 4.953 1.517 4.953 2.565A1.514 1.514 0 0 1 69 3.837 4.73 4.73 0 0 0 65.145 1.9c-1.807 0-2.99.87-2.99 2.208 0 1.584 1.406 1.83 3.414 2.3 2.453.558 4.817 1.517 4.817 4.305 0 2.655-2.052 4.306-5.42 4.306-3.48 0-5.422-1.7-5.422-2.88a1.462 1.462 0 0 1 1.048-1.23zM76.656 2.342h-3.948c-.692 0-1.07-.357-1.07-.98V1.25c0-.625.378-.96 1.07-.96h10.217c.69 0 1.048.336 1.048.96v.11a.914.914 0 0 1-1.048.982h-3.95v11.422a.926.926 0 0 1-1.025 1.05h-.312c-.647 0-.982-.358-.982-1.05z"/></g></g></svg>