<svg xmlns="http://www.w3.org/2000/svg" viewBox="0 0 139.6 93.2" enable-background="new 0 0 139.6 93.2"><style type="text/css">.st0{fill:#FFFFFF;} .st1{fill:#1D4E9D;}</style><title>wifi</title><path class="st0" d="M125 79.1c-5 4.7-12 7.4-19.7 7.4h-71c-7.7 0-14.7-2.7-19.7-7.4s-8-10.9-8-17.9 3-13.3 8-18 12-7.5 19.7-7.5c1.3 0 2.7.1 4 .3l4 .5-.2-4.2c0-7 3-13.3 8-18s12-7.6 19.7-7.6 14.7 2.9 19.7 7.6 8 11 8 17.9v.2l-.2 4 4-.5c1.4-.2 2.7-.3 4-.3 7.7 0 14.7 2.9 19.7 7.6 5 4.7 8 10.9 8 17.9.1 7.1-3 13.3-8 18z"/><path class="st1" d="M129.5 38.2c-6.2-5.8-14.8-9.3-24.2-9.3-.5 0-.9 0-1.3.1-.8-7.7-4.5-14.5-10-19.6C87.8 3.6 79.3 0 69.8 0c-9.4 0-18 3.6-24.2 9.3-5.5 5.1-9.1 11.9-10 19.6-.4 0-.9-.1-1.3-.1-9.4 0-18 3.6-24.2 9.3C3.9 44 0 52.1 0 61.1s3.9 17 10.1 22.8c6.2 5.8 14.8 9.3 24.2 9.3h71c9.4 0 18-3.5 24.2-9.3s10.1-13.9 10.1-22.8c.1-9-3.8-17.1-10.1-22.9zM125 78.9c-5 4.7-12 7.4-19.7 7.4h-71c-7.7 0-14.7-2.7-19.7-7.4S6.6 68 6.6 61s3-13.3 8-18 12-7.5 19.7-7.5c1.3 0 2.7.1 4 .3l4 .5-.2-4.2c0-7 3-13.3 8-18s12-7.6 19.7-7.6 14.7 2.9 19.7 7.6 8 11 8 17.9v.2l-.2 4 4-.5c1.4-.2 2.7-.3 4-.3 7.7 0 14.7 2.9 19.7 7.6s8 10.9 8 17.9c.1 7.1-3 13.3-8 18z"/></svg>