<svg xmlns="http://www.w3.org/2000/svg" viewBox="0 0 197.131 96.447"><defs><style>.cls-1{fill:#339f75;}.cls-2{fill:#fff;}</style></defs><title>texteight</title><g id="Layer_2"><g id="Layer_1-2"><path class="cls-1" d="M0 75.42V0h197.13v75.47s-118.084-.027-162.81-.04a10.506 10.506 0 0 0-7.227 3.1L11.63 94.063a8.968 8.968 0 0 1-6.06 2.384 5.777 5.777 0 0 1-3.888-1.322A5.823 5.823 0 0 1 0 90.6z"/><path class="cls-2" d="M18.08 28.5a1.14 1.14 0 0 1 .96-.984 5.242 5.242 0 0 0 4.7 2.616c2.4 0 3.817-1.08 3.817-2.88 0-2.04-2.04-2.593-4.272-3.12-2.353-.553-4.776-1.32-4.776-4.417 0-2.448 2.23-4.272 5.207-4.272 3.217 0 5.137 1.68 5.137 2.688a1.138 1.138 0 0 1-.96.984 4.7 4.7 0 0 0-4.152-2.256c-2.16 0-3.648 1.128-3.648 2.81 0 1.99 1.632 2.4 3.984 2.95 2.472.577 5.088 1.49 5.088 4.562 0 2.64-2.136 4.368-5.4 4.368-3.454.004-5.686-1.916-5.686-3.048zM30.7 20.606v-.144c0-.408.168-.624.744-.624H32.5v-1.99c0-.577.288-.745.7-.745h.168c.408 0 .672.168.672.744v1.992h3.048c.576 0 .744.215.744.623v.144c0 .408-.168.624-.744.624H34.04v6.5c0 1.68.432 2.474 1.7 2.474a2.19 2.19 0 0 0 1.776-.84c.048-.05.528.167.528.768 0 .647-.84 1.416-2.353 1.416-2.23 0-3.19-1.272-3.19-3.648v-6.67h-1.052c-.576 0-.748-.215-.748-.624zM41.624 21.927a2.975 2.975 0 0 1 3.024-2.376c1.056 0 1.655.433 1.655 1.177 0 .576-.384.864-.432.816a1.983 1.983 0 0 0-1.39-.48c-2.042 0-2.834 2.137-2.834 5.064v4.488c0 .576-.288.744-.7.744h-.17c-.406 0-.7-.17-.7-.745v-10.7c0-.05.24-.168.528-.168.528 0 1.01.264 1.01 1.512zM47.432 25.6a5.745 5.745 0 0 1 5.76-6.05c3.217 0 5.33 2.28 5.33 5.762v.144c0 .433-.17.528-.648.528h-8.882a4.216 4.216 0 0 0 4.344 4.176 4.108 4.108 0 0 0 3.913-2.04.926.926 0 0 1 .91.89c0 .79-1.728 2.543-4.824 2.543a5.67 5.67 0 0 1-5.904-5.953zm1.608-.96h7.824c-.144-2.257-1.536-3.72-3.672-3.72a4.176 4.176 0 0 0-4.152 3.72zM60.224 28.335c0-2.664 2.665-3.768 7.945-3.888h.24v-.408c0-1.97-1.153-3.05-3.218-3.05a3.917 3.917 0 0 0-3.648 2.11.918.918 0 0 1-.888-.912c0-.815 1.632-2.64 4.656-2.64 2.9 0 4.633 1.68 4.633 4.44v7.2c0 .048-.24.168-.528.168-.528 0-.984-.264-.984-1.512v-.433a5.06 5.06 0 0 1-4.272 2.113c-2.496.004-3.936-1.267-3.936-3.188zm8.186-1.607V25.67l-.673.025c-3.912.144-5.928.84-5.928 2.64 0 1.152.935 1.9 2.5 1.9 2.346-.004 4.1-1.468 4.1-3.508zM74.6 21.543a4.378 4.378 0 0 1 3.6-1.992A3.787 3.787 0 0 1 81.992 22a4.588 4.588 0 0 1 4.057-2.448c2.88 0 4.415 1.656 4.415 4.824v6.24c0 .576-.288.744-.7.744H89.6c-.408 0-.7-.168-.7-.744V24.47c0-2.28-.983-3.455-2.952-3.455a3.928 3.928 0 0 0-3.408 2.3v7.3c0 .576-.288.744-.7.744h-.16c-.408 0-.7-.17-.7-.745V24.59c0-2.4-.984-3.575-2.953-3.575a3.928 3.928 0 0 0-3.408 2.3v7.3c0 .576-.29.744-.7.744h-.16c-.408 0-.7-.17-.7-.745v-10.7c0-.05.24-.168.527-.168.528 0 1.01.264 1.01 1.512zM92.336 34.048l1.44-4.3c.216-.553.335-.84.936-.84h.12a.744.744 0 0 1 .72.84v.1A1.9 1.9 0 0 1 95.168 31l-2.04 3.408c-.145.264-.985.144-.792-.36zM101.815 29.223a.932.932 0 0 1 .84-.84 4.578 4.578 0 0 0 3.912 1.848c1.9 0 2.952-.767 2.952-1.92 0-1.367-1.2-1.655-3.36-2.11-1.776-.385-4.01-.89-4.01-3.193 0-2.04 1.73-3.456 4.37-3.456 2.783 0 4.224 1.32 4.224 2.185 0 .6-.816.89-.864.816a3.874 3.874 0 0 0-3.36-1.68c-1.872 0-2.88.793-2.88 1.92 0 1.225 1.08 1.56 3.192 2.017 1.848.408 4.2.912 4.2 3.265 0 2.112-1.73 3.48-4.513 3.48-3.048 0-4.705-1.464-4.705-2.33zM115.135 21.663A4.432 4.432 0 0 1 119 19.55c3.024 0 4.537 2.017 4.537 5.04v6.025c0 .576-.288.744-.7.744h-.168c-.41 0-.7-.17-.7-.745v-5.928c0-2.3-1.153-3.673-3.073-3.673a3.618 3.618 0 0 0-3.77 3.912v5.688c0 .576-.287.744-.7.744h-.167c-.408 0-.7-.168-.7-.744V15.086c0-.048.24-.168.527-.168.528 0 1.032.265 1.032 1.513zM125.887 25.527a5.894 5.894 0 1 1 11.785.048 5.894 5.894 0 1 1-11.785-.048zm10.2.048a4.32 4.32 0 1 0-8.617-.048 4.388 4.388 0 0 0 4.32 4.656 4.342 4.342 0 0 0 4.298-4.608zM140.143 35.248V19.91c0-.048.24-.167.527-.167.528 0 1.01.264 1.01 1.512v.5a4.968 4.968 0 0 1 4.27-2.208c3.024 0 5.4 2.353 5.4 5.977 0 3.6-2.327 6.024-5.5 6.024a4.768 4.768 0 0 1-4.15-2.185v5.88c0 .577-.29.745-.7.745h-.17c-.398.004-.687-.164-.687-.74zm9.625-9.7c0-2.687-1.68-4.632-3.984-4.632a4.26 4.26 0 0 0-4.1 2.712v2.688a3.98 3.98 0 0 0 4.056 3.864c2.42.003 4.028-1.87 4.028-4.63zM152.55 34.048l1.44-4.3c.217-.553.336-.84.937-.84h.12a.744.744 0 0 1 .72.84v.1a1.9 1.9 0 0 1-.384 1.152l-2.04 3.408c-.143.264-.985.144-.792-.36zM17.936 54.223a.932.932 0 0 1 .84-.84 4.578 4.578 0 0 0 3.912 1.848c1.9 0 2.952-.767 2.952-1.92 0-1.367-1.2-1.655-3.36-2.11-1.775-.385-4.008-.89-4.008-3.193 0-2.04 1.73-3.456 4.368-3.456 2.784 0 4.225 1.32 4.225 2.185 0 .6-.816.89-.864.816a3.874 3.874 0 0 0-3.36-1.68c-1.87 0-2.88.793-2.88 1.92 0 1.225 1.08 1.56 3.193 2.017 1.848.408 4.2.912 4.2 3.265 0 2.112-1.73 3.48-4.513 3.48-3.047 0-4.704-1.464-4.704-2.33zM38.024 54.848v-.36a4.525 4.525 0 0 1-3.888 2.064c-3.024 0-4.537-2.017-4.537-5.04v-6.026c0-.575.287-.743.7-.743h.167c.408 0 .7.168.7.743v5.93c0 2.3 1.152 3.672 3.192 3.672A3.994 3.994 0 0 0 38 52.663v-7.177c0-.575.288-.743.7-.743h.168c.407 0 .7.168.7.743V56.19c0 .05-.24.17-.527.17-.54 0-1.016-.26-1.016-1.512zM44.312 46.927a2.975 2.975 0 0 1 3.024-2.376c1.056 0 1.655.433 1.655 1.177 0 .576-.383.864-.43.816a1.983 1.983 0 0 0-1.393-.48c-2.04 0-2.833 2.137-2.833 5.064v4.488c0 .576-.288.744-.7.744h-.168c-.408 0-.7-.17-.7-.745v-10.7c0-.05.24-.168.527-.168.528 0 1.01.264 1.01 1.512zM49.52 45.606v-.144c0-.408.168-.624.744-.624h1.68v-1.056c0-2.616 1.152-4.056 3.36-4.056 1.536 0 2.28.647 2.28 1.344 0 .552-.408.792-.456.744a2.772 2.772 0 0 0-1.824-.7c-1.3 0-1.848.84-1.848 2.736v.984h2.3c.576 0 .744.216.744.624v.144c0 .408-.168.624-.744.624H53.48v9.385c0 .577-.264.745-.672.745h-.168c-.408 0-.7-.168-.7-.744v-9.38h-1.68c-.572 0-.74-.215-.74-.624zM61.83 51.9c0-2.376 1.585-3.816 4.1-4.536a4.766 4.766 0 0 1-1.367-3.217 3.764 3.764 0 0 1 3.96-3.7 3.563 3.563 0 0 1 3.777 3.527c0 1.9-1.32 3.145-3.792 3.864l4.152 3.84A13 13 0 0 0 74 48.032c.192-.863.576-1.15 1.08-1.15a.643.643 0 0 1 .7.48 15.552 15.552 0 0 1-2.04 5.28l3.336 3.047c.072.072-.1.672-.888.672a1.54 1.54 0 0 1-1.2-.5l-2.14-2.02a7.352 7.352 0 0 1-5.592 2.712c-3.168 0-5.425-1.68-5.425-4.652zm10.01.983L66.824 48.3c-1.92.55-3.312 1.56-3.312 3.527 0 2.112 1.607 3.336 3.84 3.336a5.79 5.79 0 0 0 4.488-2.284zm-4.32-5.928c2.21-.624 3.265-1.488 3.265-2.952A2.177 2.177 0 0 0 68.5 41.79a2.21 2.21 0 0 0-2.353 2.328 3.9 3.9 0 0 0 1.372 2.833zM81.823 50.575c0-3.6 2.328-6.024 5.5-6.024a4.85 4.85 0 0 1 4.152 2.017v-6.48c0-.048.24-.168.527-.168.528 0 1.032.264 1.032 1.512v14.183c0 .576-.288.744-.7.744h-.168c-.407 0-.672-.17-.672-.745v-1.248a5 5 0 0 1-4.272 2.185c-3.022 0-5.4-2.352-5.4-5.977zm9.673.937v-2.9a4.156 4.156 0 0 0-4.056-2.688c-2.425 0-4.033 1.872-4.033 4.632 0 2.688 1.68 4.633 3.984 4.633a4.027 4.027 0 0 0 4.11-3.678zM95.478 50.527a5.894 5.894 0 1 1 11.785.048 5.894 5.894 0 1 1-11.785-.048zm10.2.048a4.32 4.32 0 1 0-8.617-.048 4.388 4.388 0 0 0 4.32 4.656 4.342 4.342 0 0 0 4.3-4.608zM111.463 55.807L108.7 45.2c-.024-.1.408-.455.912-.455.36 0 .768.264.936 1.1l2.09 8.977 2.447-7.7c.144-.456.384-.648 1.176-.648s1.033.192 1.177.648l2.425 7.7 2.063-8.977c.145-.84.576-1.1.937-1.1a1.028 1.028 0 0 1 .864.455l-2.736 10.61c-.1.407-.264.6-1.152.6-.792 0-.912-.192-1.056-.6l-2.52-7.825-2.593 7.824c-.146.407-.266.6-1.058.6-.885-.003-1.052-.194-1.15-.603zM127.447 46.64a4.487 4.487 0 0 1 3.888-2.09c3.024 0 4.537 2.017 4.537 5.04v6.025c0 .576-.288.744-.7.744h-.168c-.408 0-.7-.17-.7-.745v-5.928c0-2.28-1.128-3.673-3.072-3.673a4.038 4.038 0 0 0-3.77 2.425v7.175c0 .576-.287.744-.7.744h-.167c-.408 0-.7-.17-.7-.745v-10.7c0-.05.24-.168.527-.168.528 0 1.01.264 1.01 1.512zM139.11 55.615v-15.53c0-.047.24-.167.528-.167.528 0 1.032.265 1.032 1.513v14.185c0 .576-.288.744-.7.744h-.168c-.402 0-.69-.17-.69-.745zM143.238 50.527a5.894 5.894 0 1 1 11.785.048 5.894 5.894 0 1 1-11.785-.048zm10.2.048a4.32 4.32 0 1 0-8.617-.048 4.388 4.388 0 0 0 4.32 4.656 4.342 4.342 0 0 0 4.3-4.608zM156.774 53.335c0-2.664 2.665-3.768 7.945-3.888h.24v-.408c0-1.97-1.153-3.05-3.218-3.05a3.917 3.917 0 0 0-3.648 2.112.918.918 0 0 1-.888-.912c0-.815 1.632-2.64 4.656-2.64 2.9 0 4.633 1.68 4.633 4.44v7.2c0 .048-.24.168-.528.168-.528 0-.984-.264-.984-1.512v-.433a5.06 5.06 0 0 1-4.272 2.112c-2.495.002-3.936-1.27-3.936-3.19zm8.186-1.607V50.67l-.673.025c-3.912.144-5.928.84-5.928 2.64 0 1.152.935 1.9 2.5 1.9 2.347-.004 4.1-1.468 4.1-3.508zM168.847 50.575c0-3.6 2.328-6.024 5.5-6.024a4.85 4.85 0 0 1 4.152 2.017v-6.48c0-.048.238-.168.526-.168.528 0 1.032.264 1.032 1.512v14.183c0 .576-.288.744-.7.744h-.168c-.407 0-.672-.17-.672-.745v-1.248a5 5 0 0 1-4.272 2.185c-3.023 0-5.4-2.352-5.4-5.977zm9.673.937v-2.9a4.156 4.156 0 0 0-4.056-2.688c-2.425 0-4.033 1.872-4.033 4.632 0 2.688 1.682 4.633 3.985 4.633a4.027 4.027 0 0 0 4.104-3.678z"/></g></g></svg>