<?xml version="1.0" encoding="utf-8"?>
<!-- Generator: Adobe Illustrator 21.1.0, SVG Export Plug-In . SVG Version: 6.00 Build 0)  -->
<svg version="1.1" id="Layer_1" xmlns="http://www.w3.org/2000/svg" xmlns:xlink="http://www.w3.org/1999/xlink" x="0px" y="0px"
	 viewBox="0 0 147 9.7" style="enable-background:new 0 0 147 9.7;" xml:space="preserve">
<style type="text/css">
	.st0{fill:#E9505A;}
</style>
<title>rollover</title>
<g>
	<path class="st0" d="M-0.1,0.4L-0.1,0.4C-0.1,0.1,0,0,0.2,0h5.2c0.2,0,0.3,0.1,0.3,0.3v0.1c0,0.2-0.1,0.3-0.3,0.3H3.2v6.1
		c0,0.2-0.1,0.3-0.3,0.3H2.8C2.6,7.2,2.5,7,2.5,6.8V0.7H0.2C0,0.7-0.1,0.6-0.1,0.4z"/>
	<path class="st0" d="M6.3,5.1C6.3,4,7,3.4,8.2,3C7.8,2.6,7.6,2.2,7.6,1.6c0-0.9,0.7-1.7,1.8-1.7c1,0,1.7,0.7,1.7,1.6
		c0,0.9-0.6,1.4-1.7,1.8L11.3,5c0.3-0.5,0.5-1.1,0.6-1.7c0.1-0.4,0.3-0.5,0.5-0.5c0.2,0,0.3,0.2,0.3,0.2c-0.2,0.9-0.5,1.8-0.9,2.4
		l1.5,1.4c0,0,0,0.3-0.4,0.3c-0.1,0-0.3,0-0.6-0.2l-1-0.9c-0.7,0.8-1.6,1.2-2.6,1.2C7.4,7.2,6.3,6.5,6.3,5.1z M10.9,5.6L8.6,3.5
		C7.7,3.7,7.1,4.2,7.1,5.1c0,1,0.7,1.5,1.8,1.5C9.7,6.6,10.4,6.2,10.9,5.6z M8.9,2.8c1-0.3,1.5-0.7,1.5-1.4c0-0.6-0.4-1-1-1
		C8.7,0.5,8.3,1,8.3,1.5C8.3,2.1,8.5,2.4,8.9,2.8z"/>
	<path class="st0" d="M13.8,3.6c0-2.2,1.5-3.7,3.6-3.7c1.7,0,2.7,1,2.7,1.4c0,0.4-0.4,0.5-0.4,0.5c-0.5-0.8-1.4-1.2-2.2-1.2
		c-1.6,0-2.8,1.3-2.8,3c0,1.8,1.2,3,2.8,3c1.1,0,2-0.5,2.3-1.4c0,0,0.5,0.1,0.5,0.4c0,0.5-1,1.6-2.8,1.6C15.2,7.2,13.8,5.7,13.8,3.6
		z"/>
	<path class="st0" d="M20.8,6.2c0-0.3,0.4-0.4,0.4-0.4c0.4,0.5,0.9,0.8,1.8,0.8s1.4-0.4,1.4-0.9c0-0.6-0.6-0.8-1.5-1
		C22,4.6,21,4.4,21,3.3c0-0.9,0.8-1.6,2-1.6c1.3,0,1.9,0.6,1.9,1c0,0.3-0.4,0.4-0.4,0.4c-0.3-0.5-0.8-0.8-1.5-0.8
		c-0.9,0-1.3,0.4-1.3,0.9c0,0.6,0.5,0.7,1.5,0.9c0.8,0.2,1.9,0.4,1.9,1.5c0,1-0.8,1.6-2.1,1.6C21.6,7.2,20.8,6.6,20.8,6.2z"/>
	<path class="st0" d="M27.8,5.8C27.8,4.6,29,4,31.4,4h0.1V3.8c0-0.9-0.5-1.4-1.5-1.4c-0.8,0-1.4,0.4-1.7,1c0,0-0.4,0-0.4-0.4
		c0-0.4,0.7-1.2,2.1-1.2c1.3,0,2.1,0.8,2.1,2v3.3c0,0-0.1,0.1-0.2,0.1c-0.2,0-0.5-0.1-0.5-0.7V6.3c-0.4,0.6-1.1,1-2,1
		C28.4,7.2,27.8,6.7,27.8,5.8z M31.5,5V4.6l-0.3,0c-1.8,0.1-2.7,0.4-2.7,1.2c0,0.5,0.4,0.9,1.1,0.9C30.7,6.6,31.5,6,31.5,5z"/>
	<path class="st0" d="M33.6,8.9v-7c0,0,0.1-0.1,0.2-0.1c0.2,0,0.5,0.1,0.5,0.7v0.2c0.5-0.6,1.1-1,2-1c1.4,0,2.5,1.1,2.5,2.7
		c0,1.6-1.1,2.8-2.5,2.8c-0.9,0-1.6-0.5-1.9-1v2.7c0,0.3-0.1,0.3-0.3,0.3H34C33.8,9.3,33.6,9.2,33.6,8.9z M38.1,4.5
		c0-1.2-0.8-2.1-1.8-2.1c-0.9,0-1.6,0.5-1.9,1.2v1.2c0,1,0.9,1.8,1.9,1.8C37.3,6.6,38.1,5.8,38.1,4.5z"/>
	<path class="st0" d="M39.9,8.9v-7c0,0,0.1-0.1,0.2-0.1c0.2,0,0.5,0.1,0.5,0.7v0.2c0.5-0.6,1.1-1,2-1c1.4,0,2.5,1.1,2.5,2.7
		c0,1.6-1.1,2.8-2.5,2.8c-0.9,0-1.6-0.5-1.9-1v2.7c0,0.3-0.1,0.3-0.3,0.3h-0.1C40,9.3,39.9,9.2,39.9,8.9z M44.3,4.5
		c0-1.2-0.8-2.1-1.8-2.1c-0.9,0-1.6,0.5-1.9,1.2v1.2c0,1,0.9,1.8,1.9,1.8C43.6,6.6,44.3,5.8,44.3,4.5z"/>
	<path class="st0" d="M46.2,6.8v-7.1c0,0,0.1-0.1,0.2-0.1c0.2,0,0.5,0.1,0.5,0.7v6.5c0,0.3-0.1,0.3-0.3,0.3h-0.1
		C46.3,7.2,46.2,7.1,46.2,6.8z"/>
	<path class="st0" d="M49.4,9.1l0.9-2.2c-0.2,0-0.3-0.1-0.4-0.3L47.9,2c0,0,0.1-0.2,0.4-0.2s0.4,0.1,0.5,0.5l1.7,4.1l1.4-4.1
		C52,2,52.2,1.8,52.4,1.8c0.2,0,0.4,0.2,0.4,0.2l-2.5,6.8c-0.1,0.4-0.3,0.5-0.5,0.5C49.5,9.3,49.3,9.1,49.4,9.1z"/>
	<path class="st0" d="M53.5,6.7V6.6c0-0.3,0.2-0.5,0.5-0.5h0.1c0.3,0,0.5,0.2,0.5,0.5v0.1c0,0.3-0.2,0.5-0.5,0.5H54
		C53.7,7.2,53.5,7,53.5,6.7z"/>
	<path class="st0" d="M61.9,6.9l-2.3-2.8h-0.9v2.7c0,0.2-0.1,0.3-0.3,0.3h-0.1c-0.2,0-0.3-0.1-0.3-0.3V0.4c0-0.2,0.2-0.4,0.4-0.4h2
		c1.7,0,2.6,0.7,2.6,2.1c0,1.3-0.8,2-2.4,2.1l2.3,2.7c0,0.1-0.1,0.4-0.5,0.4C62.2,7.2,62,7.1,61.9,6.9z M58.7,3.5h1.7
		c1.2,0,1.7-0.6,1.7-1.4c0-0.9-0.6-1.4-1.8-1.4h-1.7V3.5z"/>
	<path class="st0" d="M63.7,4.5c0-1.6,1.1-2.7,2.7-2.7c1.6,0,2.7,1.2,2.7,2.8c0,1.6-1.1,2.7-2.7,2.7C64.8,7.2,63.7,6.1,63.7,4.5z
		 M68.4,4.5c0-1.2-0.8-2.1-2-2.1c-1.1,0-2,0.9-2,2.1c0,1.2,0.8,2.1,2,2.1C67.5,6.6,68.4,5.7,68.4,4.5z"/>
	<path class="st0" d="M70.3,6.8v-7.1c0,0,0.1-0.1,0.2-0.1c0.2,0,0.5,0.1,0.5,0.7v6.5c0,0.3-0.1,0.3-0.3,0.3h-0.1
		C70.4,7.2,70.3,7.1,70.3,6.8z"/>
	<path class="st0" d="M72.6,6.8v-7.1c0,0,0.1-0.1,0.2-0.1c0.2,0,0.5,0.1,0.5,0.7v6.5c0,0.3-0.1,0.3-0.3,0.3h-0.1
		C72.7,7.2,72.6,7.1,72.6,6.8z"/>
	<path class="st0" d="M76.4,4.5c0-1.6,1.1-2.7,2.7-2.7c1.6,0,2.7,1.2,2.7,2.8c0,1.6-1.1,2.7-2.7,2.7C77.5,7.2,76.4,6.1,76.4,4.5z
		 M81,4.5c0-1.2-0.8-2.1-2-2.1s-2,0.9-2,2.1c0,1.2,0.8,2.1,2,2.1C80.2,6.6,81,5.7,81,4.5z"/>
	<path class="st0" d="M86.3,2.4c0.2-0.4,0.3-0.5,0.5-0.5c0.3,0,0.4,0.2,0.4,0.2l-1.9,4.9c-0.1,0.2-0.2,0.3-0.5,0.3
		c-0.4,0-0.4-0.1-0.5-0.3L82.3,2c0,0,0.1-0.2,0.4-0.2s0.4,0.1,0.5,0.5l1.5,4.1L86.3,2.4z"/>
	<path class="st0" d="M87.7,4.5c0-1.6,1.1-2.8,2.6-2.8c1.5,0,2.4,1,2.4,2.6v0.1c0,0.2-0.1,0.2-0.3,0.2h-4.1c0.1,1.1,0.9,1.9,2,1.9
		c1,0,1.5-0.4,1.8-0.9c0,0,0.4,0.1,0.4,0.4c0,0.4-0.8,1.2-2.2,1.2C88.8,7.2,87.7,6.1,87.7,4.5z M88.5,4.1h3.6
		c-0.1-1-0.7-1.7-1.7-1.7C89.4,2.4,88.6,3.1,88.5,4.1z"/>
	<path class="st0" d="M94.6,2.8c0.2-0.7,0.7-1.1,1.4-1.1c0.5,0,0.8,0.2,0.8,0.5c0,0.3-0.2,0.4-0.2,0.4c-0.2-0.1-0.3-0.2-0.6-0.2
		c-0.9,0-1.3,1-1.3,2.3v2.1c0,0.3-0.1,0.3-0.3,0.3h-0.1c-0.2,0-0.3-0.1-0.3-0.3V1.9c0,0,0.1-0.1,0.2-0.1c0.2,0,0.5,0.1,0.5,0.7V2.8z
		"/>
	<path class="st0" d="M98.9,2.2L98.9,2.2c0-0.3,0.1-0.4,0.3-0.4h0.8V1.4c0-1.2,0.5-1.9,1.5-1.9c0.7,0,1,0.3,1,0.6
		c0,0.3-0.2,0.4-0.2,0.3c-0.2-0.2-0.5-0.3-0.8-0.3c-0.6,0-0.8,0.4-0.8,1.3v0.5h1.1c0.3,0,0.3,0.1,0.3,0.3v0.1c0,0.2-0.1,0.3-0.3,0.3
		h-1v4.3c0,0.3-0.1,0.3-0.3,0.3h-0.1c-0.2,0-0.3-0.1-0.3-0.3V2.5h-0.8C99,2.5,98.9,2.4,98.9,2.2z"/>
	<path class="st0" d="M102.8,4.5c0-1.6,1.1-2.7,2.7-2.7c1.6,0,2.7,1.2,2.7,2.8c0,1.6-1.1,2.7-2.7,2.7C103.9,7.2,102.8,6.1,102.8,4.5
		z M107.5,4.5c0-1.2-0.8-2.1-2-2.1c-1.1,0-2,0.9-2,2.1c0,1.2,0.8,2.1,2,2.1C106.6,6.6,107.5,5.7,107.5,4.5z"/>
	<path class="st0" d="M110,2.8c0.2-0.7,0.7-1.1,1.4-1.1c0.5,0,0.8,0.2,0.8,0.5c0,0.3-0.2,0.4-0.2,0.4c-0.2-0.1-0.3-0.2-0.6-0.2
		c-0.9,0-1.3,1-1.3,2.3v2.1c0,0.3-0.1,0.3-0.3,0.3h-0.1c-0.2,0-0.3-0.1-0.3-0.3V1.9c0,0,0.1-0.1,0.2-0.1c0.2,0,0.5,0.1,0.5,0.7V2.8z
		"/>
	<path class="st0" d="M114.6,4.5c0-1.7,1.1-2.8,2.5-2.8c0.9,0,1.6,0.4,1.9,0.9v-3c0,0,0.1-0.1,0.2-0.1c0.2,0,0.5,0.1,0.5,0.7v6.5
		c0,0.3-0.1,0.3-0.3,0.3h-0.1c-0.2,0-0.3-0.1-0.3-0.3V6.2c-0.5,0.6-1.1,1-2,1C115.7,7.2,114.6,6.2,114.6,4.5z M119,4.9V3.6
		c-0.3-0.8-0.9-1.2-1.9-1.2c-1.1,0-1.8,0.9-1.8,2.1c0,1.2,0.8,2.1,1.8,2.1C118.1,6.6,119,5.9,119,4.9z"/>
	<path class="st0" d="M120.8,4.5c0-1.6,1.1-2.8,2.6-2.8c1.5,0,2.4,1,2.4,2.6v0.1c0,0.2-0.1,0.2-0.3,0.2h-4.1c0.1,1.1,0.9,1.9,2,1.9
		c1,0,1.5-0.4,1.8-0.9c0,0,0.4,0.1,0.4,0.4c0,0.4-0.8,1.2-2.2,1.2C121.9,7.2,120.8,6.1,120.8,4.5z M121.6,4.1h3.6
		c-0.1-1-0.7-1.7-1.7-1.7C122.5,2.4,121.7,3.1,121.6,4.1z"/>
	<path class="st0" d="M126.5,2.2L126.5,2.2c0-0.3,0.1-0.4,0.3-0.4h0.5V1c0-0.3,0.1-0.3,0.3-0.3h0.1c0.2,0,0.3,0.1,0.3,0.3v0.9h1.4
		c0.3,0,0.3,0.1,0.3,0.3v0.1c0,0.2-0.1,0.3-0.3,0.3h-1.4v3c0,0.8,0.2,1.1,0.8,1.1c0.4,0,0.6-0.2,0.8-0.4c0,0,0.2,0.1,0.2,0.4
		c0,0.3-0.4,0.6-1.1,0.6c-1,0-1.5-0.6-1.5-1.7V2.5h-0.5C126.6,2.5,126.5,2.4,126.5,2.2z"/>
	<path class="st0" d="M130.5,5.8c0-1.2,1.2-1.7,3.6-1.8h0.1V3.8c0-0.9-0.5-1.4-1.5-1.4c-0.8,0-1.4,0.4-1.7,1c0,0-0.4,0-0.4-0.4
		c0-0.4,0.7-1.2,2.1-1.2c1.3,0,2.1,0.8,2.1,2v3.3c0,0-0.1,0.1-0.2,0.1c-0.2,0-0.5-0.1-0.5-0.7V6.3c-0.4,0.6-1.1,1-2,1
		C131.2,7.2,130.5,6.7,130.5,5.8z M134.2,5V4.6l-0.3,0c-1.8,0.1-2.7,0.4-2.7,1.2c0,0.5,0.4,0.9,1.1,0.9C133.4,6.6,134.2,6,134.2,5z"
		/>
	<path class="st0" d="M136.3,0.1c0-0.3,0.2-0.5,0.5-0.5c0.3,0,0.5,0.2,0.5,0.5c0,0.3-0.2,0.5-0.5,0.5C136.5,0.6,136.3,0.4,136.3,0.1
		z M136.4,6.8V2.2c0-0.3,0.1-0.3,0.3-0.3h0.1c0.2,0,0.3,0.1,0.3,0.3v4.6c0,0.3-0.1,0.3-0.3,0.3h-0.1C136.6,7.2,136.4,7.1,136.4,6.8z
		"/>
	<path class="st0" d="M138.7,6.8v-7.1c0,0,0.1-0.1,0.2-0.1c0.2,0,0.5,0.1,0.5,0.7v6.5c0,0.3-0.1,0.3-0.3,0.3h-0.1
		C138.9,7.2,138.7,7.1,138.7,6.8z"/>
	<path class="st0" d="M140.6,6.2c0-0.3,0.4-0.4,0.4-0.4c0.4,0.5,0.9,0.8,1.8,0.8s1.4-0.4,1.4-0.9c0-0.6-0.5-0.8-1.5-1
		c-0.8-0.2-1.8-0.4-1.8-1.5c0-0.9,0.8-1.6,2-1.6c1.3,0,1.9,0.6,1.9,1c0,0.3-0.4,0.4-0.4,0.4c-0.3-0.5-0.8-0.8-1.5-0.8
		c-0.9,0-1.3,0.4-1.3,0.9c0,0.6,0.5,0.7,1.5,0.9c0.8,0.2,1.9,0.4,1.9,1.5c0,1-0.8,1.6-2.1,1.6C141.3,7.2,140.6,6.6,140.6,6.2z"/>
	<path class="st0" d="M145.8,6.7V6.6c0-0.3,0.2-0.5,0.5-0.5h0.1c0.3,0,0.5,0.2,0.5,0.5v0.1c0,0.3-0.2,0.5-0.5,0.5h-0.1
		C146,7.2,145.8,7,145.8,6.7z"/>
</g>
</svg>
