<svg xmlns="http://www.w3.org/2000/svg" viewBox="0 0 173.015 134.27"><defs><style>.cls-1{fill:#1d4e99;}.cls-2{fill:#fff;}</style></defs><title>textnine</title><g id="Layer_2"><g id="Layer_1-2"><path class="cls-1" d="M0 0h173.015v128.422a5.208 5.208 0 0 1-5.57 5.85 8.968 8.968 0 0 1-6.06-2.385l-15.462-15.53a10.507 10.507 0 0 0-7.195-3.1L0 113.308z"/><path class="cls-2" d="M32.99 24.437a1.082 1.082 0 0 1 .91-.937 4.97 4.97 0 0 0 4.457 2.48c2.273 0 3.614-1.024 3.614-2.73 0-1.933-1.932-2.455-4.046-2.955-2.224-.52-4.524-1.246-4.524-4.18 0-2.318 2.114-4.046 4.934-4.046 3.047 0 4.865 1.59 4.865 2.545a1.08 1.08 0 0 1-.91.933 4.452 4.452 0 0 0-3.933-2.138c-2.047 0-3.456 1.07-3.456 2.66 0 1.888 1.547 2.274 3.774 2.8 2.342.546 4.82 1.41 4.82 4.32 0 2.5-2.023 4.138-5.115 4.138-3.28-.003-5.39-1.822-5.39-2.89zM45.292 24.278c0-2.523 2.523-3.57 7.525-3.684h.228v-.386c0-1.864-1.09-2.888-3.047-2.888a3.708 3.708 0 0 0-3.455 2 .872.872 0 0 1-.842-.864c0-.773 1.547-2.5 4.412-2.5 2.75 0 4.388 1.592 4.388 4.206v6.82c0 .046-.228.16-.5.16-.5 0-.933-.25-.933-1.433v-.41a4.793 4.793 0 0 1-4.047 2c-2.364 0-3.728-1.2-3.728-3.022zm7.753-1.523v-1l-.637.022c-3.706.137-5.615.8-5.615 2.5 0 1.09.887 1.8 2.364 1.8 2.23-.003 3.888-1.39 3.888-3.322zM64.55 17.23c.343-.887.615-1.092 1.07-1.092.522 0 .75.364.728.433l-3.98 10.03c-.16.386-.318.59-1.068.59-.772 0-.84-.158-1-.545L56.275 16.57c-.022-.09.205-.432.728-.432s.773.205 1.114 1.092l3.183 8.5zM67.486 21.686a5.44 5.44 0 0 1 5.456-5.73c3.047 0 5.048 2.16 5.048 5.457v.137c0 .41-.16.5-.614.5h-8.412a3.994 3.994 0 0 0 4.115 3.956 3.89 3.89 0 0 0 3.705-1.933.877.877 0 0 1 .863.842c0 .75-1.637 2.41-4.57 2.41a5.37 5.37 0 0 1-5.592-5.64zm1.522-.91h7.412a3.405 3.405 0 0 0-3.48-3.523 3.956 3.956 0 0 0-3.93 3.524zM92.043 25.71v-.34a4.287 4.287 0 0 1-3.683 1.955c-2.865 0-4.3-1.91-4.3-4.774v-5.706c0-.546.273-.705.66-.705h.16c.385 0 .658.158.658.704v5.615c0 2.182 1.09 3.478 3.023 3.478a3.783 3.783 0 0 0 3.457-2.3v-6.8c0-.546.272-.705.66-.705h.158c.387 0 .66.16.66.705v10.14c0 .046-.23.16-.5.16-.495.004-.952-.246-.952-1.427zM96.547 30.826V16.3c0-.045.228-.16.5-.16.5 0 .955.25.955 1.434v.478a4.705 4.705 0 0 1 4.047-2.092c2.864 0 5.114 2.23 5.114 5.66 0 3.41-2.205 5.708-5.206 5.708a4.517 4.517 0 0 1-3.934-2.07v5.57c0 .547-.272.706-.66.706h-.158c-.387-.003-.66-.162-.66-.708zm9.117-9.186c0-2.546-1.592-4.388-3.774-4.388a4.037 4.037 0 0 0-3.89 2.57v2.546a3.772 3.772 0 0 0 3.843 3.66c2.298 0 3.82-1.772 3.82-4.387zM112.328 16.957v-.136c0-.386.16-.59.705-.59h1v-1.887c0-.546.272-.705.66-.705h.158c.388 0 .638.16.638.705v1.887h2.888c.546 0 .7.205.7.592v.136c0 .387-.158.592-.7.592h-2.888v6.16c0 1.592.41 2.342 1.614 2.342a2.073 2.073 0 0 0 1.683-.8c.045-.046.5.16.5.728 0 .614-.8 1.342-2.23 1.342-2.113 0-3.022-1.205-3.022-3.456v-6.32h-1c-.546.003-.705-.202-.705-.59zM120.49 21.618a5.583 5.583 0 1 1 11.164.046 5.583 5.583 0 1 1-11.163-.046zm9.664.046a4.092 4.092 0 1 0-8.162-.046 4.156 4.156 0 0 0 4.092 4.41 4.113 4.113 0 0 0 4.07-4.364zM23.19 88.106c.226-.584.405-.72.705-.72.346 0 .5.24.48.286l-2.625 6.614c-.105.255-.21.39-.705.39s-.555-.105-.66-.36l-2.654-6.644c-.015-.06.136-.285.48-.285s.51.135.735.72l2.1 5.61zM25.065 93.31a.583.583 0 0 1 .525-.523 2.86 2.86 0 0 0 2.445 1.155c1.185 0 1.845-.48 1.845-1.2 0-.854-.75-1.035-2.1-1.32-1.11-.24-2.5-.555-2.5-2 0-1.274 1.08-2.16 2.73-2.16 1.74 0 2.64.826 2.64 1.365 0 .375-.51.555-.54.51a2.423 2.423 0 0 0-2.1-1.05c-1.17 0-1.8.495-1.8 1.2 0 .767.675.976 1.994 1.26 1.155.257 2.625.57 2.625 2.04 0 1.32-1.08 2.176-2.82 2.176-1.91.004-2.945-.91-2.945-1.452zM35.115 94.017v-8.565a.57.57 0 0 1 .57-.57h3.1c2.056 0 3.165.9 3.165 2.55a2.154 2.154 0 0 1-1.68 2.116 2.346 2.346 0 0 1 2.1 2.354c0 1.77-1.125 2.686-3.494 2.686h-3.2a.57.57 0 0 1-.56-.57zm3.72-4.8c1.245 0 2.07-.69 2.07-1.74 0-1.11-.705-1.68-2.115-1.68h-2.654v3.42zm.03 4.454c1.74 0 2.46-.523 2.46-1.814 0-1.154-.81-1.74-2.4-1.74h-2.79v3.556zM43.365 85.392v-.074c0-.285.165-.436.466-.436h7.11c.3 0 .465.15.465.436v.074c0 .27-.165.42-.465.42H47.9v8.37c0 .315-.15.466-.45.466h-.14c-.285 0-.436-.15-.436-.465v-8.37H43.83c-.3 0-.465-.15-.465-.42zM54.84 91a3.683 3.683 0 1 1 3.69 3.765A3.59 3.59 0 0 1 54.84 91zm6.375.03a2.7 2.7 0 1 0-2.685 2.88 2.73 2.73 0 0 0 2.685-2.878zM68.43 88.106c.226-.584.405-.72.705-.72.346 0 .5.24.48.286l-2.625 6.615c-.105.255-.21.39-.705.39s-.555-.105-.66-.36l-2.654-6.644c-.015-.06.136-.285.48-.285s.51.135.735.72l2.1 5.61zM70.365 91.047a3.59 3.59 0 0 1 3.6-3.78 3.267 3.267 0 0 1 3.33 3.6v.09c0 .27-.105.33-.405.33h-5.55a2.636 2.636 0 0 0 2.715 2.61 2.566 2.566 0 0 0 2.445-1.275.577.577 0 0 1 .57.555c0 .5-1.08 1.59-3.016 1.59a3.543 3.543 0 0 1-3.69-3.72zm1-.6h4.89a2.246 2.246 0 0 0-2.295-2.325 2.61 2.61 0 0 0-2.59 2.325zM79.77 88.752a1.86 1.86 0 0 1 1.89-1.485c.66 0 1.034.27 1.034.735 0 .36-.24.54-.27.51a1.237 1.237 0 0 0-.87-.3c-1.274 0-1.77 1.337-1.77 3.166v2.806c0 .36-.18.465-.436.465h-.1c-.255 0-.436-.106-.436-.466v-6.69c0-.03.15-.1.33-.1.33 0 .63.164.63.944zM87.045 93.657h5.294c.314 0 .48.15.48.42v.074c0 .286-.166.437-.48.437H86.7a.576.576 0 0 1-.645-.615v-.3c0-2.1 1.484-2.97 3-3.735 1.32-.674 2.564-1.23 2.564-2.444 0-1.155-.855-1.86-2.25-1.86a2.49 2.49 0 0 0-2.58 2 .558.558 0 0 1-.69-.54c0-.84 1.125-2.4 3.345-2.4 1.965 0 3.18 1.078 3.18 2.818 0 1.7-1.41 2.416-2.925 3.15-1.41.69-2.654 1.35-2.654 2.836zM98.82 94.183v-2.356h-4.276c-.45 0-.72-.24-.72-.54v-.3a1.32 1.32 0 0 1 .42-.825l3.856-4.755c.345-.436.465-.585.914-.585.6 0 .8.226.8.66V90.9h1.32c.3 0 .464.15.464.435v.075c0 .27-.165.42-.465.42H99.81v2.355c0 .314-.137.465-.437.465h-.135a.45.45 0 0 1-.42-.467zm-4.08-3.27h4.11v-5.1zM106.454 88.513a2.737 2.737 0 0 1 2.25-1.246 2.367 2.367 0 0 1 2.37 1.53 2.866 2.866 0 0 1 2.534-1.53c1.8 0 2.76 1.035 2.76 3.016v3.9c0 .36-.18.465-.435.465h-.105c-.255 0-.435-.105-.435-.465v-3.84c0-1.426-.615-2.16-1.845-2.16a2.453 2.453 0 0 0-2.13 1.44v4.56c0 .36-.18.465-.436.465h-.1c-.255 0-.436-.105-.436-.465v-3.766c0-1.5-.614-2.234-1.845-2.234a2.453 2.453 0 0 0-2.13 1.44v4.56c0 .36-.18.465-.434.465h-.105c-.254 0-.434-.105-.434-.465v-6.69c0-.03.15-.1.33-.1.33 0 .63.164.63.944zM117.84 91a3.683 3.683 0 1 1 3.688 3.765 3.59 3.59 0 0 1-3.69-3.765zm6.374.03a2.7 2.7 0 1 0-2.686 2.88 2.73 2.73 0 0 0 2.686-2.878zM127.71 88.572a2.8 2.8 0 0 1 2.43-1.306c1.89 0 2.834 1.26 2.834 3.15v3.766c0 .36-.18.465-.435.465h-.106c-.255 0-.435-.105-.435-.465v-3.705c0-1.426-.706-2.295-1.92-2.295a2.524 2.524 0 0 0-2.356 1.515v4.485c0 .36-.18.465-.435.465h-.106c-.255 0-.435-.105-.435-.465v-6.69c0-.03.148-.1.33-.1.33 0 .63.164.63.944zM134.25 87.927v-.09c0-.255.1-.39.464-.39h.66V86.2c0-.36.18-.465.435-.465h.104c.255 0 .42.105.42.465v1.245h1.9c.36 0 .465.135.465.39v.09c0 .256-.1.39-.466.39h-1.9v4.065c0 1.05.27 1.545 1.064 1.545a1.367 1.367 0 0 0 1.11-.525c.03-.03.33.105.33.48 0 .405-.525.885-1.47.885-1.396 0-1.995-.795-1.995-2.28v-4.17h-.66c-.36.002-.464-.132-.464-.388zM141.09 88.587a2.772 2.772 0 0 1 2.414-1.32c1.89 0 2.834 1.26 2.834 3.15v3.766c0 .36-.18.465-.435.465h-.1c-.256 0-.436-.105-.436-.465v-3.706c0-1.44-.72-2.295-1.92-2.295a2.26 2.26 0 0 0-2.354 2.444v3.556c0 .36-.18.465-.436.465h-.1c-.255 0-.436-.105-.436-.465v-9.705c0-.03.15-.105.33-.105.33 0 .647.165.647.945zM147.748 93.31a.583.583 0 0 1 .525-.523 2.86 2.86 0 0 0 2.445 1.155c1.185 0 1.845-.48 1.845-1.2 0-.854-.75-1.035-2.1-1.32-1.11-.24-2.5-.555-2.5-2 0-1.274 1.08-2.16 2.73-2.16 1.74 0 2.64.826 2.64 1.365 0 .375-.51.555-.54.51a2.423 2.423 0 0 0-2.1-1.05c-1.17 0-1.8.495-1.8 1.2 0 .767.675.976 1.994 1.26 1.155.257 2.625.57 2.625 2.04 0 1.32-1.08 2.176-2.82 2.176-1.91.004-2.944-.91-2.944-1.452zM19.293 58.448v-.417c0-1.13.655-1.606 1.846-1.606h5.36l1.667-9.112c1.25-6.85 4.824-10.9 11.375-10.9 6.73 0 9.768 4.586 9.768 7.623a2.21 2.21 0 0 1-2.74 2.144c-.833-3.93-3.156-6.313-7.027-6.313-4.585 0-6.49 2.44-7.444 7.683l-1.608 8.874h9.886c1.19 0 1.847.477 1.847 1.607v.418c0 1.072-.655 1.55-1.847 1.55H29.834l-2.2 11.97h19.054c1.19 0 1.846.6 1.846 1.727v.3c0 1.072-.655 1.668-1.846 1.668H20.306c-1.19 0-1.847-.536-1.847-1.668v-.357c0-1.07.654-1.667 1.846-1.667h3.335L25.845 60H21.14c-1.192 0-1.847-.48-1.847-1.552zM73.31 74.052V64.7H56.336c-1.787 0-2.858-.953-2.858-2.145v-1.19c0-1.13.594-1.964 1.666-3.274L70.45 39.213c1.37-1.727 1.848-2.322 3.634-2.322 2.383 0 3.156.894 3.156 2.62v21.5h5.24c1.192 0 1.848.595 1.848 1.727v.3c0 1.072-.655 1.668-1.847 1.668h-5.24v9.35c0 1.25-.535 1.847-1.727 1.847h-.536a1.785 1.785 0 0 1-1.668-1.85zM57.11 61.07h16.32V40.82zM88.2 65.595c0-4.466 2.74-8.1 7.86-9.767-4.585-1.49-6.73-4.646-6.73-8.814 0-6.253 5.242-10.6 13.342-10.6 8.278 0 13.22 4.11 13.22 10.48 0 4.11-2.262 7.386-6.728 8.875 5.24 1.607 7.86 5.24 7.86 9.766 0 6.254-5.835 10.84-14.41 10.84-8.877 0-14.414-4.35-14.414-10.78zm24.774-.238c0-4.645-3.812-7.742-10.362-7.742-6.67 0-10.362 3.038-10.362 7.742 0 4.407 3.812 7.563 10.422 7.563 6.847 0 10.302-2.86 10.302-7.564zm-1.132-18.224c0-4.348-3.275-7.325-9.23-7.325-6.194 0-9.23 2.8-9.23 7.325 0 4.17 3.394 6.968 9.29 6.968 5.954 0 9.17-2.62 9.17-6.967zM141.8 74.052V64.7h-16.975c-1.787 0-2.858-.953-2.858-2.145v-1.19c0-1.13.595-1.964 1.667-3.274l15.306-18.878c1.37-1.727 1.847-2.322 3.633-2.322 2.383 0 3.156.894 3.156 2.62v21.5h5.24c1.19 0 1.847.595 1.847 1.727v.3c0 1.072-.655 1.668-1.847 1.668h-5.24v9.35c0 1.25-.536 1.847-1.728 1.847h-.536a1.785 1.785 0 0 1-1.666-1.85zM125.6 61.07h16.317V40.82z"/></g></g></svg>