<svg xmlns="http://www.w3.org/2000/svg" viewBox="0 0 84.153 13.73"><defs><style>.cls-1{fill:#e52639;}</style></defs><title>textone</title><g id="Layer_2"><g id="Layer_1-2"><path class="cls-1" d="M0 1.45A1.088 1.088 0 0 1 1.122.265h4.345c2.876 0 4.448 1.2 4.448 3.427A2.84 2.84 0 0 1 7.59 6.528a3.23 3.23 0 0 1 2.855 3.244c0 2.468-1.57 3.692-5.02 3.692h-4.3A1.088 1.088 0 0 1 0 12.282zm5.2 4.57c1.55 0 2.53-.817 2.53-2.082 0-1.306-.857-1.98-2.57-1.98H2.08v4.06zm.082 5.752c2.122 0 3-.632 3-2.163q0-2.082-2.937-2.082H2.08v4.243zM12.6 1.45A1.088 1.088 0 0 1 13.727.265h3.753c3.223 0 4.937 1.346 4.937 3.958 0 2.244-1.387 3.672-3.937 3.876l3.856 4.59c.1.123-.347.857-1.224.857a1.6 1.6 0 0 1-1.367-.816l-3.61-4.43h-1.45v4.284a.86.86 0 0 1-.917.96h-.285c-.57 0-.877-.39-.877-1.082zm4.835 5.2c1.938 0 2.856-.9 2.856-2.327C20.3 2.795 19.317 2 17.38 2h-2.713v4.65zM24.8 1.143c0-.632.306-.96.9-.96h.286c.612 0 .918.328.918.96v11.444c0 .633-.306.96-.918.96H25.7c-.59 0-.9-.327-.9-.96zM33.49 2.142h-3.61c-.633 0-.98-.326-.98-.9v-.1c0-.57.347-.877.98-.877h9.343c.632 0 .96.306.96.877v.1a.836.836 0 0 1-.96.9h-3.61v10.445a.847.847 0 0 1-.94.96h-.285c-.592 0-.9-.327-.9-.96zM43.422.816c.163-.43.49-.673 1.448-.673.98 0 1.286.245 1.45.673l4.732 12.118c.06.163-.53.632-1.163.632a1.294 1.294 0 0 1-1.245-.98l-1.163-3H42.2l-1.163 3.02a1.213 1.213 0 0 1-1.163.96c-.612 0-1.2-.45-1.143-.633zm3.53 7.084L44.83 2.306 42.708 7.9zM52.905 1.143c0-.632.306-.96.9-.96h.286c.613 0 .92.328.92.96v11.444c0 .633-.307.96-.92.96h-.29c-.59 0-.9-.327-.9-.96zM57.6 1.367c0-.714.347-1.184 1-1.184h.347c.633 0 .877.266 1.265.8l6.528 9.262v-9.1c0-.632.265-.96.877-.96h.245c.57 0 .857.328.857.96v11.218c0 .734-.368 1.183-.98 1.183h-.163a1.123 1.123 0 0 1-1.122-.632l-6.88-9.73v9.4c0 .632-.286.958-.9.958h-.224c-.59 0-.856-.326-.856-.96zM71.036 1.122A1 1 0 0 1 72.138 0h.262a1.008 1.008 0 0 1 1.122 1.122v.245a1.993 1.993 0 0 1-.306 1.183l-1.323 2.224c-.062.082-.184.2-.55.2-.348 0-.532-.163-.47-.388l.714-2.06c-.367-.1-.55-.49-.55-1.184zM75.2 9.976A4.787 4.787 0 0 0 79.175 12c1.836 0 2.876-.755 2.876-2.06 0-1.49-1.55-1.837-3.3-2.245-2.04-.47-4.16-1.183-4.16-3.856C74.583 1.59 76.522 0 79.337 0c2.938 0 4.53 1.387 4.53 2.346a1.386 1.386 0 0 1-.98 1.163 4.324 4.324 0 0 0-3.53-1.776c-1.65 0-2.733.8-2.733 2.02 0 1.45 1.286 1.673 3.122 2.1 2.244.51 4.407 1.387 4.407 3.937 0 2.43-1.877 3.94-4.958 3.94-3.183 0-4.958-1.55-4.958-2.633a1.336 1.336 0 0 1 .962-1.12z"/></g></g></svg>