<svg xmlns="http://www.w3.org/2000/svg" viewBox="0 0 84.006 22.325"><defs><style>.cls-1{fill:#e52639;}</style></defs><title>textthree</title><g id="Layer_2"><g id="Layer_1-2"><path class="cls-1" d="M0 2.355A1.77 1.77 0 0 1 1.824.43h5.54c5.308 0 8.326 2.423 8.326 6.835 0 4.51-2.92 6.9-8.46 6.9H3.418v6.3a1.4 1.4 0 0 1-1.493 1.56h-.5C.5 22.026 0 21.5 0 20.467zm7.3 9.056c3.284 0 4.976-1.426 4.976-4.08 0-2.687-1.692-4.08-4.943-4.08h-3.95v8.16zM18.88 2.355A1.77 1.77 0 0 1 20.7.43h6.1c5.24 0 8.028 2.19 8.028 6.437 0 3.65-2.256 5.97-6.4 6.3l6.27 7.464c.166.2-.564 1.395-1.99 1.395a2.6 2.6 0 0 1-2.22-1.325l-5.87-7.2H22.26v6.966a1.4 1.4 0 0 1-1.493 1.56h-.465c-.93 0-1.426-.63-1.426-1.76zm7.86 8.46c3.152 0 4.645-1.46 4.645-3.783 0-2.488-1.592-3.782-4.744-3.782h-4.41v7.563zM38.72 1.858C38.72.83 39.217.3 40.18.3h.463c1 0 1.493.53 1.493 1.56v18.61c0 1.027-.5 1.558-1.493 1.558h-.464c-.963 0-1.46-.53-1.46-1.56zM56.27 0c5.374 0 8.094 3.052 8.094 4.545a2 2 0 0 1-1.99 1.855A6.934 6.934 0 0 0 56.3 3.085c-4.346 0-7.4 3.284-7.4 8.06 0 4.745 3.15 8.095 7.464 8.095 2.886 0 5.308-1.426 6.2-3.75.066-.165 2.123.233 2.123 1.826s-2.82 5.01-8.525 5.01c-6.37 0-10.814-4.58-10.814-11.114C45.355 4.644 49.834 0 56.27 0zM67.984 2.355A1.77 1.77 0 0 1 69.808.43h12.44c1.062 0 1.592.532 1.592 1.428v.2c0 .93-.53 1.427-1.592 1.427H71.4v6h8.393c1.095 0 1.592.464 1.592 1.36v.1c0 .93-.53 1.426-1.592 1.426H71.4v6.5h11.047c1.062 0 1.56.465 1.56 1.36v.17c0 .962-.5 1.493-1.56 1.493h-12.64A1.742 1.742 0 0 1 67.985 20z"/></g></g></svg>