<svg xmlns="http://www.w3.org/2000/svg" viewBox="0 0 140.3 87.3" enable-background="new 0 0 140.3 87.3"><style type="text/css">.st0{fill:#E5505A;} .st1{fill:#FFFFFF;}</style><title>logo</title><path class="st0" d="M130 84.5c-.2-.1-.3-.1-.5-.2-.7-.3-1.4-.6-2-.9-5-2.3-9.8-5.4-13.9-9.2-2-1.9-4.1-4-6.3-6.2L52.9 16C46.3 9.8 37.2.2 20.7.2 8.8.2.6 8.2.6 20.6l.1 66.8h140.2c-3.9-.5-7.5-1.4-10.9-2.9"/><path class="st1" d="M45 72.1c-.3-.2-1.1-1.3-1.8-2.1l-.2-.4-.9-1.3c-.3-.4-.2-.8.2-1.3 0-.1.1-.1.2-.2s.1-.2.2-.2l.1-.1.3-.3c.4-.4.8-.8 1-.9.2-.2.4-.3.2-.6-.1-.2-.6-.8-1.4-.8H42.6c-.1 0-.2 0-.4.1h-.1c-.1.1-.3.2-.4.3-.1.1-.3.2-.4.4l-1.5 1.5c-.2.2-.4.5-.9.5-.3 0-.5-.2-.5-.6v-4.3c0-.9-.3-1.5-.7-1.9-.3-.2-.7-.3-1-.3-.4 0-.7.1-.9.2-.4.2-.4.3-.3.6.1.3.1 1.2.1 2.1v9.9c0 1 .5 1.3 1.3 1.3h.3c.7 0 1.2-.3 1.2-1.3v-2.5c0-.5.3-.6.5-.6.5 0 .7.3 1.1.7.2.2 1.4 1.8 2.1 2.6.6.7 1 .9 1.6.9.8 0 1.3-.5 1.5-.7.2-.4 0-.6-.2-.7M33 59.7c-.3-.2-.7-.3-1-.3-.4 0-.7.1-.9.2-.4.2-.4.3-.3.6.1.4.2 1.7.2 2.7V72.1c0 1 .5 1.3 1.3 1.3h.3c.7 0 1.2-.3 1.2-1.3V61.6c0-.9-.3-1.5-.8-1.9"/><path class="st1" d="M20.7 62.4c.9 0 1.5-.3 1.9-.7.5-.7.3-1.6.1-1.9-.1-.2-.2-.2-.3-.2h-9.6c-.9 0-1.5.3-1.9.7-.5.7-.3 1.6-.1 1.9.1.2.2.2.3.2h3.8c.2 0 .4.2.5.4v9.3c0 .5.1.8.3 1 .2.2.6.3 1 .3h.3c.7 0 1.2-.3 1.2-1.3V63c0-.3.2-.6.5-.6h2zM29.2 69.9v-2.4c0-2.8-.6-4.4-4.5-4.4-2.9 0-4.2 1.2-4.2 2.4 0 1.1 1.3 1.2 1.7 1.2 0 0 .1 0 .1-.1.4-.7 1.1-1.4 2.4-1.4 1.4 0 1.8.4 1.8 1.5 0 .1-.1.3-.3.3-1 .1-4.6.5-5.7 1.8-.5.6-.6 1.2-.6 2 0 1.6 1.2 2.8 3.2 2.8 1.1 0 2.2-.4 2.9-1.1l.1-.1c.1 0 .2-.1.3-.1.1 0 .1 0 .2.1l.1.1c.1.3.3.5.5.6.7.5 1.6.3 1.9.1.4-.2.4-.3.3-.6-.2-.3-.2-1.6-.2-2.7m-2.7-.6c0 1.1-1 2.1-2.4 2.1-.9 0-1.3-.4-1.3-1 0-.7 1.1-1.5 3.2-1.7h.1c.2 0 .4.2.4.4v.2zM64.7 59.7c-.3-.2-.7-.3-1-.3-.4 0-.7.1-.9.2-.4.2-.4.3-.3.6.1.4.2 1.7.2 2.7V72.1c0 1 .6 1.3 1.3 1.3h.3c.7 0 1.2-.3 1.2-1.3V61.5c-.1-.8-.3-1.4-.8-1.8"/><path class="st1" d="M60.9 69.9v-2.4c0-2.8-.6-4.4-4.5-4.4-2.9 0-4.2 1.2-4.2 2.4 0 1.1 1.3 1.2 1.7 1.2 0 0 .1 0 .1-.1.4-.7 1.1-1.4 2.4-1.4 1.4 0 1.8.4 1.8 1.5 0 .1-.1.3-.3.3-1 .1-4.6.5-5.7 1.8-.5.6-.6 1.2-.6 2 0 1.6 1.2 2.8 3.2 2.8 1.1 0 2.2-.4 2.9-1.1l.1-.1c.1 0 .2-.1.3-.1.1 0 .1 0 .2.1l.1.1c.1.3.3.5.5.6.7.5 1.6.3 1.8.1.4-.2.4-.3.3-.6-.1-.3-.1-1.6-.1-2.7m-2.8-.6c0 1.1-1 2.1-2.4 2.1-.9 0-1.3-.4-1.3-1 0-.7 1.1-1.5 3.2-1.7h.1c.2 0 .4.2.4.4v.2zM76.7 72.1c-.3-.2-1.1-1.3-1.8-2.1l-.2-.3-.9-1.3c-.3-.4-.2-.8.2-1.3 0-.1.1-.1.2-.2s.1-.2.2-.2l.1-.1.3-.3c.4-.4.8-.8 1-.9.2-.2.4-.3.2-.6-.1-.2-.6-.8-1.4-.8H74.3c-.1 0-.2 0-.4.1h-.1c-.1.1-.3.2-.4.3-.1.1-.3.2-.4.4l-1.5 1.5c-.2.2-.4.5-.9.5-.3 0-.5-.2-.5-.6v-4.3c0-.9-.3-1.5-.7-1.9-.3-.2-.7-.3-1-.3-.4 0-.7.1-.9.2-.4.2-.4.3-.3.6.1.3.1 1.2.1 2.1v9.9c0 1 .5 1.3 1.3 1.3h.3c.7 0 1.2-.3 1.2-1.3v-2.6c0-.5.3-.6.5-.6.5 0 .7.3 1.1.7.2.2 1.4 1.8 2.1 2.6.6.7 1 .9 1.6.9.8 0 1.3-.5 1.5-.7.1-.4 0-.6-.2-.7"/><path class="st1" d="M52.3 62.4c.9 0 1.5-.3 1.9-.7.5-.7.3-1.6.1-1.9-.1-.2-.2-.2-.3-.2h-9.6c-.9 0-1.5.3-1.9.7-.5.7-.3 1.6-.1 1.9.1.2.2.2.3.2h3.8c.2 0 .4.2.5.4v9.3c0 .5.1.8.3 1 .2.2.6.3 1 .3h.3c.7 0 1.2-.3 1.2-1.3V63c0-.3.2-.6.5-.6h2z"/></svg>