<svg xmlns="http://www.w3.org/2000/svg" viewBox="0 0 107.11 31.57"><defs><style>.cls-1{fill:#1e4e91;}.cls-2{fill:#fff;}</style></defs><title>button</title><g id="Layer_2"><g id="Layer_1-2"><path class="cls-1" d="M3.08 0A3 3 0 0 0 0 3.08v25.41a3 3 0 0 0 3.08 3.08H104a3 3 0 0 0 3.08-3.08V3.08A3 3 0 0 0 104 0z"/><path class="cls-2" d="M23.77 18.84v-.67A4.09 4.09 0 0 1 20 20c-3.07 0-5-2.31-5-5.48A5.19 5.19 0 0 1 20.36 9c2.54 0 4 1.48 4 2.1a.61.61 0 0 1-.67.64A3.83 3.83 0 0 0 20.33 10c-2.44 0-4.13 1.85-4.13 4.53s1.48 4.54 4 4.54a3.35 3.35 0 0 0 3.58-2.71v-.93h-3c-.41 0-.61-.16-.61-.46v-.07c0-.31.2-.48.61-.48h3.15a.8.8 0 0 1 .82.82v4.54s-.15.11-.36.11c-.39.01-.62-.17-.62-1.05zM26.38 16a3.93 3.93 0 0 1 3.94-4.13c2.2 0 3.64 1.56 3.64 3.94v.1c0 .29-.12.36-.44.36h-6.08a2.88 2.88 0 0 0 3 2.85 2.81 2.81 0 0 0 2.67-1.39.63.63 0 0 1 .62.61c0 .54-1.18 1.74-3.3 1.74A3.88 3.88 0 0 1 26.38 16zm1.1-.66h5.35a2.46 2.46 0 0 0-2.51-2.54 2.85 2.85 0 0 0-2.84 2.51zM34.87 12.56v-.1c0-.28.11-.43.51-.43h.72v-1.36c0-.39.2-.51.48-.51h.11c.28 0 .46.11.46.51V12h2.08c.39 0 .51.15.51.43v.1c0 .28-.11.43-.51.43h-2.08v4.45c0 1.15.29 1.69 1.16 1.69a1.49 1.49 0 0 0 1.21-.57s.36.12.36.53-.57 1-1.61 1c-1.53 0-2.18-.87-2.18-2.49V13h-.72c-.37 0-.5-.16-.5-.44zM43.48 18.44a.64.64 0 0 1 .57-.57 3.13 3.13 0 0 0 2.67 1.26c1.3 0 2-.53 2-1.31s-.82-1.13-2.3-1.44c-1.21-.26-2.74-.61-2.74-2.18 0-1.39 1.18-2.36 3-2.36s2.89.9 2.89 1.49c0 .41-.56.61-.59.56a2.65 2.65 0 0 0-2.3-1.15c-1.28 0-2 .54-2 1.31s.74 1.07 2.18 1.38c1.26.28 2.87.62 2.87 2.23C49.78 19.1 48.6 20 46.7 20c-2.09 0-3.22-1-3.22-1.56zM50.78 12.56v-.1c0-.28.11-.43.51-.43H52v-1.36c0-.39.2-.51.48-.51h.12c.28 0 .46.11.46.51V12h2.08c.39 0 .51.15.51.43v.1c0 .28-.11.43-.51.43h-2.08v4.45c0 1.15.3 1.69 1.17 1.69a1.5 1.5 0 0 0 1.21-.57s.36.12.36.53-.57 1-1.61 1C52.67 20 52 19.17 52 17.54V13h-.72c-.38 0-.5-.16-.5-.44zM56.7 17.84c0-1.82 1.82-2.58 5.43-2.66h.16v-.28a1.93 1.93 0 0 0-2.2-2.08 2.68 2.68 0 0 0-2.49 1.44.63.63 0 0 1-.61-.62c0-.56 1.12-1.8 3.18-1.8a2.86 2.86 0 0 1 3.17 3v4.92s-.16.11-.36.11c-.36 0-.67-.18-.67-1v-.29A3.46 3.46 0 0 1 59.39 20c-1.71 0-2.69-.85-2.69-2.16zm5.59-1.1V16h-.46c-2.67.1-4.05.57-4.05 1.8 0 .79.64 1.3 1.71 1.3a2.54 2.54 0 0 0 2.8-2.36zM66.52 13.46a2 2 0 0 1 2.07-1.62c.72 0 1.13.29 1.13.8s-.26.59-.3.56a1.36 1.36 0 0 0-1-.33c-1.39 0-1.94 1.46-1.94 3.46v3.07c0 .39-.2.51-.48.51-.28 0-.48-.11-.48-.51v-7.32s.16-.12.36-.12c.36 0 .69.18.69 1zM70.28 12.56v-.1c0-.28.11-.43.51-.43h.72v-1.36c0-.39.2-.51.48-.51h.12c.28 0 .46.11.46.51V12h2.08c.39 0 .51.15.51.43v.1c0 .28-.11.43-.51.43h-2.09v4.45c0 1.15.3 1.69 1.17 1.69a1.5 1.5 0 0 0 1.21-.57s.36.12.36.53-.57 1-1.61 1c-1.53 0-2.18-.87-2.18-2.49V13h-.72c-.39 0-.51-.16-.51-.44zM76.17 16a3.93 3.93 0 0 1 3.94-4.13c2.2 0 3.64 1.56 3.64 3.94v.1c0 .29-.12.36-.44.36h-6.08a2.88 2.88 0 0 0 3 2.85 2.81 2.81 0 0 0 2.67-1.39.63.63 0 0 1 .62.61c0 .54-1.18 1.74-3.3 1.74A3.88 3.88 0 0 1 76.17 16zm1.1-.66h5.35a2.46 2.46 0 0 0-2.51-2.54 2.85 2.85 0 0 0-2.84 2.51zM84.88 16a3.78 3.78 0 0 1 3.76-4.12 3.31 3.31 0 0 1 2.84 1.38V8.78s.16-.12.36-.12c.36 0 .71.18.71 1v9.74c0 .39-.2.51-.48.51h-.12c-.28 0-.46-.11-.46-.51v-.85A3.42 3.42 0 0 1 88.57 20a3.75 3.75 0 0 1-3.69-4zm6.61.64v-2a2.84 2.84 0 0 0-2.77-1.84C87.06 12.77 86 14 86 15.93a2.87 2.87 0 0 0 2.72 3.17 2.75 2.75 0 0 0 2.77-2.51z"/></g></g></svg>