<?xml version="1.0" encoding="utf-8"?>
<!-- Generator: Adobe Illustrator 21.1.0, SVG Export Plug-In . SVG Version: 6.00 Build 0)  -->
<svg version="1.1" id="Layer_1" xmlns="http://www.w3.org/2000/svg" xmlns:xlink="http://www.w3.org/1999/xlink" x="0px" y="0px"
	 viewBox="0 0 159.1 159.5" style="enable-background:new 0 0 159.1 159.5;" xml:space="preserve">
<style type="text/css">
	.st0{fill:#1D4E8F;}
	.st1{fill:#1D4E89;}
	.st2{fill:#DD505A;}
	.st3{fill:#1D4E9D;}
</style>
<title>endframetext</title>
<path class="st0" d="M97.5,118.1c0-1.9,1.9-2.7,6.2-2.8h0.2v-0.4c0.1-1.3-0.9-2.4-2.1-2.5c-0.2,0-0.3,0-0.5,0
	c-1.2-0.1-2.3,0.6-2.9,1.6c-0.3,0-0.5-0.2-0.5-0.5c0.1-0.3,0.2-0.6,0.5-0.8c0.8-0.7,1.9-1.1,3-1.1c1.7-0.2,3.2,1.1,3.4,2.7
	c0,0.2,0,0.4,0,0.5v5.4c-0.1,0.1-0.2,0.1-0.3,0.1c-0.3,0-0.5-0.2-0.5-0.9v-0.9c-0.7,1.2-2,1.9-3.4,1.9
	C98.6,120.4,97.5,119.5,97.5,118.1z M103.8,116.8v-0.8h-0.2c-3.7,0.1-5.2,0.7-5.2,2.1c0,1,0.8,1.6,2.1,1.6
	C102.2,119.8,103.7,118.5,103.8,116.8C103.8,116.8,103.8,116.8,103.8,116.8z"/>
<path class="st0" d="M110.2,119.9v-8.1c0.1-0.1,0.2-0.1,0.3-0.1c0.3,0,0.6,0.2,0.6,0.9v0.7c0.6-1.1,1.6-1.7,2.8-1.7
	c1.3-0.1,2.5,0.7,2.9,2c0.5-1.2,1.8-2,3.1-2c2.1,0,3.3,1.3,3.3,3.7v4.7c0,0.3-0.2,0.4-0.4,0.4h-0.1c-0.2,0-0.4-0.1-0.4-0.4v-4.6
	c0-1.9-0.9-2.9-2.5-2.9c-1.2,0-2.3,0.8-2.7,2v5.5c0,0.3-0.2,0.4-0.4,0.4h-0.1c-0.2,0-0.4-0.1-0.4-0.4V115c0-1.7-0.8-2.7-2.5-2.7
	c-1.2,0-2.3,0.8-2.7,2v5.6c0,0.3-0.2,0.4-0.4,0.4h-0.1C110.4,120.3,110.2,120.2,110.2,119.9z"/>
<path class="st0" d="M125.1,115.9c0.1-2.4,2-4.3,4.4-4.2c2.4,0.1,4.3,2,4.2,4.4c-0.1,2.4-2,4.2-4.3,4.3c-2.3,0.1-4.3-1.8-4.4-4.1
	C125,116.2,125,116.1,125.1,115.9z M132.9,116c-0.1-1.9-1.7-3.4-3.7-3.3c-1.9,0.1-3.4,1.7-3.3,3.7c0.1,1.9,1.6,3.3,3.5,3.3
	c1.9,0,3.5-1.6,3.5-3.5C132.9,116.1,132.9,116,132.9,116z"/>
<path class="st0" d="M135.7,119.9v-8.1c0.1-0.1,0.2-0.1,0.3-0.1c0.3,0,0.6,0.2,0.6,0.9v0.8c0.6-1.1,1.8-1.8,3.1-1.8
	c2.3,0,3.4,1.5,3.4,3.8v4.5c0,0.3-0.2,0.4-0.4,0.4h-0.1c-0.2,0-0.4-0.1-0.4-0.4v-4.5c0-1.9-0.9-3-2.6-3c-1.3,0-2.5,0.8-3,2v5.5
	c0,0.3-0.2,0.4-0.4,0.4H136C135.8,120.3,135.7,120.2,135.7,119.9z"/>
<path class="st0" d="M145.9,117.7v-5.3h-1c-0.3,0-0.4-0.1-0.4-0.3V112c0-0.2,0.1-0.3,0.4-0.3h1V110c0-0.3,0.2-0.4,0.4-0.4h0.1
	c0.2,0,0.4,0.1,0.4,0.4v1.7h2.5c0.3,0,0.4,0.1,0.4,0.3v0.1c0,0.2-0.1,0.3-0.4,0.3h-2.5v5.2c0,1.4,0.4,2,1.4,2c0.6,0,1.1-0.3,1.4-0.7
	c0,0,0.3,0.1,0.3,0.4c0,0.2-0.1,0.4-0.3,0.5c-0.4,0.4-0.9,0.5-1.4,0.5C146.6,120.4,145.9,119.5,145.9,117.7z"/>
<path class="st0" d="M151.4,119.9v-11.8c0,0,0.1-0.1,0.3-0.1c0.3,0,0.6,0.2,0.6,0.8v4.5c0.6-1.2,1.7-1.9,3-1.9
	c2.3,0,3.4,1.5,3.4,3.8v4.5c0,0.3-0.2,0.4-0.4,0.4h-0.1c-0.2,0-0.4-0.1-0.4-0.4v-4.5c0-1.9-0.9-3-2.6-3c-1.6-0.1-2.9,1.2-3,2.7
	c0,0.1,0,0.2,0,0.2v4.5c0,0.3-0.2,0.4-0.4,0.4h-0.1C151.5,120.3,151.4,120.2,151.4,119.9z"/>
<path class="st1" d="M20.5,88.9v-0.4c0-1,0.6-1.4,1.6-1.4h4.8l1.5-8.1c1.1-6.1,4.3-9.7,10.1-9.7c6,0,8.7,4.1,8.7,6.8
	c0,1.1-0.9,2-2,2c-0.2,0-0.3,0-0.5-0.1c-0.7-3.5-2.8-5.6-6.3-5.6c-4.1,0-5.8,2.2-6.6,6.8l-1.4,7.9h8.8c1.1,0,1.6,0.4,1.6,1.4v0.4
	c0,1-0.6,1.4-1.6,1.4h-9.4l-2,10.6h17c1.1,0,1.6,0.5,1.6,1.5v0.3c0,1-0.6,1.5-1.6,1.5H21.4c-1.1,0-1.6-0.5-1.6-1.5v-0.3
	c0-1,0.6-1.5,1.6-1.5h3l2-10.6h-4.2C21.1,90.3,20.5,89.8,20.5,88.9z"/>
<path class="st1" d="M56.4,102.8V75.5c-0.9,1.3-2.4,2-3.9,2c-2.3,0-3.9-1.2-3.9-3c0-0.8,0.4-1.5,1.1-2c0.8,0.9,1.9,1.4,3,1.3
	c2.3,0,4.1-1.9,4.1-4.1h1.5c0.8-0.1,1.5,0.5,1.6,1.3c0,0.1,0,0.2,0,0.4v31.4c0,1.1-0.5,1.6-1.6,1.6h-0.5
	C56.9,104.4,56.4,103.9,56.4,102.8z"/>
<path class="st1" d="M88.5,89v-1.2c-2.8,2.6-6.4,4-10.1,4.1c-7.1,0-11.7-4.1-11.7-10.4v-0.3c-0.1-6.5,5.2-11.9,11.7-12
	c0.1,0,0.2,0,0.3,0c8.4,0,13.4,5.8,13.4,15.6v3.9c0,10.7-4.9,16.1-13.9,16.1c-6.9,0-10.3-3.5-10.3-5.6c0-1.3,1.9-2.1,2-2
	c1.8,2.9,5,4.6,8.4,4.5C85.1,101.8,88.5,97.7,88.5,89z M88.5,84.1c-0.3-7.3-3.6-11.8-9.5-11.8c-4.7-0.2-8.6,3.5-8.7,8.2
	c0,0.1,0,0.3,0,0.4v0.3c0,4.9,3,7.6,8.5,7.6C82.5,88.8,86,87.1,88.5,84.1L88.5,84.1z"/>
<path class="st1" d="M96.6,102.2v-0.5c-0.1-1.2,0.7-2.3,1.9-2.4c0.1,0,0.3,0,0.4,0h0.5c1.2-0.1,2.3,0.7,2.4,1.9c0,0.1,0,0.3,0,0.4
	v0.5c0.1,1.2-0.7,2.2-1.9,2.3c-0.2,0-0.3,0-0.5,0h-0.5c-1.2,0.1-2.2-0.7-2.3-1.9C96.6,102.5,96.6,102.3,96.6,102.2z"/>
<path class="st1" d="M127.4,89v-1.2c-2.8,2.6-6.4,4-10.1,4.1c-7.1,0-11.7-4.1-11.7-10.4v-0.3c-0.1-6.5,5.2-11.9,11.7-12
	c0.1,0,0.2,0,0.3,0c8.4,0,13.4,5.8,13.4,15.6v3.9c0,10.7-4.9,16.1-13.9,16.1c-6.9,0-10.3-3.5-10.3-5.6c0-1.3,1.9-2.1,2-2
	c1.8,2.9,5,4.6,8.4,4.5C124,101.8,127.4,97.7,127.4,89z M127.4,84.1c-0.3-7.3-3.6-11.8-9.5-11.8c-4.7-0.2-8.6,3.5-8.7,8.2
	c0,0.1,0,0.3,0,0.4v0.3c0,4.9,3,7.6,8.5,7.6C121.4,88.8,125,87.1,127.4,84.1L127.4,84.1z"/>
<path class="st1" d="M139.2,84.8c2.4-1.2,5-1.8,7.6-1.8c7.2,0,12,4.2,12,10.8c0,6.8-4.9,11.1-12.8,11.1c-7,0-11.8-4-11.8-6.8
	c0-1.5,2-2.2,2.1-2c1.6,3.3,5,5.5,9.8,5.5c5.5,0,9.1-3,9.1-7.7c0-4.7-3.3-7.6-8.5-7.6c-3.1-0.1-6.2,0.8-8.7,2.5
	c-1.3,0-2.3-1-2.3-2.3c0-0.1,0-0.2,0-0.2V71.9c0-1.1,0.9-2,2-2c0,0,0,0,0,0h17.7c1.1,0,1.6,0.5,1.6,1.5v0.3c0,1-0.6,1.5-1.6,1.5
	h-16.3V84.8z"/>
<path class="st2" d="M0,21.1V1.3C0,0.6,0.6,0,1.3,0c0,0,0,0,0,0h12.3c0.7,0,1.1,0.3,1.1,1v0.2c0,0.6-0.4,1-1.1,1H2.3v8.3h8.5
	c0.7,0,1.1,0.3,1.1,1v0.1c0,0.6-0.4,1-1.1,1H2.3v8.6c0,0.7-0.3,1.1-1,1.1H1C0.3,22.1,0,21.8,0,21.1z"/>
<path class="st2" d="M16.8,17.8c0-3.8,3.8-5.3,11.3-5.5h0.3v-0.6c0-2.8-1.6-4.3-4.6-4.3c-2.2-0.1-4.2,1.1-5.2,3
	c-0.7,0-1.3-0.6-1.3-1.3c0-1.2,2.3-3.7,6.6-3.7c4.1,0,6.6,2.4,6.6,6.3v10.2c0,0.1-0.3,0.2-0.7,0.2c-0.7,0-1.4-0.4-1.4-2.1v-0.6
	c-1.4,1.9-3.7,3.1-6.1,3C18.8,22.4,16.8,20.6,16.8,17.8z M28.4,15.6v-1.5l-1,0c-5.5,0.2-8.4,1.2-8.4,3.7c0,1.6,1.3,2.7,3.5,2.7
	C25.9,20.5,28.4,18.5,28.4,15.6z"/>
<path class="st2" d="M33.7,19.1c0.1-0.6,0.6-1.1,1.2-1.2c1.3,1.7,3.4,2.7,5.5,2.6c2.7,0,4.2-1.1,4.2-2.7c0-1.9-1.7-2.3-4.8-3
	c-2.5-0.5-5.7-1.3-5.7-4.5c0-2.9,2.4-4.9,6.2-4.9c3.9,0,6,1.9,6,3.1c0,0.9-1.2,1.3-1.2,1.2c-1.1-1.6-2.9-2.5-4.8-2.4
	c-2.7,0-4.1,1.1-4.1,2.7c0,1.7,1.5,2.2,4.5,2.9c2.6,0.6,5.9,1.3,5.9,4.6c0,3-2.4,4.9-6.4,4.9C36.1,22.4,33.7,20.3,33.7,19.1z"/>
<path class="st2" d="M48.9,6.9V6.7c0-0.6,0.2-0.9,1.1-0.9h1.5V3c0-0.8,0.4-1.1,1-1.1h0.2c0.6,0,1,0.2,1,1.1v2.8h4.3
	c0.8,0,1.1,0.3,1.1,0.9v0.2c0,0.6-0.2,0.9-1.1,0.9h-4.3V17c0,2.4,0.6,3.5,2.4,3.5c1,0,1.9-0.4,2.5-1.2c0.1-0.1,0.7,0.2,0.7,1.1
	c0,0.9-1.2,2-3.3,2c-3.2,0-4.5-1.8-4.5-5.2V7.8h-1.5C49.1,7.8,48.9,7.5,48.9,6.9z"/>
<path class="st2" d="M0,50.7V31.3C0,30.6,0.6,30,1.3,30c0,0,0,0,0,0h7c4.7,0,7.2,2,7.2,5.8c0,2.3-1.3,4-3.8,4.8
	c3.3,0.7,4.8,2.8,4.8,5.3c0,4-2.6,6.1-7.9,6.1H1.3C0.6,52,0,51.4,0,50.7C0,50.7,0,50.7,0,50.7z M8.4,39.8c2.8,0,4.7-1.6,4.7-3.9
	c0-2.5-1.6-3.8-4.8-3.8h-6v7.8H8.4z M8.5,49.9c3.9,0,5.6-1.2,5.6-4.1c0-2.6-1.8-3.9-5.4-3.9H2.3v8.1L8.5,49.9z"/>
<path class="st2" d="M22.3,38.8c0.4-2,2.2-3.4,4.3-3.4c1.5,0,2.3,0.6,2.3,1.7c0,0.8-0.5,1.2-0.6,1.2c-0.5-0.5-1.3-0.7-2-0.7
	c-2.9,0-4,3-4,7.2v6.4c0,0.8-0.4,1.1-1,1.1h-0.2c-0.6,0-1-0.2-1-1.1V35.9c0-0.1,0.3-0.2,0.7-0.2c0.7,0,1.4,0.4,1.4,2.1L22.3,38.8z"
	/>
<path class="st2" d="M30.6,43.9c-0.2-4.5,3.3-8.3,7.8-8.5c0.2,0,0.4,0,0.6,0c4.5-0.1,8.2,3.5,8.3,8c0,0.2,0,0.4,0,0.5
	c0.2,4.5-3.3,8.3-7.8,8.5c-0.2,0-0.4,0-0.5,0c-4.5,0.1-8.3-3.5-8.4-8C30.6,44.2,30.6,44.1,30.6,43.9z M45,43.9
	c0-3.8-2.6-6.6-6.1-6.6s-6.1,2.8-6.1,6.5s2.6,6.6,6.1,6.6C42.4,50.5,45,47.7,45,43.9L45,43.9z"/>
<path class="st2" d="M49.7,47.8c0-3.8,3.8-5.3,11.3-5.5h0.3v-0.6c0-2.8-1.6-4.3-4.6-4.3c-2.2-0.1-4.2,1.1-5.2,3
	c-0.7,0-1.3-0.6-1.3-1.3c0-1.2,2.3-3.7,6.6-3.7c4.1,0,6.6,2.4,6.6,6.3v10.2c0,0.1-0.3,0.2-0.7,0.2c-0.7,0-1.4-0.4-1.4-2.1v-0.6
	c-1.4,1.9-3.7,3.1-6.1,3C51.8,52.4,49.7,50.6,49.7,47.8z M61.3,45.6v-1.5l-1,0c-5.5,0.2-8.4,1.2-8.4,3.7c0,1.6,1.3,2.7,3.5,2.7
	C58.9,50.5,61.3,48.5,61.3,45.6z"/>
<path class="st2" d="M66.8,43.9c0-5.1,3.3-8.5,7.8-8.5c2.3-0.1,4.5,1,5.9,2.9v-9.2c0-0.1,0.3-0.2,0.7-0.2c0.7,0,1.5,0.4,1.5,2.1
	v20.1c0,0.8-0.4,1.1-1,1.1h-0.2c-0.6,0-1-0.2-1-1.1v-1.8c-1.4,2-3.6,3.2-6.1,3.1C70.2,52.4,66.8,49.1,66.8,43.9z M80.5,45.3v-4.1
	c-0.9-2.4-3.2-3.9-5.7-3.8c-3.4,0-5.7,2.7-5.7,6.6c0,3.8,2.4,6.6,5.6,6.6C77.7,50.5,80.3,48.3,80.5,45.3L80.5,45.3z"/>
<path class="st2" d="M89.5,49.5v1.6c0,0.8-0.4,1.1-1,1.1h-0.2c-0.6,0-1-0.2-1-1.1v-22c0-0.1,0.3-0.2,0.7-0.2c0.7,0,1.5,0.4,1.5,2.1
	v7.5c1.4-2,3.6-3.1,6-3.1c4.3,0,7.6,3.3,7.6,8.5c0,5.1-3.3,8.5-7.8,8.5C93,52.5,90.8,51.4,89.5,49.5z M100.9,43.9
	c0-3.8-2.4-6.6-5.6-6.6c-2.6-0.1-4.9,1.5-5.8,3.8V45c0.1,3.1,2.7,5.5,5.7,5.5C98.6,50.5,100.9,47.8,100.9,43.9L100.9,43.9z"/>
<path class="st2" d="M105.6,47.8c0-3.8,3.8-5.3,11.3-5.5h0.3v-0.6c0-2.8-1.6-4.3-4.6-4.3c-2.2-0.1-4.2,1.1-5.2,3
	c-0.7,0-1.3-0.6-1.3-1.3c0-1.2,2.3-3.7,6.6-3.7c4.1,0,6.6,2.4,6.6,6.3v10.2c0,0.1-0.3,0.2-0.7,0.2c-0.7,0-1.4-0.4-1.4-2.1v-0.6
	c-1.4,1.9-3.7,3.1-6.1,3C107.6,52.4,105.6,50.6,105.6,47.8z M117.2,45.6v-1.5l-1,0c-5.5,0.2-8.4,1.2-8.4,3.7c0,1.6,1.3,2.7,3.5,2.7
	C114.7,50.5,117.2,48.5,117.2,45.6L117.2,45.6z"/>
<path class="st2" d="M126,38.4c1.2-1.9,3.3-3,5.5-3c4.3,0,6.4,2.9,6.4,7.1v8.5c0,0.8-0.4,1.1-1,1.1h-0.2c-0.6,0-1-0.2-1-1.1v-8.4
	c0-3.2-1.6-5.2-4.4-5.2c-2.3,0-4.4,1.3-5.3,3.4v10.2c0,0.8-0.4,1.1-1,1.1h-0.2c-0.6,0-1-0.2-1-1.1V35.9c0-0.1,0.3-0.2,0.7-0.2
	c0.7,0,1.4,0.4,1.4,2.1V38.4z"/>
<path class="st2" d="M141.2,43.9c0-5.1,3.3-8.5,7.8-8.5c2.3-0.1,4.5,1,5.9,2.9v-9.2c0-0.1,0.3-0.2,0.7-0.2c0.7,0,1.5,0.4,1.5,2.1
	v20.1c0,0.8-0.4,1.1-1,1.1h-0.2c-0.6,0-1-0.2-1-1.1v-1.8c-1.4,2-3.6,3.2-6.1,3.1C144.6,52.4,141.2,49.1,141.2,43.9z M154.9,45.3
	v-4.1c-0.9-2.4-3.2-3.9-5.7-3.8c-3.4,0-5.7,2.7-5.7,6.6c0,3.8,2.4,6.6,5.6,6.6C152.1,50.5,154.7,48.3,154.9,45.3L154.9,45.3z"/>
<g>
	<g>
		<path class="st3" d="M68.7,138.8v-10.7c0-0.3,0.2-0.6,0.5-0.6h0.2c0.3,0,0.5,0.2,0.7,0.5l7,9.8v-9.9c0-0.3,0.1-0.4,0.4-0.4h0.1
			c0.3,0,0.4,0.1,0.4,0.4v10.8c0,0.3-0.2,0.6-0.5,0.6h-0.1c-0.3,0-0.4-0.1-0.6-0.4l-7.3-10.2v10.2c0,0.3-0.1,0.4-0.4,0.4H69
			C68.8,139.2,68.7,139.1,68.7,138.8z"/>
		<path class="st3" d="M80.1,134.9c0-2.5,1.8-4.4,4.4-4.4c2.5,0,4.3,1.9,4.3,4.5c0,2.5-1.8,4.4-4.3,4.4
			C81.9,139.4,80.1,137.5,80.1,134.9z M87.9,135c0-2.1-1.5-3.7-3.5-3.7s-3.5,1.6-3.5,3.7c0,2.1,1.5,3.7,3.5,3.7
			C86.4,138.6,87.9,137.1,87.9,135z"/>
		<path class="st3" d="M92.1,138.9l-2.1-8.1c0-0.1,0.8-0.7,1,0.4l1.7,7.1l2.1-6c0.1-0.3,0.2-0.4,0.7-0.4c0.4,0,0.6,0.1,0.7,0.4l2,6
			l1.7-7.1c0.3-1.1,1-0.5,1-0.4l-2.1,8.1c-0.1,0.2-0.2,0.4-0.6,0.4c-0.4,0-0.5-0.1-0.6-0.4l-2.1-6.1l-2.1,6.1
			c-0.1,0.2-0.1,0.4-0.6,0.4C92.2,139.3,92.1,139.2,92.1,138.9z"/>
		<path class="st3" d="M107.2,138.9l-2.1-8.1c0-0.1,0.8-0.7,1,0.4l1.7,7.1l2.1-6c0.1-0.3,0.2-0.4,0.7-0.4c0.4,0,0.6,0.1,0.7,0.4l2,6
			l1.7-7.1c0.3-1.1,1-0.5,1-0.4l-2.1,8.1c-0.1,0.2-0.2,0.4-0.6,0.4c-0.4,0-0.5-0.1-0.6-0.4l-2.1-6.1l-2.1,6.1
			c-0.1,0.2-0.1,0.4-0.6,0.4C107.3,139.3,107.3,139.2,107.2,138.9z"/>
		<path class="st3" d="M117.7,127.8c0-0.4,0.2-0.6,0.6-0.6c0.4,0,0.6,0.2,0.6,0.6c0,0.4-0.2,0.6-0.6,0.6
			C117.9,128.4,117.7,128.2,117.7,127.8z M117.8,138.8V131c0-0.3,0.2-0.4,0.4-0.4h0.1c0.2,0,0.4,0.1,0.4,0.4v7.8
			c0,0.3-0.2,0.4-0.4,0.4h-0.1C118,139.2,117.8,139.2,117.8,138.8z"/>
		<path class="st3" d="M121.8,136.7v-5.3h-1c-0.3,0-0.4-0.1-0.4-0.3V131c0-0.2,0.1-0.3,0.4-0.3h1V129c0-0.3,0.2-0.4,0.4-0.4h0.1
			c0.2,0,0.4,0.1,0.4,0.4v1.7h2.5c0.3,0,0.4,0.1,0.4,0.3v0.1c0,0.2-0.1,0.3-0.4,0.3h-2.5v5.2c0,1.4,0.4,2,1.4,2
			c0.6,0,1.1-0.3,1.4-0.7c0,0,0.3,0.1,0.3,0.4c0,0.1-0.1,0.3-0.3,0.5c-0.3,0.3-0.7,0.5-1.4,0.5C122.5,139.4,121.8,138.5,121.8,136.7
			z"/>
		<path class="st3" d="M127.3,138.8v-11.8c0,0,0.1-0.1,0.3-0.1c0.3,0,0.6,0.2,0.6,0.8v4.5c0.5-1.1,1.6-1.9,3-1.9
			c2.3,0,3.4,1.5,3.4,3.8v4.5c0,0.3-0.2,0.4-0.4,0.4h-0.1c-0.2,0-0.4-0.1-0.4-0.4v-4.5c0-1.9-0.9-3-2.6-3s-3,1.2-3,3v4.5
			c0,0.3-0.2,0.4-0.4,0.4h-0.1C127.4,139.2,127.3,139.2,127.3,138.8z"/>
		<path class="st3" d="M140.2,138.8v-8.1c0,0,0.1-0.1,0.3-0.1c0.3,0,0.6,0.2,0.6,0.9v0.8c0.6-1,1.6-1.8,3.1-1.8
			c2.3,0,3.4,1.5,3.4,3.8v4.5c0,0.3-0.2,0.4-0.4,0.4H147c-0.2,0-0.4-0.1-0.4-0.4v-4.5c0-1.9-0.9-3-2.6-3c-1.4,0-2.5,0.8-3,2v5.5
			c0,0.3-0.2,0.4-0.4,0.4h-0.1C140.3,139.2,140.2,139.2,140.2,138.8z"/>
		<path class="st3" d="M149.3,134.9c0-2.5,1.8-4.4,4.4-4.4c2.5,0,4.3,1.9,4.3,4.5c0,2.5-1.8,4.4-4.3,4.4
			C151.1,139.4,149.3,137.5,149.3,134.9z M157.2,135c0-2.1-1.5-3.7-3.5-3.7s-3.5,1.6-3.5,3.7c0,2.1,1.5,3.7,3.5,3.7
			C155.7,138.6,157.2,137.1,157.2,135z"/>
		<path class="st3" d="M82.3,154.4c-0.3-0.3-0.4-0.5-0.4-0.7c0-0.4,0.4-0.5,0.5-0.5c0.5,0.8,1.5,1.4,3,1.4c1.5,0,2.4-0.7,2.4-1.7
			c0-1.2-1.1-1.4-2.6-1.7c-1.4-0.3-3-0.6-3-2.3c0-1.5,1.3-2.5,3.2-2.5c1.3,0,2.3,0.4,2.8,0.9c0.2,0.2,0.3,0.4,0.3,0.6
			c0,0.3-0.4,0.5-0.5,0.4c-0.4-0.7-1.4-1.3-2.6-1.3c-1.5,0-2.4,0.7-2.4,1.6c0,1.1,1,1.3,2.6,1.7c1.5,0.3,3.1,0.7,3.1,2.4
			c0,1.5-1.3,2.5-3.3,2.5C83.9,155.4,82.9,154.9,82.3,154.4z"/>
		<path class="st3" d="M90,151c0-2.5,1.8-4.5,4.2-4.5c2.3,0,3.9,1.7,3.9,4.2v0.1c0,0.3-0.1,0.3-0.4,0.3h-6.9c0,2.1,1.5,3.5,3.5,3.5
			c1.8,0,2.6-0.9,3-1.7c0.1,0,0.5,0.1,0.5,0.5c0,0.2-0.2,0.5-0.5,0.9c-0.5,0.5-1.6,1.1-3,1.1C91.8,155.4,90,153.5,90,151z
			 M90.9,150.3h6.4c-0.1-1.8-1.3-3.1-3-3.1C92.5,147.3,91.2,148.5,90.9,150.3z"/>
		<path class="st3" d="M100.6,152.7v-5.3h-1c-0.3,0-0.4-0.1-0.4-0.3V147c0-0.2,0.1-0.3,0.4-0.3h1V145c0-0.3,0.2-0.4,0.4-0.4h0.1
			c0.2,0,0.4,0.1,0.4,0.4v1.7h2.5c0.3,0,0.4,0.1,0.4,0.3v0.1c0,0.2-0.1,0.3-0.4,0.3h-2.5v5.2c0,1.4,0.4,2,1.4,2
			c0.6,0,1.1-0.3,1.4-0.7c0,0,0.3,0.1,0.3,0.4c0,0.1-0.1,0.3-0.3,0.5c-0.3,0.3-0.7,0.5-1.4,0.5C101.3,155.4,100.6,154.5,100.6,152.7
			z"/>
		<path class="st3" d="M105.5,150.8L105.5,150.8c0-0.3,0.1-0.5,0.4-0.5h4c0.3,0,0.4,0.1,0.4,0.4v0.1c0,0.2-0.1,0.3-0.4,0.3h-4
			C105.7,151.1,105.5,151,105.5,150.8z"/>
		<path class="st3" d="M112.3,151.6V147c0-0.3,0.2-0.4,0.4-0.4h0.1c0.2,0,0.4,0.1,0.4,0.4v4.5c0,1.9,0.9,3,2.6,3c1.4,0,2.5-0.8,3-2
			V147c0-0.3,0.2-0.4,0.4-0.4h0.1c0.2,0,0.4,0.1,0.4,0.4v8.1c0,0-0.1,0.1-0.3,0.1c-0.3,0-0.5-0.2-0.5-0.9v-0.8
			c-0.6,1-1.6,1.8-3.1,1.8C113.4,155.4,112.3,153.9,112.3,151.6z"/>
		<path class="st3" d="M122.1,158.3v-11.5c0,0,0.1-0.1,0.3-0.1c0.3,0,0.6,0.2,0.6,0.9v0.9c0.7-1.2,1.8-1.9,3.4-1.9
			c2.3,0,4.1,1.8,4.1,4.4c0,2.6-1.7,4.5-4.1,4.5c-1.7,0-2.9-0.9-3.3-1.9v4.8c0,0.3-0.2,0.4-0.4,0.4h-0.1
			C122.2,158.7,122.1,158.6,122.1,158.3z M129.5,150.9c0-2.1-1.4-3.7-3.3-3.7c-1.6,0-2.8,0.9-3.3,2.3v2c0,1.7,1.4,3.1,3.3,3.1
			C128.2,154.6,129.5,153.1,129.5,150.9z"/>
		<path class="st3" d="M136.2,154.8v-7.4h-1.4c-0.3,0-0.4-0.1-0.4-0.3V147c0-0.2,0.1-0.3,0.4-0.3h1.4v-0.9c0-1.9,0.8-3,2.4-3
			c0.7,0,1.1,0.2,1.4,0.5c0.1,0.1,0.2,0.3,0.2,0.5c0,0.3-0.2,0.4-0.3,0.4c-0.3-0.3-0.8-0.6-1.4-0.6c-1,0-1.5,0.7-1.5,2.2v0.9h1.9
			c0.3,0,0.4,0.1,0.4,0.3v0.1c0,0.2-0.1,0.3-0.4,0.3h-1.9v7.4c0,0.3-0.1,0.4-0.4,0.4h-0.1C136.4,155.2,136.2,155.1,136.2,154.8z"/>
		<path class="st3" d="M140.5,151c0-2.5,1.8-4.5,4.2-4.5c2.3,0,3.9,1.7,3.9,4.2v0.1c0,0.3-0.1,0.3-0.4,0.3h-6.9
			c0,2.1,1.5,3.5,3.5,3.5c1.8,0,2.6-0.9,3-1.7c0.1,0,0.5,0.1,0.5,0.5c0,0.2-0.2,0.5-0.5,0.9c-0.5,0.5-1.6,1.1-3,1.1
			C142.2,155.4,140.5,153.5,140.5,151z M141.3,150.3h6.4c-0.1-1.8-1.3-3.1-3-3.1C143,147.3,141.6,148.5,141.3,150.3z"/>
		<path class="st3" d="M149.9,151c0-2.5,1.8-4.5,4.2-4.5c2.3,0,3.9,1.7,3.9,4.2v0.1c0,0.3-0.1,0.3-0.4,0.3h-6.9
			c0,2.1,1.5,3.5,3.5,3.5c1.8,0,2.6-0.9,3-1.7c0.1,0,0.5,0.1,0.5,0.5c0,0.2-0.2,0.5-0.5,0.9c-0.5,0.5-1.6,1.1-3,1.1
			C151.7,155.4,149.9,153.5,149.9,151z M150.8,150.3h6.4c-0.1-1.8-1.3-3.1-3-3.1C152.4,147.3,151.1,148.5,150.8,150.3z"/>
	</g>
</g>
</svg>
