<svg xmlns="http://www.w3.org/2000/svg" viewBox="0 0 170.363 54.421"><defs><style>.cls-1{fill:#e22639;}</style></defs><title>textfour</title><g id="Layer_2"><g id="Layer_1-2"><path class="cls-1" d="M8.29.192a.92.92 0 0 1 1.357.25l3.29 5.04c.3.462.234.834-.156 1.088l-.085.056a.7.7 0 0 1-1.074-.287L8.776 1.976 5.8 3.917l2.112 3.235c.31.477.236.835-.14 1.08l-.057.038q-.606.4-1.06-.3L4.564 4.767 1.386 6.84a.7.7 0 0 1-1.1-.207L.132 6.4C-.132 6 0 5.6.507 5.272zM13.615 7.558a.7.7 0 0 1 1.106.114l.147.192a.7.7 0 0 1-.176 1.11L6.984 14.83a.7.7 0 0 1-1.116-.13l-.146-.192a.7.7 0 0 1 .187-1.1zM14.26 16.037l1.268-5.914c.033-.145.818-.2 1.254.293A1.14 1.14 0 0 1 17 11.54l-1.15 4.675 4.858-.54a1.108 1.108 0 0 1 1.06.282c.4.45.258 1.224.11 1.24l-6.105.564-1.236 5.978c-.033.145-.806.21-1.242-.28a1.162 1.162 0 0 1-.216-1.124l1.13-4.773-4.92.548a1.056 1.056 0 0 1-1.06-.28c-.4-.452-.258-1.226-.11-1.24zM22.432 18.217a.92.92 0 0 1 1.375-.1l4.793 4.34a.707.707 0 0 1 .115 1.104l-.07.077a.7.7 0 0 1-1.11-.006l-4.18-3.786-2.1 2.312 3.233 2.93c.42.382.45.735.138 1.08l-.035.038a.7.7 0 0 1-1.11-.007l-3.233-2.93-2.27 2.5 4.254 3.857c.41.37.44.723.127 1.068l-.058.064a.7.7 0 0 1-1.122.03l-4.867-4.412a.9.9 0 0 1-.042-1.365zM29.593 24.615a.938.938 0 0 1 1.354-.26l2.216 1.59c3.084 2.21 3.714 5.21 1.683 8.043s-5.147 3.21-8.26.977l-2.116-1.52a.983.983 0 0 1-.226-1.37zm-2.083 9.122c2.216 1.59 4.37 1.308 5.868-.78 1.478-2.062 1.05-4.217-1.138-5.786l-1.528-1.1L26 32.65zM41.044 32.35a.92.92 0 0 1 1.3-.45l2.556 1.332c2.448 1.275 3.26 3.116 2.2 5.15-1.084 2.082-3 2.483-5.56 1.153l-1.76-.916-1.51 2.906a.725.725 0 0 1-1.062.36l-.23-.12a.7.7 0 0 1-.283-1.06zm1.192 5.93c1.515.79 2.638.538 3.275-.686.647-1.24.2-2.29-1.3-3.07l-1.82-.947-1.96 3.764zM49.35 36.57a.92.92 0 0 1 1.248-.584l2.955 1.16c2.537 1 3.47 2.583 2.664 4.638-.693 1.767-2.226 2.462-4.3 1.835l1.617 4.8c.042.127-.538.566-1.23.3a1.35 1.35 0 0 1-.822-1.066l-1.476-4.6-1.14-.448-1.32 3.374a.726.726 0 0 1-1.018.47l-.225-.087c-.45-.176-.57-.576-.356-1.122zm2.2 5.59c1.525.6 2.525.174 2.966-.95.472-1.2-.053-2.132-1.578-2.73l-2.138-.84-1.436 3.66zM58.7 39.75a.7.7 0 0 1 .964-.552l.23.07a.7.7 0 0 1 .5 1l-2.834 9.255a.7.7 0 0 1-.98.548l-.23-.07a.7.7 0 0 1-.488-1zM67.713 41.11c2.73.595 3.777 2.447 3.612 3.2a1.04 1.04 0 0 1-1.216.725 3.61 3.61 0 0 0-2.72-2.357c-2.21-.48-4.125.852-4.653 3.28a3.91 3.91 0 0 0 2.9 4.94 3.308 3.308 0 0 0 3.568-1.22c.052-.077 1.053.353.877 1.162s-1.987 2.234-4.888 1.6a5.46 5.46 0 0 1-4.27-6.84 5.514 5.514 0 0 1 6.79-4.49zM72.923 43.356a.92.92 0 0 1 1.044-.9l6.436.65c.55.057.8.36.75.823l-.01.1c-.05.48-.35.71-.9.654l-5.613-.568-.314 3.106 4.342.44c.566.057.8.323.752.786l-.006.052c-.048.48-.35.71-.9.654l-4.342-.44-.34 3.365 5.715.577c.55.056.782.322.734.786l-.007.085a.7.7 0 0 1-.885.69l-6.538-.66a.906.906 0 0 1-.84-1.072zM85.073 44.3a.92.92 0 0 1 .913-1.033l3.67-.127c2.43-.084 3.793.887 3.858 2.765a2.4 2.4 0 0 1-1.882 2.463 2.73 2.73 0 0 1 2.508 2.656c.072 2.085-1.22 3.165-4.132 3.266l-3.635.126a.92.92 0 0 1-.983-.966zm4.527 3.71c1.31-.044 2.112-.762 2.075-1.83-.038-1.1-.782-1.647-2.23-1.6l-2.6.09.12 3.428zm.237 4.858c1.792-.062 2.515-.622 2.47-1.914q-.06-1.757-2.543-1.672l-2.757.1.125 3.584zM95.226 43.828a.92.92 0 0 1 .8-1.126l3.14-.455c2.7-.39 4.3.528 4.613 2.714.27 1.88-.716 3.242-2.827 3.722l3.784 3.374c.1.09-.185.76-.92.865a1.352 1.352 0 0 1-1.243-.516l-3.56-3.267-1.21.176.518 3.585a.725.725 0 0 1-.65.914l-.24.035c-.478.07-.782-.218-.866-.8zM99.9 47.6c1.622-.235 2.28-1.1 2.108-2.293-.185-1.28-1.1-1.828-2.723-1.592l-2.27.33.563 3.89zM109.434 39.87a5.468 5.468 0 0 1 6.966 4.115 5.653 5.653 0 1 1-10.9 3 5.53 5.53 0 0 1 3.934-7.115zm2.635 9.692c2.18-.594 3.26-2.675 2.608-5.073s-2.667-3.694-4.848-3.1-3.26 2.674-2.6 5.09c.646 2.397 2.658 3.675 4.84 3.082zM119.047 37.42c-.01-.388.167-.685.916-.993.766-.315 1.084-.222 1.35.06l7.6 7.952c.1.107-.212.664-.707.868a1.093 1.093 0 0 1-1.288-.366l-1.873-1.97-4.132 1.7.062 2.735a1.025 1.025 0 0 1-.6 1.124c-.478.2-1.085.037-1.1-.126zm5.037 4.4l-3.457-3.69.14 5.054zM125.987 35.043a.94.94 0 0 1 .34-1.336l2.378-1.33c3.313-1.854 6.3-1.15 8 1.89s.72 6.023-2.622 7.893l-2.274 1.272a.982.982 0 0 1-1.34-.378zm7.373 5.76c2.38-1.33 3.04-3.4 1.785-5.644-1.238-2.215-3.37-2.74-5.72-1.427l-1.64.918 3.95 7.062zM135.644 29.486a.92.92 0 0 1 .18-1.367l2.977-2.158c1.97-1.427 3.643-1.383 4.747.14a2.4 2.4 0 0 1-.185 3.1 2.733 2.733 0 0 1 3.566.8c1.225 1.69.757 3.308-1.6 5.02l-2.947 2.135a.92.92 0 0 1-1.355-.253zm5.83.547c1.062-.77 1.327-1.814.7-2.68-.648-.895-1.57-.93-2.742-.08l-2.11 1.527 2.015 2.78zm2.91 3.9c1.454-1.053 1.74-1.922.98-2.97q-1.032-1.424-3.042.034l-2.235 1.62 2.106 2.905zM145.634 21.05c-.143-.36-.08-.7.52-1.247s.942-.58 1.29-.405l9.865 4.868c.13.067.028.7-.366 1.058a1.1 1.1 0 0 1-1.336.1l-2.436-1.21-3.3 3.013 1 2.55a1.026 1.026 0 0 1-.18 1.26c-.382.35-1.006.407-1.074.258zm6.24 2.408l-4.51-2.28 1.862 4.7zM151.316 16.384a.855.855 0 0 1-.2-1.294l.192-.222c.35-.4.655-.414 1.208-.37l9.538.946-5.823-5.032c-.4-.35-.466-.7-.127-1.092l.135-.157a.684.684 0 0 1 1.088-.018l7.18 6.205c.47.407.555.89.216 1.28l-.09.1a.95.95 0 0 1-1.025.37l-10.03-.984 6.018 5.2a.692.692 0 0 1 .117 1.105l-.124.145c-.327.378-.683.368-1.087.018zM158.6 7.888a.94.94 0 0 1-.3-1.345l1.517-2.265C161.927 1.124 164.9.4 167.8 2.336s3.374 5.04 1.242 8.224l-1.45 2.165a.983.983 0 0 1-1.364.27zm9.183 1.788c1.517-2.265 1.167-4.41-.97-5.84-2.107-1.41-4.246-.912-5.743 1.325l-1.047 1.564 6.724 4.5z"/></g></g></svg>