<svg xmlns="http://www.w3.org/2000/svg" viewBox="0 0 213.76 141.399"><defs><style>.cls-1{fill:#e5505a;}.cls-2{fill:#fff;}</style></defs><title>textfive</title><g id="Layer_2"><g id="Layer_1-2"><path class="cls-1" d="M0 0h213.76v135.55a5.208 5.208 0 0 1-5.57 5.85 8.968 8.968 0 0 1-6.06-2.385l-15.462-15.53a10.507 10.507 0 0 0-7.195-3.1L0 120.436z"/><path class="cls-2" d="M18.115 16.912v-.15c0-.57.33-.87.93-.87h14.22c.6 0 .93.3.93.87v.15c0 .54-.33.84-.93.84h-6.09v16.74c0 .63-.3.93-.9.93h-.27c-.57 0-.87-.3-.87-.93v-16.74h-6.09c-.6 0-.93-.3-.93-.84zM35.965 28.132a7.366 7.366 0 1 1 14.73.06 7.366 7.366 0 1 1-14.73-.06zm12.75.06c0-3.33-2.28-5.82-5.37-5.82a5.43 5.43 0 0 0-5.4 5.76c0 3.33 2.31 5.82 5.4 5.82a5.427 5.427 0 0 0 5.37-5.76zM52.436 21.982V21.8c0-.51.21-.78.93-.78h1.32v-2.49c0-.72.36-.93.87-.93h.21c.51 0 .84.21.84.93v2.49h3.81c.72 0 .93.27.93.78v.18c0 .51-.21.78-.93.78h-3.81v8.13c0 2.1.54 3.09 2.13 3.09a2.735 2.735 0 0 0 2.22-1.05c.06-.06.66.21.66.96 0 .81-1.05 1.77-2.94 1.77-2.79 0-3.99-1.59-3.99-4.56V22.76h-1.32c-.72 0-.93-.27-.93-.78zM63.266 31.64c0-3.328 3.33-4.71 9.93-4.858h.3v-.51c0-2.46-1.44-3.81-4.02-3.81a4.894 4.894 0 0 0-4.56 2.64 1.15 1.15 0 0 1-1.11-1.14c0-1.02 2.04-3.3 5.82-3.3 3.63 0 5.79 2.1 5.79 5.55v9c0 .06-.3.21-.66.21-.66 0-1.23-.33-1.23-1.89v-.54a6.326 6.326 0 0 1-5.34 2.64c-3.12 0-4.92-1.59-4.92-3.99zM73.5 29.633v-1.32l-.84.03c-4.89.18-7.41 1.05-7.41 3.3 0 1.44 1.17 2.37 3.12 2.37 2.93 0 5.13-1.83 5.13-4.38zM79.465 34.492v-19.41c0-.06.3-.21.66-.21.66 0 1.29.33 1.29 1.89v17.73c0 .72-.36.93-.87.93h-.21c-.51 0-.87-.21-.87-.93zM85.735 34.492v-19.41c0-.06.3-.21.66-.21.66 0 1.29.33 1.29 1.89v17.73c0 .72-.36.93-.87.93h-.21c-.51 0-.87-.21-.87-.93zM94.315 40.7l2.4-6.12a1.067 1.067 0 0 1-1.2-.75L90.3 21.473c-.03-.12.27-.57.96-.57s1.05.3 1.47 1.35l4.53 11.19 3.93-11.13c.36-1.05.81-1.41 1.44-1.41.54 0 1.02.42.99.51l-6.9 18.51c-.392 1.05-.87 1.29-1.38 1.29-.54 0-1.056-.42-1.025-.512zM29.816 65.532v-.45a5.662 5.662 0 0 1-4.86 2.58c-3.78 0-5.67-2.52-5.67-6.3v-7.53c0-.72.36-.93.87-.93h.21c.51 0 .87.21.87.93v7.41c0 2.88 1.44 4.59 3.99 4.59a4.993 4.993 0 0 0 4.56-3.03v-8.97c0-.72.36-.93.87-.93h.21c.51 0 .87.21.87.93v13.38c0 .06-.3.21-.66.21-.66 0-1.26-.33-1.26-1.89zM37.675 55.272a5.607 5.607 0 0 1 4.86-2.61c3.78 0 5.67 2.52 5.67 6.3v7.53c0 .72-.36.93-.87.93h-.21c-.51 0-.87-.21-.87-.93v-7.41c0-2.85-1.41-4.59-3.84-4.59a5.047 5.047 0 0 0-4.71 3.03v8.97c0 .72-.36.93-.87.93h-.21c-.51 0-.87-.21-.87-.93v-13.38c0-.06.3-.21.66-.21.66 0 1.26.33 1.26 1.89zM52.256 66.492v-19.41c0-.06.3-.21.66-.21.66 0 1.29.33 1.29 1.89v17.73c0 .72-.36.93-.87.93h-.21c-.51 0-.87-.21-.87-.93zM58.226 48.162a1.153 1.153 0 0 1 1.32-1.29 1.123 1.123 0 0 1 1.26 1.29 1.29 1.29 0 1 1-2.58 0zm.3 18.33v-12.66c0-.72.36-.93.87-.93h.21c.51 0 .87.21.87.93v12.66c0 .72-.36.93-.87.93H59.4c-.515 0-.874-.21-.874-.93zM66.566 55.152a5.474 5.474 0 0 1 4.5-2.49 4.733 4.733 0 0 1 4.74 3.06 5.734 5.734 0 0 1 5.07-3.06c3.6 0 5.52 2.07 5.52 6.03v7.8c0 .72-.36.93-.87.93h-.21c-.51 0-.87-.21-.87-.93v-7.68c0-2.85-1.23-4.32-3.69-4.32a4.91 4.91 0 0 0-4.26 2.88v9.12c0 .72-.36.93-.87.93h-.21c-.51 0-.87-.21-.87-.93v-7.53c0-3-1.23-4.47-3.69-4.47a4.91 4.91 0 0 0-4.26 2.88v9.12c0 .72-.36.93-.87.93h-.21c-.51 0-.87-.21-.87-.93v-13.38c0-.06.3-.21.66-.21.66 0 1.26.33 1.26 1.89zM90.146 48.162a1.153 1.153 0 0 1 1.32-1.29 1.123 1.123 0 0 1 1.26 1.29 1.29 1.29 0 1 1-2.58 0zm.3 18.33v-12.66c0-.72.36-.93.87-.93h.21c.51 0 .87.21.87.93v12.66c0 .72-.36.93-.87.93h-.21c-.516 0-.87-.21-.87-.93zM95.216 53.982V53.8c0-.51.21-.78.93-.78h1.32v-2.49c0-.72.36-.93.87-.93h.21c.51 0 .84.21.84.93v2.49h3.81c.72 0 .93.27.93.78v.18c0 .51-.21.78-.93.78h-3.81v8.13c0 2.1.54 3.09 2.13 3.09a2.735 2.735 0 0 0 2.22-1.05c.06-.06.66.21.66.96 0 .81-1.05 1.77-2.94 1.77-2.79 0-3.99-1.59-3.99-4.56V54.76h-1.32c-.72 0-.93-.27-.93-.78zM105.985 60.22c0-4.35 3.06-7.56 7.2-7.56 4.02 0 6.66 2.852 6.66 7.2v.18c0 .54-.21.66-.81.66h-11.1a5.27 5.27 0 0 0 5.43 5.22 5.132 5.132 0 0 0 4.89-2.55 1.155 1.155 0 0 1 1.14 1.11c0 .99-2.16 3.18-6.03 3.18a7.088 7.088 0 0 1-7.38-7.44zm2.01-1.2h9.78c-.18-2.82-1.92-4.65-4.59-4.65a5.22 5.22 0 0 0-5.19 4.652zM121.915 60.192c0-4.5 2.91-7.53 6.87-7.53a6.06 6.06 0 0 1 5.19 2.52v-8.1c0-.06.3-.21.66-.21.66 0 1.29.33 1.29 1.89v17.73c0 .72-.36.93-.87.93h-.21c-.51 0-.84-.21-.84-.93v-1.56a6.254 6.254 0 0 1-5.34 2.73c-3.78 0-6.75-2.94-6.75-7.47zm12.09 1.17v-3.63a5.2 5.2 0 0 0-5.07-3.36c-3.03 0-5.04 2.34-5.04 5.79 0 3.36 2.1 5.79 4.98 5.79a5.034 5.034 0 0 0 5.13-4.59zM145.344 66.492v-17.46a1.14 1.14 0 0 1 1.14-1.14h10.86c.6 0 .93.3.93.84v.18c0 .57-.33.84-.93.84h-9.96v7.32h7.53c.6 0 .93.3.93.84v.12c0 .57-.33.84-.93.84h-7.53v7.62c0 .63-.3.93-.9.93h-.27c-.57 0-.87-.3-.87-.93zM160.134 63.64c0-3.328 3.33-4.71 9.93-4.858h.3v-.51c0-2.46-1.44-3.81-4.022-3.81a4.894 4.894 0 0 0-4.56 2.64 1.15 1.15 0 0 1-1.11-1.14c0-1.02 2.04-3.3 5.82-3.3 3.63 0 5.79 2.1 5.79 5.55v9c0 .06-.3.21-.66.21-.66 0-1.23-.33-1.23-1.89v-.54a6.326 6.326 0 0 1-5.34 2.64c-3.118 0-4.918-1.59-4.918-3.99zm10.23-2.01v-1.318l-.84.03c-4.892.18-7.41 1.05-7.41 3.3 0 1.44 1.17 2.37 3.12 2.37 2.94 0 5.13-1.83 5.13-4.38zM175.1 64.752a1.166 1.166 0 0 1 1.05-1.05 5.722 5.722 0 0 0 4.89 2.31c2.37 0 3.69-.96 3.69-2.4 0-1.71-1.5-2.07-4.2-2.64-2.22-.48-5.01-1.11-5.01-3.99 0-2.55 2.16-4.32 5.46-4.32 3.48 0 5.28 1.65 5.28 2.73 0 .75-1.02 1.11-1.08 1.02a4.846 4.846 0 0 0-4.2-2.1c-2.34 0-3.6.99-3.6 2.4 0 1.53 1.35 1.95 3.99 2.52 2.31.51 5.25 1.14 5.25 4.08 0 2.64-2.16 4.35-5.64 4.35-3.806 0-5.88-1.83-5.88-2.91zM188.453 53.982V53.8c0-.51.21-.78.93-.78h1.32v-2.49c0-.72.36-.93.87-.93h.21c.51 0 .84.21.84.93v2.49h3.81c.72 0 .93.27.93.78v.18c0 .51-.21.78-.93.78h-3.81v8.13c0 2.1.54 3.09 2.13 3.09a2.735 2.735 0 0 0 2.22-1.05c.06-.06.66.21.66.96 0 .81-1.05 1.77-2.94 1.77-2.79 0-3.99-1.59-3.99-4.56V54.76h-1.32c-.72 0-.93-.27-.93-.78zM19.705 98.162v-17.13a1.14 1.14 0 0 1 1.14-1.14h6.21c4.11 0 6.33 1.8 6.33 5.1 0 2.04-1.17 3.51-3.36 4.23 2.88.63 4.2 2.46 4.2 4.71 0 3.54-2.25 5.37-6.988 5.37h-6.39a1.14 1.14 0 0 1-1.142-1.14zm7.44-9.6c2.49 0 4.14-1.38 4.14-3.48 0-2.22-1.41-3.36-4.23-3.36h-5.31v6.84zm.06 8.91c3.48 0 4.92-1.05 4.92-3.63 0-2.31-1.62-3.48-4.8-3.48h-5.58v7.11zM39.415 87.632a3.72 3.72 0 0 1 3.78-2.97c1.32 0 2.07.54 2.07 1.47 0 .72-.48 1.08-.54 1.02a2.477 2.477 0 0 0-1.74-.6c-2.55 0-3.54 2.67-3.54 6.33v5.61c0 .72-.36.93-.87.93h-.21c-.51 0-.87-.21-.87-.93v-13.38c0-.06.3-.21.66-.21.66 0 1.26.33 1.26 1.89zM46.675 92.132a7.366 7.366 0 1 1 7.38 7.53 7.18 7.18 0 0 1-7.38-7.53zm12.75.06c0-3.33-2.28-5.82-5.37-5.82a5.43 5.43 0 0 0-5.4 5.76c0 3.33 2.31 5.82 5.4 5.82a5.427 5.427 0 0 0 5.37-5.76zM63.6 95.64c0-3.328 3.33-4.71 9.93-4.858h.3v-.51c0-2.46-1.44-3.81-4.02-3.81a4.894 4.894 0 0 0-4.56 2.64 1.15 1.15 0 0 1-1.11-1.14c0-1.02 2.04-3.3 5.82-3.3 3.63 0 5.79 2.1 5.79 5.55v9c0 .06-.3.21-.66.21-.66 0-1.23-.33-1.23-1.89v-.54a6.326 6.326 0 0 1-5.34 2.64c-3.12 0-4.92-1.59-4.92-3.99zm10.23-2.01v-1.318l-.84.03c-4.892.18-7.41 1.05-7.41 3.3 0 1.44 1.17 2.37 3.12 2.37 2.935 0 5.125-1.83 5.125-4.38zM78.685 92.192c0-4.5 2.91-7.53 6.87-7.53a6.06 6.06 0 0 1 5.19 2.52v-8.1c0-.06.3-.21.66-.21.66 0 1.29.33 1.29 1.89v17.73c0 .72-.36.93-.87.93h-.21c-.51 0-.84-.21-.84-.93v-1.56a6.254 6.254 0 0 1-5.34 2.73c-3.78 0-6.75-2.94-6.75-7.47zm12.09 1.17v-3.63a5.2 5.2 0 0 0-5.07-3.36c-3.03 0-5.04 2.34-5.04 5.79 0 3.36 2.1 5.79 4.98 5.79a5.034 5.034 0 0 0 5.13-4.59zM98.634 97.112v1.38c0 .72-.33.93-.84.93h-.21c-.51 0-.87-.21-.87-.93v-19.41c0-.06.3-.21.66-.21.66 0 1.29.33 1.29 1.89v6.6a6.248 6.248 0 0 1 5.31-2.7c3.78 0 6.75 2.94 6.75 7.47 0 4.5-2.91 7.53-6.87 7.53a5.946 5.946 0 0 1-5.22-2.55zm10.11-4.95c0-3.36-2.1-5.79-4.98-5.79a5.327 5.327 0 0 0-5.13 3.39v3.36a4.978 4.978 0 0 0 5.07 4.83c3.03 0 5.04-2.34 5.04-5.79zM112.885 95.64c0-3.328 3.33-4.71 9.93-4.858h.3v-.51c0-2.46-1.44-3.81-4.02-3.81a4.894 4.894 0 0 0-4.56 2.64 1.15 1.15 0 0 1-1.11-1.14c0-1.02 2.04-3.3 5.82-3.3 3.63 0 5.79 2.1 5.79 5.55v9c0 .06-.3.21-.66.21-.66 0-1.23-.33-1.23-1.89v-.54a6.326 6.326 0 0 1-5.34 2.64c-3.12 0-4.92-1.59-4.92-3.99zm10.23-2.01v-1.318l-.84.03c-4.892.18-7.41 1.05-7.41 3.3 0 1.44 1.17 2.37 3.12 2.37 2.94 0 5.13-1.83 5.13-4.38zM130.854 87.272a5.607 5.607 0 0 1 4.86-2.61c3.78 0 5.67 2.52 5.67 6.3v7.53c0 .72-.36.93-.87.93h-.21c-.51 0-.87-.21-.87-.93v-7.41c0-2.85-1.41-4.59-3.84-4.59a5.047 5.047 0 0 0-4.71 3.03v8.97c0 .72-.36.93-.87.93h-.21c-.51 0-.87-.21-.87-.93v-13.38c0-.06.3-.21.66-.21.66 0 1.26.33 1.26 1.89zM144.323 92.192c0-4.5 2.91-7.53 6.87-7.53a6.06 6.06 0 0 1 5.19 2.52v-8.1c0-.06.3-.21.66-.21.66 0 1.29.33 1.29 1.89v17.73c0 .72-.36.93-.87.93h-.21c-.51 0-.84-.21-.84-.93v-1.56a6.254 6.254 0 0 1-5.34 2.73c-3.78 0-6.75-2.94-6.75-7.47zm12.09 1.17v-3.63a5.2 5.2 0 0 0-5.07-3.36c-3.03 0-5.04 2.34-5.04 5.79 0 3.36 2.1 5.79 4.98 5.79a5.034 5.034 0 0 0 5.13-4.59z"/></g></g></svg>