<?xml version="1.0" encoding="utf-8"?>
<!-- Generator: Adobe Illustrator 21.1.0, SVG Export Plug-In . SVG Version: 6.00 Build 0)  -->
<svg version="1.1" id="Layer_1" xmlns="http://www.w3.org/2000/svg" xmlns:xlink="http://www.w3.org/1999/xlink" x="0px" y="0px"
	 viewBox="0 0 256.9 159" style="enable-background:new 0 0 256.9 159;" xml:space="preserve">
<style type="text/css">
	.st0{fill:#E3505A;}
	.st1{fill:#1D4E89;}
	.st2{fill:#DD505A;}
	.st3{fill:#E9505A;}
	.st4{fill:#FFFFFF;}
</style>
<title>endframealt</title>
<path class="st0" d="M231,75.9c-21.9-9.6-47.4,0.3-57.1,22.2c-5.1,11.5-4.9,24.7,0.5,36.1l-8.9,20.2c-0.7,1.4-0.2,3.2,1.2,4
	c0.1,0.1,0.2,0.1,0.3,0.1c1.8,0.7,3.8,0.6,5.5-0.2l10.8-3.9c1.1-0.4,2-0.8,2.9-1.1l0.2-0.1c0.8-0.3,1.6-0.4,2.4-0.4h0.3h0.1
	c0.7,0,1.4,0.1,2,0.4l0.3,0.1l0.3,0.1l0.1,0.1l3.2,1.4l0,0c0.3,0.1,0.5,0.2,0.8,0.4c22,9.5,47.4-0.7,56.9-22.6
	C262.4,110.9,252.6,85.6,231,75.9"/>
<path class="st1" d="M0,123.1c0-1.9,1.9-2.7,6.2-2.8h0.2v-0.4c0.1-1.3-0.9-2.4-2.1-2.5c-0.2,0-0.3,0-0.5,0c-1.2-0.1-2.3,0.6-2.9,1.6
	c-0.3,0-0.5-0.2-0.5-0.5c0.1-0.3,0.2-0.6,0.5-0.8c0.8-0.7,1.9-1.1,3-1.1c1.7-0.2,3.2,1.1,3.4,2.7c0,0.2,0,0.4,0,0.5v5.4
	c-0.1,0.1-0.2,0.1-0.3,0.1c-0.3,0-0.5-0.2-0.5-0.9v-0.9c-0.7,1.2-2,1.9-3.4,1.9C1.1,125.4,0,124.5,0,123.1z M6.3,121.8V121H6.1
	c-3.7,0.1-5.2,0.7-5.2,2.1c0,1,0.8,1.6,2.1,1.6C4.7,124.9,6.2,123.6,6.3,121.8C6.3,121.9,6.3,121.9,6.3,121.8L6.3,121.8z"/>
<path class="st1" d="M12.8,124.9v-8.1c0.1-0.1,0.2-0.1,0.3-0.1c0.3,0,0.6,0.2,0.6,0.9v0.7c0.6-1.1,1.6-1.7,2.8-1.7
	c1.3-0.1,2.5,0.7,2.9,2c0.5-1.2,1.8-2,3.1-2c2.1,0,3.3,1.3,3.3,3.7v4.7c0,0.3-0.2,0.4-0.4,0.4h-0.1c-0.2,0-0.4-0.1-0.4-0.4v-4.6
	c0-1.9-0.9-2.9-2.5-2.9c-1.2,0-2.3,0.8-2.7,2v5.5c0,0.3-0.2,0.4-0.4,0.4h-0.1c-0.2,0-0.4-0.1-0.4-0.4v-4.8c0-1.7-0.8-2.7-2.5-2.7
	c-1.2,0-2.3,0.8-2.7,2v5.6c0,0.3-0.2,0.4-0.4,0.4h-0.1C12.9,125.3,12.8,125.2,12.8,124.9z"/>
<path class="st1" d="M27.6,121c0.1-2.4,2-4.3,4.4-4.2c2.4,0.1,4.3,2,4.2,4.4c-0.1,2.4-2,4.2-4.3,4.3c-2.3,0.1-4.3-1.8-4.4-4.1
	C27.6,121.2,27.6,121.1,27.6,121z M35.4,121c-0.1-1.9-1.7-3.4-3.7-3.3c-1.9,0.1-3.4,1.7-3.3,3.7c0.1,1.9,1.6,3.3,3.5,3.3
	c1.9,0,3.5-1.6,3.5-3.5C35.4,121.2,35.4,121.1,35.4,121L35.4,121z"/>
<path class="st1" d="M38.2,124.9v-8.1c0.1-0.1,0.2-0.1,0.3-0.1c0.3,0,0.6,0.2,0.6,0.9v0.8c0.6-1.1,1.8-1.8,3.1-1.8
	c2.3,0,3.4,1.5,3.4,3.8v4.5c0,0.3-0.2,0.4-0.4,0.4h-0.1c-0.2,0-0.4-0.1-0.4-0.4v-4.5c0-1.9-0.9-3-2.6-3c-1.3,0-2.5,0.8-3,2v5.5
	c0,0.3-0.2,0.4-0.4,0.4h-0.1C38.4,125.3,38.2,125.2,38.2,124.9z"/>
<path class="st1" d="M48.5,122.8v-5.3h-1c-0.3,0-0.4-0.1-0.4-0.3v-0.1c0-0.2,0.1-0.3,0.4-0.3h1v-1.6c0-0.3,0.2-0.4,0.4-0.4H49
	c0.2,0,0.4,0.1,0.4,0.4v1.7h2.5c0.3,0,0.4,0.1,0.4,0.3v0.1c0,0.2-0.1,0.3-0.4,0.3h-2.5v5.2c0,1.4,0.4,2,1.4,2c0.6,0,1.1-0.3,1.4-0.7
	c0,0,0.3,0.1,0.3,0.4c0,0.2-0.1,0.4-0.3,0.5c-0.4,0.4-0.9,0.5-1.4,0.5C49.2,125.4,48.5,124.6,48.5,122.8z"/>
<path class="st1" d="M53.9,124.9v-11.8c0,0,0.1-0.1,0.3-0.1c0.3,0,0.6,0.2,0.6,0.8v4.5c0.6-1.2,1.7-1.9,3-1.9c2.3,0,3.4,1.5,3.4,3.8
	v4.5c0,0.3-0.2,0.4-0.4,0.4h-0.1c-0.2,0-0.4-0.1-0.4-0.4v-4.5c0-1.9-0.9-3-2.6-3c-1.6-0.1-2.9,1.2-3,2.7c0,0.1,0,0.2,0,0.2v4.5
	c0,0.3-0.2,0.4-0.4,0.4h-0.1C54.1,125.3,53.9,125.2,53.9,124.9z"/>
<path class="st1" d="M0.9,93v-0.4c0-1,0.6-1.4,1.6-1.4h4.8l1.5-8.1c1.1-6.1,4.3-9.7,10.1-9.7c6,0,8.7,4.1,8.7,6.8c0,1.1-0.9,2-2,2
	c-0.2,0-0.3,0-0.5-0.1c-0.7-3.5-2.8-5.6-6.3-5.6c-4.1,0-5.8,2.2-6.6,6.8l-1.4,7.9h8.8c1.1,0,1.6,0.4,1.6,1.4V93c0,1-0.6,1.4-1.6,1.4
	h-9.4l-2,10.6h17c1.1,0,1.6,0.5,1.6,1.5v0.3c0,1-0.6,1.5-1.6,1.5H1.8c-1.1,0-1.6-0.5-1.6-1.5v-0.3c0-1,0.6-1.5,1.6-1.5h3l2-10.7H2.6
	C1.5,94.4,0.9,93.9,0.9,93z"/>
<path class="st1" d="M36.8,106.9V79.6c-0.9,1.3-2.4,2-3.9,2c-2.3,0-3.9-1.2-3.9-3c0-0.8,0.4-1.5,1.1-2c0.8,0.9,1.9,1.4,3,1.3
	c2.3,0,4.1-1.9,4.1-4.1h1.5c0.8-0.1,1.5,0.5,1.6,1.3c0,0.1,0,0.2,0,0.4v31.4c0,1.1-0.5,1.6-1.6,1.6h-0.5
	C37.3,108.5,36.8,108,36.8,106.9z"/>
<path class="st1" d="M68.9,93.1v-1.2c-2.8,2.6-6.4,4-10.1,4.1c-7.1,0-11.7-4.1-11.7-10.4v-0.3c-0.1-6.5,5.2-11.9,11.7-12
	c0.1,0,0.2,0,0.3,0c8.4,0,13.4,5.8,13.4,15.6v3.9c0,10.7-4.9,16.1-13.9,16.1c-6.9,0-10.3-3.5-10.3-5.6c0-1.3,1.9-2.1,2-2
	c1.8,2.9,5,4.6,8.4,4.5C65.5,105.9,68.9,101.8,68.9,93.1z M68.9,88.2c-0.3-7.3-3.6-11.8-9.5-11.8c-4.7-0.2-8.6,3.5-8.7,8.2
	c0,0.1,0,0.3,0,0.4v0.3c0,4.9,3,7.6,8.5,7.6C62.9,92.9,66.5,91.2,68.9,88.2L68.9,88.2z"/>
<path class="st1" d="M77,106.3v-0.5c-0.1-1.2,0.7-2.3,1.9-2.4c0.1,0,0.3,0,0.4,0h0.5c1.2-0.1,2.3,0.7,2.4,1.9c0,0.1,0,0.3,0,0.4v0.5
	c0.1,1.2-0.7,2.2-1.9,2.3c-0.2,0-0.3,0-0.5,0h-0.5c-1.2,0.1-2.2-0.7-2.3-1.9C77,106.6,77,106.4,77,106.3z"/>
<path class="st1" d="M107.8,93.1v-1.2c-2.8,2.6-6.4,4-10.1,4.1C90.6,96,86,91.9,86,85.6v-0.3c-0.1-6.5,5.2-11.9,11.7-12
	c0.1,0,0.2,0,0.3,0c8.4,0,13.4,5.8,13.4,15.6v3.9c0,10.7-4.9,16.1-13.9,16.1c-6.9,0-10.3-3.5-10.3-5.6c0-1.3,1.9-2.1,2-2
	c1.8,2.9,5,4.6,8.4,4.5C104.4,105.9,107.8,101.8,107.8,93.1z M107.8,88.2c-0.3-7.3-3.6-11.8-9.5-11.8c-4.7-0.2-8.6,3.5-8.7,8.2
	c0,0.1,0,0.3,0,0.4v0.3c0,4.9,3,7.6,8.5,7.6C101.8,92.9,105.4,91.2,107.8,88.2L107.8,88.2z"/>
<path class="st1" d="M119.6,88.9c2.4-1.2,5-1.8,7.6-1.8c7.2,0,12,4.2,12,10.8c0,6.8-4.9,11.1-12.8,11.1c-7,0-11.8-4-11.8-6.8
	c0-1.5,2-2.2,2.1-2c1.6,3.3,5,5.5,9.8,5.5c5.5,0,9.1-3,9.1-7.7c0-4.7-3.3-7.6-8.5-7.6c-3.1-0.1-6.2,0.7-8.7,2.5
	c-1.3,0-2.3-1-2.3-2.3c0-0.1,0-0.2,0-0.2V76c0-1.1,0.9-2,2-2c0,0,0,0,0,0h17.7c1.1,0,1.6,0.5,1.6,1.5v0.3c0,1-0.6,1.5-1.6,1.5h-16.3
	V88.9z"/>
<path class="st2" d="M2,21.1V1.3C2,0.6,2.5,0,3.2,0c0,0,0,0,0,0h12.3c0.7,0,1.1,0.3,1.1,1v0.2c0,0.6-0.4,1-1.1,1H4.3v8.3h8.5
	c0.7,0,1.1,0.3,1.1,1v0.1c0,0.6-0.4,1-1.1,1H4.3v8.6c0,0.7-0.3,1.1-1,1.1H2.9C2.3,22.1,2,21.8,2,21.1z"/>
<path class="st2" d="M18.7,17.8c0-3.8,3.8-5.3,11.3-5.5h0.3v-0.6c0-2.8-1.6-4.3-4.6-4.3c-2.2-0.1-4.2,1.1-5.2,3
	c-0.7,0-1.3-0.6-1.3-1.3c0-1.2,2.3-3.7,6.6-3.7c4.1,0,6.6,2.4,6.6,6.3v10.2c0,0.1-0.3,0.2-0.7,0.2c-0.7,0-1.4-0.4-1.4-2.1v-0.6
	c-1.4,1.9-3.7,3.1-6.1,3C20.8,22.4,18.7,20.6,18.7,17.8z M30.3,15.6v-1.5l-1,0c-5.5,0.2-8.4,1.2-8.4,3.7c0,1.6,1.3,2.7,3.5,2.7
	C27.8,20.5,30.3,18.5,30.3,15.6z"/>
<path class="st2" d="M35.7,19.1c0.1-0.6,0.6-1.1,1.2-1.2c1.3,1.7,3.4,2.7,5.5,2.6c2.7,0,4.2-1.1,4.2-2.7c0-1.9-1.7-2.3-4.8-3
	c-2.5-0.5-5.7-1.3-5.7-4.5c0-2.9,2.4-4.9,6.2-4.9c3.9,0,6,1.9,6,3.1c0,0.9-1.2,1.3-1.2,1.2c-1.1-1.6-2.9-2.5-4.8-2.4
	c-2.7,0-4.1,1.1-4.1,2.7c0,1.7,1.5,2.2,4.5,2.9c2.6,0.6,5.9,1.3,5.9,4.6c0,3-2.4,4.9-6.4,4.9C38,22.4,35.7,20.3,35.7,19.1z"/>
<path class="st2" d="M50.8,6.9V6.7c0-0.6,0.2-0.9,1.1-0.9h1.5V3c0-0.8,0.4-1.1,1-1.1h0.2c0.6,0,1,0.2,1,1.1v2.8h4.3
	c0.8,0,1.1,0.3,1.1,0.9v0.2c0,0.6-0.2,0.9-1.1,0.9h-4.3V17c0,2.4,0.6,3.5,2.4,3.5c1,0,1.9-0.4,2.5-1.2c0.1-0.1,0.7,0.2,0.7,1.1
	c0,0.9-1.2,2-3.3,2c-3.2,0-4.5-1.8-4.5-5.2V7.8h-1.5C51,7.8,50.8,7.5,50.8,6.9z"/>
<path class="st2" d="M2,50.7V31.3C2,30.6,2.5,30,3.2,30c0,0,0,0,0,0h7c4.7,0,7.2,2,7.2,5.8c0,2.3-1.3,4-3.8,4.8
	c3.3,0.7,4.8,2.8,4.8,5.3c0,4-2.6,6.1-7.9,6.1H3.2C2.5,52,2,51.4,2,50.7C2,50.7,2,50.7,2,50.7z M10.4,39.8c2.8,0,4.7-1.6,4.7-3.9
	c0-2.5-1.6-3.8-4.8-3.8h-6v7.8H10.4z M10.4,49.9c3.9,0,5.6-1.2,5.6-4.1c0-2.6-1.8-3.9-5.4-3.9H4.3v8.1L10.4,49.9z"/>
<path class="st2" d="M24.3,38.8c0.4-2,2.2-3.4,4.3-3.4c1.5,0,2.3,0.6,2.3,1.7c0,0.8-0.5,1.2-0.6,1.2c-0.5-0.5-1.3-0.7-2-0.7
	c-2.9,0-4,3-4,7.2v6.4c0,0.8-0.4,1.1-1,1.1h-0.2c-0.6,0-1-0.2-1-1.1V35.9c0-0.1,0.3-0.2,0.7-0.2c0.7,0,1.4,0.4,1.4,2.1L24.3,38.8z"
	/>
<path class="st2" d="M32.5,43.9c-0.1-4.6,3.6-8.4,8.2-8.5c4.6-0.1,8.4,3.6,8.5,8.2c0,0.1,0,0.2,0,0.4c0.1,4.6-3.6,8.4-8.2,8.5
	c-4.6,0.1-8.4-3.6-8.5-8.2C32.5,44.1,32.5,44,32.5,43.9z M47,43.9c0-3.8-2.6-6.6-6.1-6.6s-6.1,2.8-6.1,6.5s2.6,6.6,6.1,6.6
	C44.3,50.5,47,47.7,47,43.9z"/>
<path class="st2" d="M51.7,47.8c0-3.8,3.8-5.3,11.3-5.5h0.3v-0.6c0-2.8-1.6-4.3-4.6-4.3c-2.2-0.1-4.2,1.1-5.2,3
	c-0.7,0-1.3-0.6-1.3-1.3c0-1.2,2.3-3.7,6.6-3.7c4.1,0,6.6,2.4,6.6,6.3v10.2c0,0.1-0.3,0.2-0.7,0.2c-0.7,0-1.4-0.4-1.4-2.1v-0.6
	c-1.4,1.9-3.7,3.1-6.1,3C53.7,52.4,51.7,50.6,51.7,47.8z M63.3,45.6v-1.5l-1,0c-5.5,0.2-8.4,1.2-8.4,3.7c0,1.6,1.3,2.7,3.5,2.7
	C60.8,50.5,63.3,48.5,63.3,45.6z"/>
<path class="st2" d="M68.8,43.9c0-5.1,3.3-8.5,7.8-8.5c2.3-0.1,4.5,1,5.9,2.9v-9.2c0-0.1,0.3-0.2,0.7-0.2c0.7,0,1.5,0.4,1.5,2.1
	v20.1c0,0.8-0.4,1.1-1,1.1h-0.2c-0.6,0-1-0.2-1-1.1v-1.8c-1.4,2-3.6,3.2-6.1,3.1C72.2,52.4,68.8,49.1,68.8,43.9z M82.5,45.3v-4.1
	c-0.9-2.4-3.2-3.9-5.7-3.8c-3.4,0-5.7,2.7-5.7,6.6c0,3.8,2.4,6.6,5.6,6.6C79.7,50.5,82.2,48.3,82.5,45.3L82.5,45.3z"/>
<path class="st2" d="M91.4,49.5v1.6c0,0.8-0.4,1.1-1,1.1h-0.2c-0.6,0-1-0.2-1-1.1v-22c0-0.1,0.3-0.2,0.7-0.2c0.7,0,1.5,0.4,1.5,2.1
	v7.5c1.4-2,3.6-3.1,6-3.1c4.3,0,7.6,3.3,7.6,8.5c0,5.1-3.3,8.5-7.8,8.5C95,52.5,92.7,51.4,91.4,49.5z M102.9,43.9
	c0-3.8-2.4-6.6-5.6-6.6c-2.6-0.1-4.9,1.5-5.8,3.8V45c0.1,3.1,2.7,5.5,5.7,5.5C100.6,50.5,102.9,47.8,102.9,43.9L102.9,43.9z"/>
<path class="st2" d="M107.6,47.8c0-3.8,3.8-5.3,11.3-5.5h0.3v-0.6c0-2.8-1.6-4.3-4.6-4.3c-2.2-0.1-4.2,1.1-5.2,3
	c-0.7,0-1.3-0.6-1.3-1.3c0-1.2,2.3-3.7,6.6-3.7c4.1,0,6.6,2.4,6.6,6.3v10.2c0,0.1-0.3,0.2-0.7,0.2c-0.7,0-1.4-0.4-1.4-2.1v-0.6
	c-1.4,1.9-3.7,3.1-6.1,3C109.6,52.4,107.6,50.6,107.6,47.8z M119.1,45.6v-1.5l-1,0c-5.5,0.2-8.4,1.2-8.4,3.7c0,1.6,1.3,2.7,3.5,2.7
	C116.7,50.5,119.1,48.5,119.1,45.6L119.1,45.6z"/>
<path class="st2" d="M127.9,38.4c1.2-1.9,3.3-3,5.5-3c4.3,0,6.4,2.9,6.4,7.1v8.5c0,0.8-0.4,1.1-1,1.1h-0.2c-0.6,0-1-0.2-1-1.1v-8.4
	c0-3.2-1.6-5.2-4.4-5.2c-2.3,0-4.4,1.3-5.3,3.4v10.2c0,0.8-0.4,1.1-1,1.1h-0.2c-0.6,0-1-0.2-1-1.1V35.9c0-0.1,0.3-0.2,0.7-0.2
	c0.7,0,1.4,0.4,1.4,2.1L127.9,38.4z"/>
<path class="st2" d="M143.2,43.9c0-5.1,3.3-8.5,7.8-8.5c2.3-0.1,4.5,1,5.9,2.9v-9.2c0-0.1,0.3-0.2,0.7-0.2c0.7,0,1.5,0.4,1.5,2.1
	v20.1c0,0.8-0.4,1.1-1,1.1h-0.2c-0.6,0-1-0.2-1-1.1v-1.8c-1.4,2-3.6,3.2-6.1,3.1C146.6,52.4,143.2,49.1,143.2,43.9z M156.9,45.3
	v-4.1c-0.9-2.4-3.2-3.9-5.7-3.8c-3.4,0-5.7,2.7-5.7,6.6c0,3.8,2.4,6.6,5.6,6.6C154.1,50.5,156.6,48.3,156.9,45.3L156.9,45.3z"/>
<g>
	<path class="st3" d="M231.4,76.3c-21.9-9.6-47.4,0.3-57.1,22.2c-5.3,12-4.7,25.1,0.5,36.1l-8.9,20.2c-0.8,1.7-0.1,3.4,1.6,4.1
		c2.3,1,4.2,0.2,5.5-0.2l10.8-3.9c1.1-0.4,2-0.8,2.9-1.1l0.2-0.1c0.8-0.3,1.6-0.4,2.4-0.4l0.3,0l0.1,0c0.7,0,1.3,0.1,2,0.4l0.3,0.1
		l0.3,0.1l0.1,0.1l3.2,1.4l0,0c0.3,0.1,0.5,0.2,0.8,0.4c21.9,9.6,47.4-0.3,57.1-22.2S253.3,85.9,231.4,76.3"/>
	<g>
		<path class="st4" d="M182.6,108v-9.8c0-0.4,0.2-0.8,0.6-0.8h0.3c0.4,0,0.6,0.2,0.9,0.6l6,8.7V98c0-0.4,0.1-0.5,0.5-0.5h0.2
			c0.3,0,0.5,0.2,0.5,0.5v9.8c0,0.5-0.2,0.8-0.6,0.8h-0.1c-0.4,0-0.5-0.1-0.7-0.4l-6.3-9.2v9.1c0,0.4-0.1,0.5-0.5,0.5h-0.2
			C182.8,108.6,182.6,108.4,182.6,108z"/>
		<path class="st4" d="M193.4,104.4c0-2.4,1.8-4.2,4.2-4.2c2.4,0,4.2,1.8,4.2,4.3c0,2.4-1.8,4.2-4.2,4.2
			C195.1,108.7,193.4,106.9,193.4,104.4z M200.6,104.5c0-1.9-1.3-3.3-3-3.3s-3.1,1.4-3.1,3.3s1.3,3.3,3.1,3.3
			C199.3,107.7,200.6,106.4,200.6,104.5z"/>
		<path class="st4" d="M204.7,108.2l-2-7.5c0-0.1,0.3-0.3,0.6-0.3c0.3,0,0.5,0.2,0.7,0.8l1.5,6.4l1.7-5.5c0.1-0.3,0.3-0.5,0.8-0.5
			c0.6,0,0.7,0.1,0.8,0.5l1.7,5.5l1.5-6.4c0.1-0.6,0.4-0.8,0.7-0.8c0.3,0,0.6,0.3,0.6,0.3l-1.9,7.5c-0.1,0.3-0.2,0.4-0.8,0.4
			c-0.6,0-0.6-0.1-0.7-0.4l-1.8-5.5l-1.8,5.5c-0.1,0.3-0.2,0.4-0.7,0.4C204.9,108.6,204.8,108.5,204.7,108.2z"/>
		<path class="st4" d="M219.1,108.2l-2-7.5c0-0.1,0.3-0.3,0.6-0.3c0.3,0,0.5,0.2,0.7,0.8l1.5,6.4l1.7-5.5c0.1-0.3,0.3-0.5,0.8-0.5
			c0.6,0,0.7,0.1,0.8,0.5l1.7,5.5l1.5-6.4c0.1-0.6,0.4-0.8,0.7-0.8c0.3,0,0.6,0.3,0.6,0.3l-1.9,7.5c-0.1,0.3-0.2,0.4-0.8,0.4
			c-0.6,0-0.6-0.1-0.7-0.4l-1.8-5.5l-1.8,5.5c-0.1,0.3-0.2,0.4-0.7,0.4C219.2,108.6,219.1,108.5,219.1,108.2z"/>
		<path class="st4" d="M229.2,97.7c0-0.5,0.3-0.7,0.7-0.7c0.5,0,0.7,0.2,0.7,0.7s-0.3,0.7-0.7,0.7C229.5,98.4,229.2,98.1,229.2,97.7
			z M229.4,108v-7.2c0-0.4,0.2-0.5,0.5-0.5h0.1c0.3,0,0.5,0.1,0.5,0.5v7.2c0,0.4-0.2,0.5-0.5,0.5h-0.1
			C229.6,108.6,229.4,108.4,229.4,108z"/>
		<path class="st4" d="M232.1,101v-0.1c0-0.3,0.1-0.4,0.5-0.4h0.7V99c0-0.4,0.2-0.5,0.5-0.5h0.1c0.3,0,0.5,0.1,0.5,0.5v1.4h2.2
			c0.4,0,0.5,0.2,0.5,0.4v0.1c0,0.3-0.1,0.4-0.5,0.4h-2.2v4.6c0,1.2,0.3,1.8,1.2,1.8c0.6,0,1-0.2,1.3-0.6c0,0,0.4,0.1,0.4,0.5
			c0,0.5-0.6,1-1.7,1c-1.6,0-2.3-0.9-2.3-2.6v-4.7h-0.7C232.2,101.4,232.1,101.2,232.1,101z"/>
		<path class="st4" d="M239.8,101.7c0.6-0.9,1.5-1.5,2.7-1.5c2.1,0,3.2,1.4,3.2,3.6v4.3c0,0.4-0.2,0.5-0.5,0.5h-0.1
			c-0.3,0-0.5-0.1-0.5-0.5v-4.2c0-1.6-0.8-2.6-2.2-2.6c-1.6,0-2.7,1.1-2.7,2.8v4c0,0.4-0.2,0.5-0.5,0.5h-0.1c-0.3,0-0.5-0.1-0.5-0.5
			V97c0,0,0.2-0.1,0.4-0.1c0.4,0,0.7,0.2,0.7,1.1V101.7z"/>
		<path class="st4" d="M181.6,116.7c0.6-0.9,1.5-1.5,2.8-1.5c2.1,0,3.2,1.4,3.2,3.6v4.3c0,0.4-0.2,0.5-0.5,0.5h-0.1
			c-0.3,0-0.5-0.1-0.5-0.5v-4.2c0-1.6-0.8-2.6-2.2-2.6c-1.3,0-2.2,0.7-2.7,1.7v5.1c0,0.4-0.2,0.5-0.5,0.5H181
			c-0.3,0-0.5-0.1-0.5-0.5v-7.6c0,0,0.2-0.1,0.4-0.1c0.4,0,0.7,0.2,0.7,1.1V116.7z"/>
		<path class="st4" d="M189.2,119.4c0-2.4,1.8-4.2,4.2-4.2c2.4,0,4.2,1.8,4.2,4.3c0,2.4-1.8,4.2-4.2,4.2
			C190.9,123.7,189.2,121.9,189.2,119.4z M196.4,119.5c0-1.9-1.3-3.3-3-3.3s-3.1,1.4-3.1,3.3s1.3,3.3,3.1,3.3
			C195.1,122.7,196.4,121.4,196.4,119.5z"/>
		<path class="st4" d="M201.6,122.1c0-0.5,0.6-0.6,0.6-0.6c0.5,0.7,1.4,1.3,2.8,1.3s2.1-0.5,2.1-1.4c0-1-0.8-1.2-2.4-1.5
			c-1.3-0.3-2.8-0.6-2.8-2.3c0-1.4,1.2-2.4,3.1-2.4c2,0,3,0.9,3,1.5c0,0.4-0.6,0.6-0.6,0.6c-0.5-0.7-1.3-1.2-2.4-1.2
			c-1.3,0-2,0.6-2,1.4c0,0.9,0.8,1.1,2.3,1.4c1.3,0.3,3,0.6,3,2.3c0,1.5-1.2,2.5-3.2,2.5C202.7,123.7,201.6,122.7,201.6,122.1z"/>
		<path class="st4" d="M209.4,119.5c0-2.5,1.7-4.3,4.1-4.3c2.3,0,3.8,1.6,3.8,4.1v0.1c0,0.3-0.1,0.4-0.5,0.4h-6.3
			c0.1,1.7,1.3,3,3.1,3c1.6,0,2.3-0.7,2.8-1.4c0-0.1,0.6,0.1,0.6,0.6c0,0.6-1.2,1.8-3.4,1.8C211.1,123.7,209.4,122,209.4,119.5z
			 M210.5,118.8h5.5c-0.1-1.6-1.1-2.6-2.6-2.6C211.9,116.2,210.7,117.3,210.5,118.8z"/>
		<path class="st4" d="M218.2,116v-0.1c0-0.3,0.1-0.4,0.5-0.4h0.7V114c0-0.4,0.2-0.5,0.5-0.5h0.1c0.3,0,0.5,0.1,0.5,0.5v1.4h2.2
			c0.4,0,0.5,0.2,0.5,0.4v0.1c0,0.3-0.1,0.4-0.5,0.4h-2.2v4.6c0,1.2,0.3,1.8,1.2,1.8c0.6,0,1-0.2,1.3-0.6c0,0,0.4,0.1,0.4,0.5
			c0,0.5-0.6,1-1.7,1c-1.6,0-2.3-0.9-2.3-2.6v-4.7h-0.7C218.3,116.4,218.2,116.2,218.2,116z"/>
		<path class="st4" d="M224.4,119.5v-0.1c0-0.3,0.2-0.5,0.5-0.5h3.6c0.3,0,0.5,0.1,0.5,0.5v0.1c0,0.3-0.2,0.4-0.5,0.4H225
			C224.6,119.9,224.4,119.8,224.4,119.5z"/>
		<path class="st4" d="M236.9,122.5v-0.3c-0.6,0.9-1.5,1.5-2.8,1.5c-2.1,0-3.2-1.4-3.2-3.6v-4.3c0-0.4,0.2-0.5,0.5-0.5h0.1
			c0.3,0,0.5,0.1,0.5,0.5v4.2c0,1.6,0.8,2.6,2.3,2.6c1.2,0,2.1-0.7,2.6-1.7v-5.1c0-0.4,0.2-0.5,0.5-0.5h0.1c0.3,0,0.5,0.1,0.5,0.5
			v7.6c0,0-0.2,0.1-0.4,0.1C237.3,123.6,236.9,123.4,236.9,122.5z"/>
		<path class="st4" d="M240.3,126.3v-10.9c0,0,0.2-0.1,0.4-0.1c0.4,0,0.7,0.2,0.7,1.1v0.4c0.7-1,1.7-1.6,3-1.6
			c2.1,0,3.8,1.7,3.8,4.2c0,2.5-1.6,4.3-3.9,4.3c-1.4,0-2.5-0.8-2.9-1.5v4.2c0,0.4-0.2,0.5-0.5,0.5h-0.1
			C240.5,126.8,240.3,126.7,240.3,126.3z M247.1,119.5c0-1.9-1.2-3.3-2.8-3.3c-1.4,0-2.4,0.7-2.9,1.9v1.9c0,1.5,1.3,2.7,2.9,2.7
			C246,122.7,247.1,121.4,247.1,119.5z"/>
		<path class="st4" d="M202.4,131v-0.1c0-0.3,0.1-0.4,0.5-0.4h1.2v-0.7c0-1.9,0.8-2.9,2.4-2.9c1.1,0,1.6,0.5,1.6,1
			c0,0.4-0.3,0.6-0.3,0.5c-0.2-0.2-0.7-0.5-1.3-0.5c-0.9,0-1.3,0.6-1.3,1.9v0.7h1.6c0.4,0,0.5,0.2,0.5,0.4v0.1
			c0,0.3-0.1,0.4-0.5,0.4h-1.6v6.6c0,0.4-0.2,0.5-0.5,0.5h-0.1c-0.3,0-0.5-0.1-0.5-0.5v-6.6h-1.2C202.5,131.4,202.4,131.2,202.4,131
			z"/>
		<path class="st4" d="M208.5,134.5c0-2.5,1.7-4.3,4.1-4.3c2.3,0,3.8,1.6,3.8,4.1v0.1c0,0.3-0.1,0.4-0.5,0.4h-6.3
			c0.1,1.7,1.3,3,3.1,3c1.6,0,2.3-0.7,2.8-1.4c0-0.1,0.6,0.1,0.6,0.6c0,0.6-1.2,1.8-3.4,1.8C210.2,138.7,208.5,137,208.5,134.5z
			 M209.6,133.8h5.5c-0.1-1.6-1.1-2.6-2.6-2.6C211,131.2,209.8,132.3,209.6,133.8z"/>
		<path class="st4" d="M217.5,134.5c0-2.5,1.7-4.3,4.1-4.3c2.3,0,3.8,1.6,3.8,4.1v0.1c0,0.3-0.1,0.4-0.5,0.4h-6.3
			c0.1,1.7,1.3,3,3.1,3c1.6,0,2.3-0.7,2.8-1.4c0-0.1,0.6,0.1,0.6,0.6c0,0.6-1.2,1.8-3.4,1.8C219.2,138.7,217.5,137,217.5,134.5z
			 M218.6,133.8h5.5c-0.1-1.6-1.1-2.6-2.6-2.6C220,131.2,218.9,132.3,218.6,133.8z"/>
	</g>
</g>
</svg>
