<svg xmlns="http://www.w3.org/2000/svg" viewBox="0 0 164.78 23.53"><defs><style>.cls-1 { fill: #394347; }</style></defs><title>caveat</title><g id="Layer_2"><g id="Layer_1-2"><path class="cls-1" d="M.11.82V.76C.11.53.24.41.48.41h5.69c.24 0 .37.12.37.35v.06c0 .22-.13.34-.37.34H3.73v6.68c0 .25-.12.37-.36.37h-.11c-.23 0-.35-.12-.35-.37V1.15H.48C.24 1.15.11 1 .11.82zM7 6.7c0-1.33 1.33-1.88 4-1.94h.12v-.2A1.41 1.41 0 0 0 9.45 3a2 2 0 0 0-1.82 1.09.46.46 0 0 1-.44-.46c0-.41.82-1.32 2.33-1.32a2.09 2.09 0 0 1 2.31 2.22v3.6s-.12.08-.26.08-.49-.13-.49-.76v-.21A2.53 2.53 0 0 1 8.94 8.3C7.69 8.3 7 7.66 7 6.7zm4.09-.8v-.53h-.34c-2 .07-3 .42-3 1.32 0 .58.47.95 1.25.95a1.86 1.86 0 0 0 2.06-1.74zM13.15 7.84V.08s.12-.08.26-.08.52.13.52.76v7.08c0 .29-.14.37-.35.37h-.08c-.2.01-.35-.08-.35-.37zM15.3 7.84V.08s.12-.08.26-.08.52.13.52.76v4.31l2.3-2.35c.22-.23.37-.31.53-.31.31 0 .42.35.38.38l-2.36 2.36 2.73 2.66s-.1.41-.42.41c-.14 0-.28-.07-.5-.3l-2.66-2.65v2.57c0 .29-.14.37-.35.37h-.08c-.21.01-.35-.08-.35-.37zM19.8.82V.76c0-.23.13-.35.37-.35h5.68c.24 0 .37.12.37.35v.06c0 .22-.13.34-.37.34h-2.43v6.68c0 .25-.12.37-.36.37H23c-.23 0-.35-.12-.35-.37V1.15h-2.48c-.24 0-.37-.15-.37-.33zM26.66 6.7c0-1.33 1.33-1.88 4-1.94h.12v-.2A1.42 1.42 0 0 0 29.15 3a2 2 0 0 0-1.82 1.06.46.46 0 0 1-.44-.46c0-.41.82-1.32 2.33-1.32a2.09 2.09 0 0 1 2.32 2.22v3.6s-.12.08-.26.08-.49-.13-.49-.76v-.18a2.53 2.53 0 0 1-2.16 1.06c-1.25 0-1.97-.64-1.97-1.6zm4.09-.8v-.53h-.34c-2 .07-3 .42-3 1.32 0 .58.47.95 1.25.95a1.86 1.86 0 0 0 2.09-1.74zM32.84 7.84V.08S33 0 33.11 0s.52.13.52.76v7.08c0 .29-.14.37-.35.37h-.08c-.2.01-.36-.08-.36-.37zM35 7.84V.08s.12-.08.26-.08.52.13.52.76v4.31l2.3-2.35c.22-.23.37-.31.53-.31.31 0 .42.35.38.38l-2.37 2.36 2.73 2.66s-.1.41-.42.41c-.14 0-.28-.07-.5-.3l-2.66-2.65v2.57c0 .29-.14.37-.35.37h-.08c-.21.01-.34-.08-.34-.37zM41.87 7.84v-7a.46.46 0 0 1 .46-.46h4.34c.24 0 .37.12.37.34v.1c0 .23-.13.34-.37.34h-4v2.92h3c.24 0 .37.12.37.34 0 .23-.13.34-.37.34h-3v3c0 .25-.12.37-.36.37h-.11c-.2.09-.33-.03-.33-.29zM47.48 6.7c0-1.33 1.33-1.88 4-1.94h.12v-.2A1.42 1.42 0 0 0 50 3a2 2 0 0 0-1.82 1.06.46.46 0 0 1-.44-.46c0-.41.82-1.32 2.33-1.32a2.09 2.09 0 0 1 2.32 2.22v3.6s-.12.08-.26.08-.49-.13-.49-.76v-.18a2.53 2.53 0 0 1-2.19 1.06c-1.25 0-1.97-.64-1.97-1.6zm4.09-.8v-.53h-.34c-2 .07-3 .42-3 1.32 0 .58.47.95 1.25.95a1.86 1.86 0 0 0 2.09-1.74zM53.17 7.15a.47.47 0 0 1 .42-.42 2.29 2.29 0 0 0 2 .92c.95 0 1.47-.38 1.47-1s-.6-.83-1.68-1.06c-.89-.19-2-.44-2-1.6s.86-1.73 2.18-1.73 2.11.66 2.11 1.09-.41.44-.43.41A1.94 1.94 0 0 0 55.52 3c-.94 0-1.44.4-1.44 1s.54.78 1.6 1 2.1.46 2.1 1.63-.86 1.74-2.25 1.74-2.36-.79-2.36-1.22zM58.21 2.84v-.07c0-.2.08-.31.37-.31h.53v-1c0-.29.14-.37.35-.37h.08c.2 0 .34.08.34.37v1h1.52c.29 0 .37.11.37.31v.07c0 .2-.08.31-.37.31h-1.52V6.4c0 .84.22 1.24.85 1.24a1.09 1.09 0 0 0 .89-.42s.26.08.26.38-.42.71-1.18.71c-1.12 0-1.59-.64-1.59-1.82V3.15h-.53c-.29 0-.37-.15-.37-.31zM62.22 5.34a2.87 2.87 0 0 1 2.88-3 2.61 2.61 0 0 1 2.66 2.88v.07c0 .22-.08.26-.32.26H63a2.11 2.11 0 0 0 2.17 2.09 2.05 2.05 0 0 0 2-1 .46.46 0 0 1 .46.44c0 .4-.86 1.27-2.41 1.27a2.83 2.83 0 0 1-3-3.01zm.8-.48h3.91A1.8 1.8 0 0 0 65.1 3 2.09 2.09 0 0 0 63 4.86zM69.44 3.5A1.49 1.49 0 0 1 71 2.31c.53 0 .83.22.83.59s-.19.43-.22.41a1 1 0 0 0-.7-.24c-1 0-1.42 1.07-1.42 2.53v2.24c0 .29-.14.37-.35.37H69c-.2 0-.35-.08-.35-.37V2.49s.12-.08.26-.08.5.13.5.76zM74.29 7.84v-7a.46.46 0 0 1 .46-.46h4.34c.24 0 .37.12.37.34v.1c0 .23-.13.34-.37.34h-4v2.92h3c.24 0 .37.12.37.34 0 .23-.13.34-.37.34h-3v3c0 .25-.12.37-.36.37h-.11c-.21.09-.33-.03-.33-.29zM80.21.52a.46.46 0 0 1 .52-.52.45.45 0 0 1 .5.52.52.52 0 1 1-1 0zm.12 7.33V2.78c0-.29.14-.37.35-.37h.08c.2 0 .35.08.35.37v5.06c0 .29-.14.37-.35.37h-.08c-.21.01-.35-.08-.35-.37zM83.24 7.29v.55c0 .29-.13.37-.34.37h-.08c-.2 0-.35-.08-.35-.37V.08s.12-.08.26-.08.52.13.52.76v2.63a2.5 2.5 0 0 1 2.12-1.08 2.74 2.74 0 0 1 2.7 3 2.77 2.77 0 0 1-2.75 3 2.38 2.38 0 0 1-2.08-1.02zm4-2a2.1 2.1 0 0 0-2-2.31 2.13 2.13 0 0 0-2.05 1.35V5.7a2 2 0 0 0 2 1.93 2.06 2.06 0 0 0 2.09-2.32zM89.77 3.5a1.49 1.49 0 0 1 1.51-1.19c.53 0 .83.22.83.59s-.19.43-.22.41a1 1 0 0 0-.7-.24c-1 0-1.42 1.07-1.42 2.53v2.24c0 .29-.14.37-.35.37h-.08c-.2 0-.35-.08-.35-.37V2.49s.12-.08.26-.08.5.13.5.76zM92.37 5.34a2.87 2.87 0 0 1 2.88-3 2.61 2.61 0 0 1 2.66 2.88v.07c0 .22-.08.26-.32.26h-4.44a2.11 2.11 0 0 0 2.17 2.09 2.05 2.05 0 0 0 2-1 .46.46 0 0 1 .46.44c0 .4-.86 1.27-2.41 1.27a2.83 2.83 0 0 1-3-3.01zm.8-.48h3.91A1.8 1.8 0 0 0 95.25 3a2.09 2.09 0 0 0-2.07 1.86zM104.73 7.46v-.18a2.26 2.26 0 0 1-1.94 1c-1.51 0-2.27-1-2.27-2.52v-3c0-.29.14-.37.35-.37h.13c.2 0 .35.08.35.37v3c0 1.15.58 1.83 1.59 1.83a2 2 0 0 0 1.82-1.21v-3.6c0-.29.14-.37.35-.37h.08c.2 0 .35.08.35.37v5.35s-.12.08-.26.08-.55-.13-.55-.75zM106.81 10.16V2.49s.12-.08.26-.08.5.13.5.76v.25a2.48 2.48 0 0 1 2.13-1.1 2.74 2.74 0 0 1 2.7 3 2.77 2.77 0 0 1-2.75 3 2.38 2.38 0 0 1-2.08-1.09v2.94c0 .29-.14.37-.35.37h-.08c-.14-.01-.33-.09-.33-.38zm4.81-4.85a2.1 2.1 0 0 0-2-2.31 2.13 2.13 0 0 0-2.05 1.35V5.7a2 2 0 0 0 2 1.93 2.06 2.06 0 0 0 2.05-2.32zM114.54 2.84v-.07c0-.2.08-.31.37-.31h.53v-1c0-.29.14-.37.35-.37h.08c.2 0 .34.08.34.37v1h1.52c.29 0 .37.11.37.31v.07c0 .2-.08.31-.37.31h-1.53V6.4c0 .84.22 1.24.85 1.24a1.1 1.1 0 0 0 .89-.42s.26.08.26.38-.42.71-1.18.71c-1.12 0-1.59-.64-1.59-1.82V3.15h-.53c-.28 0-.36-.15-.36-.31zM118.54 5.3a2.94 2.94 0 1 1 5.89 0 2.94 2.94 0 1 1-5.89 0zm5.1 0a2.16 2.16 0 1 0-4.31 0 2.19 2.19 0 0 0 2.16 2.33 2.17 2.17 0 0 0 2.15-2.3zM129.27 8.31c-1.86 0-2.76-1.12-2.76-1.7 0-.43.46-.52.47-.47a2.28 2.28 0 0 0 2.3 1.46c1.22 0 2-.61 2-1.57s-.73-1.62-2.09-1.62h-.67c-.3 0-.4-.14-.4-.32V4c0-.24.13-.32.37-.32h.83c1.14 0 1.73-.52 1.73-1.38S130.4 1 129.28 1a2.17 2.17 0 0 0-2 1.22s-.47-.1-.47-.44c0-.54 1-1.48 2.51-1.48s2.61.76 2.61 2.06A1.62 1.62 0 0 1 130.6 4a2 2 0 0 1 1.52 2c.01 1.44-1.12 2.31-2.85 2.31zM132.9 6.14a2 2 0 0 1 1.58-2 1.76 1.76 0 0 1-1.36-1.78c0-1.26 1.06-2.13 2.69-2.13s2.66.83 2.66 2.11a1.81 1.81 0 0 1-1.35 1.79 2 2 0 0 1 1.58 2c0 1.26-1.18 2.18-2.9 2.18s-2.9-.87-2.9-2.17zm5 0c0-.94-.77-1.56-2.09-1.56s-2.09.61-2.09 1.56.77 1.52 2.1 1.52 2.07-.66 2.07-1.57zm-.23-3.67c0-.88-.66-1.48-1.86-1.48s-1.86.56-1.86 1.48.68 1.4 1.87 1.4 1.84-.57 1.84-1.45zM139.84 7.84v-7a.53.53 0 0 1 .59-.52h.19c.42 0 .53.19.71.61l2 4.52L145.42 1c.18-.42.29-.61.71-.61h.17a.53.53 0 0 1 .59.52v7c0 .25-.11.37-.35.37h-.1c-.23 0-.34-.12-.34-.37V1.3l-2 4.43a.7.7 0 0 1-.71.52.69.69 0 0 1-.71-.52l-2-4.43v6.54c0 .25-.1.37-.34.37h-.12c-.28.01-.38-.11-.38-.37zM149.08 7.29v.55c0 .29-.13.37-.34.37h-.08c-.2 0-.35-.08-.35-.37V.08s.12-.08.26-.08.52.13.52.76v2.63a2.5 2.5 0 0 1 2.12-1.08 2.74 2.74 0 0 1 2.7 3 2.77 2.77 0 0 1-2.75 3 2.38 2.38 0 0 1-2.08-1.02zm4-2a2.1 2.1 0 0 0-2-2.31 2.13 2.13 0 0 0-2.05 1.35V5.7a2 2 0 0 0 2 1.93 2.06 2.06 0 0 0 2.09-2.32zM4.37 16c.18-.47.32-.58.56-.58s.4.19.38.23l-2.1 5.29c-.08.2-.17.31-.56.31s-.44-.08-.53-.29L0 15.64s.11-.23.38-.23.41.11.59.58l1.68 4.49zM7.86 20.71v-6.85a.46.46 0 0 1 .46-.46h2.48c1.64 0 2.53.72 2.53 2A1.72 1.72 0 0 1 12 17.14 1.88 1.88 0 0 1 13.66 19c0 1.42-.9 2.15-2.79 2.15H8.32a.46.46 0 0 1-.46-.44zm3-3.84c1 0 1.65-.55 1.65-1.39s-.56-1.34-1.69-1.34H8.68v2.73zm0 3.56c1.39 0 2-.42 2-1.45s-.65-1.39-1.92-1.39H8.68v2.84zM14.16 13.82v-.06c0-.23.13-.35.37-.35h5.69c.24 0 .37.12.37.35v.06c0 .22-.13.34-.37.34h-2.44v6.69c0 .25-.12.37-.36.37h-.11c-.23 0-.35-.12-.35-.37v-6.7h-2.43c-.24 0-.37-.15-.37-.33zM23.12 18.11v-4.38c0-.24.12-.37.35-.37h.11a.33.33 0 0 1 .36.37V18c0 1.67.74 2.53 2.22 2.53s2.22-.84 2.22-2.54v-4.26c0-.25.1-.37.34-.37h.14c.23 0 .32.12.32.37v4.34c0 2.1-1.08 3.24-3 3.24s-3.06-1.11-3.06-3.2zM31.26 16.36a2.24 2.24 0 0 1 1.94-1c1.51 0 2.27 1 2.27 2.52v3c0 .29-.14.37-.35.37H35c-.2 0-.35-.08-.35-.37v-3c0-1.14-.56-1.83-1.54-1.83a2 2 0 0 0-1.88 1.21v3.59c0 .29-.14.37-.35.37h-.08c-.2 0-.35-.08-.35-.37v-5.36s.12-.08.26-.08.5.13.5.76zM36.79 20.84v-7.76s.12-.08.26-.08.52.13.52.76v7.09c0 .29-.14.37-.35.37h-.08c-.2 0-.35-.09-.35-.38zM38.88 13.52a.46.46 0 0 1 .53-.52.45.45 0 0 1 .5.52.52.52 0 1 1-1 0zm.12 7.32v-5.06c0-.29.14-.37.35-.37h.08c.2 0 .35.08.35.37v5.06c0 .29-.14.37-.35.37h-.08c-.21.01-.35-.08-.35-.37zM41.91 16.31a2.19 2.19 0 0 1 1.8-1 1.89 1.89 0 0 1 1.9 1.22 2.29 2.29 0 0 1 2-1.22c1.44 0 2.21.83 2.21 2.41v3.12c0 .29-.14.37-.35.37h-.08c-.2 0-.35-.08-.35-.37v-3.07c0-1.14-.49-1.73-1.48-1.73a2 2 0 0 0-1.7 1.15v3.65c0 .29-.14.37-.35.37h-.08c-.2 0-.35-.08-.35-.37v-3c0-1.2-.49-1.79-1.48-1.79a2 2 0 0 0-1.7 1.15v3.65c0 .29-.14.37-.35.37h-.08c-.2 0-.35-.08-.35-.37v-5.36s.12-.08.26-.08.5.13.5.76zM51 13.52a.46.46 0 0 1 .53-.52.45.45 0 0 1 .5.52.52.52 0 1 1-1 0zm.12 7.33v-5.07c0-.29.14-.37.35-.37h.08c.2 0 .35.08.35.37v5.06c0 .29-.14.37-.35.37h-.08c-.16.01-.3-.08-.3-.37zM52.78 15.84v-.07c0-.2.08-.31.37-.31h.53v-1c0-.29.14-.37.35-.37h.08c.2 0 .34.08.34.37v1H56c.29 0 .37.11.37.31v.07c0 .2-.08.31-.37.31h-1.56v3.25c0 .84.22 1.24.85 1.24a1.09 1.09 0 0 0 .89-.42s.26.08.26.38-.42.71-1.18.71c-1.12 0-1.59-.64-1.59-1.82v-3.34h-.53c-.28 0-.36-.15-.36-.31zM56.78 18.34a2.87 2.87 0 0 1 2.88-3 2.61 2.61 0 0 1 2.66 2.88v.07c0 .22-.08.26-.32.26h-4.44a2.11 2.11 0 0 0 2.17 2.09 2.05 2.05 0 0 0 2-1 .46.46 0 0 1 .46.44c0 .4-.86 1.27-2.41 1.27a2.83 2.83 0 0 1-3-3.01zm.8-.48h3.92A1.8 1.8 0 0 0 59.66 16a2.09 2.09 0 0 0-2.07 1.86zM62.86 18.33a2.77 2.77 0 0 1 2.75-3 2.42 2.42 0 0 1 2.08 1v-3.25s.12-.08.26-.08.52.13.52.76v7.09c0 .29-.14.37-.35.37H68c-.2 0-.34-.08-.34-.37v-.62a2.5 2.5 0 0 1-2.13 1.09 2.74 2.74 0 0 1-2.67-2.99zm4.83.47v-1.46a2.1 2.1 0 0 0-4 1 2.1 2.1 0 0 0 2 2.31 2 2 0 0 0 2-1.86zM71.75 20.84v-7.11c0-.24.12-.37.35-.37h.11a.33.33 0 0 1 .36.37v7.11c0 .25-.12.37-.36.37h-.11c-.23.01-.35-.11-.35-.37zM74.88 16.36a2.24 2.24 0 0 1 1.94-1c1.51 0 2.27 1 2.27 2.52v3c0 .29-.14.37-.35.37h-.08c-.2 0-.35-.08-.35-.37v-3c0-1.14-.56-1.83-1.54-1.83a2 2 0 0 0-1.88 1.21v3.59c0 .29-.14.37-.35.37h-.08c-.2 0-.35-.08-.35-.37v-5.36s.12-.08.26-.08.5.13.5.76zM79.67 15.84v-.07c0-.2.08-.31.37-.31h.84v-.53c0-1.31.58-2 1.68-2 .77 0 1.14.32 1.14.67s-.2.4-.23.37a1.39 1.39 0 0 0-.91-.35c-.65 0-.92.42-.92 1.37v.49h1.15c.29 0 .37.11.37.31v.07c0 .2-.08.31-.37.31h-1.14v4.69c0 .29-.13.37-.34.37h-.08c-.2 0-.35-.08-.35-.37v-4.71H80c-.25 0-.33-.15-.33-.31zm4.58-2.33a.46.46 0 0 1 .53-.52.45.45 0 0 1 .5.52.52.52 0 1 1-1 0zm.12 7.33v-5.06c0-.29.14-.37.35-.37h.08c.2 0 .35.08.35.37v5.06c0 .29-.14.37-.35.37h-.08c-.21.01-.35-.08-.35-.37zM87.29 16.36a2.24 2.24 0 0 1 1.94-1c1.51 0 2.27 1 2.27 2.52v3c0 .29-.14.37-.35.37h-.08c-.2 0-.35-.08-.35-.37v-3c0-1.14-.56-1.83-1.54-1.83a2 2 0 0 0-1.88 1.21v3.59c0 .29-.14.37-.35.37h-.08c-.2 0-.35-.08-.35-.37v-5.36s.12-.08.26-.08.5.13.5.76zM92.7 13.52a.46.46 0 0 1 .53-.52.45.45 0 0 1 .5.52.52.52 0 1 1-1 0zm.12 7.33v-5.07c0-.29.14-.37.35-.37h.08c.2 0 .35.08.35.37v5.06c0 .29-.14.37-.35.37h-.08c-.17.01-.35-.08-.35-.37zM94.43 15.84v-.07c0-.2.08-.31.37-.31h.53v-1c0-.29.14-.37.35-.37h.08c.2 0 .34.08.34.37v1h1.52c.29 0 .37.11.37.31v.07c0 .2-.08.31-.37.31h-1.53v3.25c0 .84.22 1.24.85 1.24a1.09 1.09 0 0 0 .89-.42s.26.08.26.38-.42.71-1.18.71c-1.12 0-1.59-.64-1.59-1.82v-3.34h-.52c-.29 0-.37-.15-.37-.31zM99.8 23.33l1-2.45a.43.43 0 0 1-.48-.3l-2.09-4.94s.11-.23.38-.23.42.12.59.54l1.8 4.47 1.55-4.42c.14-.42.32-.56.58-.56s.41.17.4.2L100.76 23c-.16.42-.35.52-.55.52s-.42-.16-.41-.19zM107.13 20.84v-6.16a1.06 1.06 0 0 1-.89.44c-.52 0-.87-.28-.87-.68a.53.53 0 0 1 .25-.44.85.85 0 0 0 .68.3 1 1 0 0 0 .94-.94h.35a.33.33 0 0 1 .36.37v7.11c0 .25-.12.37-.36.37h-.11c-.23.01-.35-.11-.35-.37zM115.69 20.46v-.18a2.26 2.26 0 0 1-1.94 1c-1.51 0-2.27-1-2.27-2.52v-3c0-.29.14-.37.35-.37h.08c.2 0 .35.08.35.37v3c0 1.15.58 1.83 1.59 1.83a2 2 0 0 0 1.82-1.21v-3.6c0-.29.14-.37.35-.37h.08c.2 0 .35.08.35.37v5.35s-.12.08-.26.08-.5-.13-.5-.75zM117.77 23.16v-7.67s.12-.08.26-.08.5.13.5.76v.25a2.48 2.48 0 0 1 2.13-1.1 2.74 2.74 0 0 1 2.7 3 2.77 2.77 0 0 1-2.75 3 2.38 2.38 0 0 1-2.08-1.09v2.94c0 .29-.14.37-.35.37h-.08c-.19-.01-.33-.09-.33-.38zm4.81-4.85a2.1 2.1 0 0 0-2-2.31 2.13 2.13 0 0 0-2.05 1.35v1.35a2 2 0 0 0 2 1.93 2.06 2.06 0 0 0 2.04-2.32zM125.49 15.84v-.07c0-.2.08-.31.37-.31h.53v-1c0-.29.14-.37.35-.37h.08c.2 0 .34.08.34.37v1h1.52c.29 0 .37.11.37.31v.07c0 .2-.08.31-.37.31h-1.52v3.25c0 .84.22 1.24.85 1.24a1.1 1.1 0 0 0 .89-.42s.26.08.26.38-.42.71-1.18.71c-1.12 0-1.59-.64-1.59-1.82v-3.34h-.53c-.28 0-.37-.15-.37-.31zM129.5 18.3a2.94 2.94 0 1 1 5.89 0 2.94 2.94 0 1 1-5.89 0zm5.1 0a2.16 2.16 0 1 0-4.31 0 2.19 2.19 0 0 0 2.16 2.33 2.17 2.17 0 0 0 2.15-2.3zM137.58 13.79a.35.35 0 0 1 .37-.38h4.82c.37 0 .47.16.47.36v.07a1.46 1.46 0 0 1-.22.56l-3.48 6.52a.46.46 0 0 1-.43.29c-.28 0-.48-.28-.44-.34l3.62-6.67h-4.34a.34.34 0 0 1-.37-.36zM144.66 17.25a3.47 3.47 0 0 1 2.29-.94 2.36 2.36 0 0 1 2.65 2.35v.06a2.58 2.58 0 0 1-2.72 2.59c-2 0-3-1.44-3-3.54v-.87c0-2.27 1.2-3.63 3.08-3.63 1.56 0 2.34.79 2.34 1.27 0 .29-.42.48-.44.44a2.14 2.14 0 0 0-1.89-1c-1.42 0-2.28 1-2.28 2.89zm0 .83c.08 1.58.83 2.54 2.16 2.54a1.82 1.82 0 0 0 2-1.82v-.07c0-1.1-.68-1.73-1.93-1.73a2.93 2.93 0 0 0-2.22 1.07zM150.7 20.84v-7a.53.53 0 0 1 .59-.52h.19c.42 0 .53.19.71.61l2 4.52 2.09-4.45c.18-.42.29-.61.71-.61h.17a.53.53 0 0 1 .59.52v7c0 .25-.11.37-.35.37h-.1c-.23 0-.34-.12-.34-.37V14.3l-2 4.43a.7.7 0 0 1-.71.52.69.69 0 0 1-.71-.52l-2-4.43v6.55c0 .25-.1.37-.34.37h-.2c-.2 0-.3-.12-.3-.38zM159.94 20.29v.55c0 .29-.13.37-.34.37h-.08c-.2 0-.35-.08-.35-.37v-7.76s.12-.08.26-.08.52.13.52.76v2.64a2.5 2.5 0 0 1 2.12-1.08 2.74 2.74 0 0 1 2.7 3 2.77 2.77 0 0 1-2.75 3 2.38 2.38 0 0 1-2.08-1.03zm4-2A2.1 2.1 0 0 0 162 16a2.13 2.13 0 0 0-2.05 1.35v1.35a2 2 0 0 0 2 1.93 2.06 2.06 0 0 0 2.05-2.32z"/></g></g></svg>