<svg xmlns="http://www.w3.org/2000/svg" viewBox="0 0 74.2 88.1" enable-background="new 0 0 74.2 88.1"><style type="text/css">.st0{fill:#E9505A;}</style><title>calendar</title><g id="Layer_2"><path class="st0" d="M61.4 0v5.2c1.9 1.2 2.4 3.7 1.2 5.5-1.2 1.9-3.7 2.4-5.5 1.2s-2.4-3.7-1.2-5.5c.3-.5.7-.9 1.2-1.2V0H39.3v5.2c1.9 1.2 2.4 3.7 1.2 5.5-1.2 1.9-3.7 2.4-5.5 1.2s-2.4-3.7-1.2-5.5c.3-.5.7-.9 1.2-1.2V0H17.2v5.2c1.9 1.2 2.4 3.7 1.2 5.5-1.2 1.9-3.7 2.4-5.5 1.2s-2.4-3.7-1.2-5.5c.3-.5.7-.9 1.2-1.2V0H0v86.1c0 .6.2 1.1.6 1.5.4.3.8.5 1.3.4.7 0 1.5-.3 2-.8l6.6-6.5c.6-.6 1.5-1 2.4-1h61.4V0H61.4z" id="Layer_1-2"/></g></svg>