<svg xmlns="http://www.w3.org/2000/svg" viewBox="0 0 66.2 85.7" enable-background="new 0 0 66.2 85.7"><style type="text/css">.st0{fill:#FFFFFF;}</style><title>Artboard 1</title><path class="st0" d="M7.9 49.7c0-.5.3-.8.8-.8h7.4c.5 0 .8.2.8.7v.1c0 .5-.3.7-.8.7h-2.9v8.3c0 .5-.3.8-.7.8h-.2c-.5 0-.7-.3-.7-.8v-8.3H8.7c-.5 0-.8-.3-.8-.7zM17.5 54.2c0-3.2 2.2-5.5 5.3-5.5s5.3 2.2 5.3 5.4-2.2 5.4-5.3 5.4c-3.1.1-5.3-2.2-5.3-5.3zm8.9 0c0-2.3-1.5-4-3.6-4s-3.6 1.6-3.6 4c0 2.3 1.5 4 3.6 4s3.6-1.7 3.6-4zM29.5 58.4v-8.6c0-.6.4-.9.9-.9H33c3.6 0 5.7 1.9 5.7 5.2s-2.2 5.2-5.7 5.2h-2.4c-.7.1-1.1-.4-1.1-.9zm3.4-.5c2.6 0 4-1.4 4-3.8s-1.5-3.8-4-3.8h-1.8v7.6h1.8zM46.1 56.3h-4.2l-.9 2.4c-.2.6-.6.8-.9.8-.5 0-1-.4-.9-.5l3.7-9.6c.1-.3.4-.5 1.1-.5.8 0 1 .2 1.1.5l3.7 9.6c0 .1-.4.5-.9.5-.4 0-.8-.2-1-.8l-.8-2.4zM42.3 55h3.4L44 50.5 42.3 55zM52.6 58.7v-3.6l-3.7-5.6c0-.1.3-.7 1-.7.3 0 .6.2.8.6l2.7 4.3 2.7-4.3c.3-.4.5-.6.8-.6.7 0 1.1.6 1 .7l-3.7 5.6v3.6c0 .5-.2.8-.7.8h-.2c-.5-.1-.7-.3-.7-.8zM8.9 36v-9.4c0-.5.2-.8.7-.8h.2c.5 0 .7.3.7.8v3.9h5.7v-3.9c.1-.5.3-.8.8-.8h.2c.5 0 .7.3.7.8V36c0 .5-.2.8-.7.8H17c-.5 0-.7-.3-.7-.8v-4h-5.8v3.9c0 .5-.2.8-.7.8h-.2c-.5.1-.7-.1-.7-.7zM19.8 32.3v-5.7c0-.5.3-.8.7-.8h.2c.5 0 .7.3.7.8v5.7c0 2.1.9 3.1 2.7 3.1 1.9 0 2.7-1 2.7-3.2v-5.6c.1-.6.3-.8.8-.8h.4c.5 0 .7.2.7.8v5.7c0 3-1.6 4.7-4.5 4.7s-4.4-1.7-4.4-4.7zM36.4 36.1l-3-3.6h-1.2V36c0 .5-.2.8-.7.8h-.2c-.5 0-.7-.3-.7-.9v-9.1c0-.6.4-.9.9-.9h3.1c2.7 0 4 1.1 4 3.2 0 1.9-1.1 3-3.2 3.2l3.2 3.8c.1.1-.3.7-1 .7-.5 0-.8-.1-1.2-.7zm-4.1-5h2.3c1.6 0 2.4-.7 2.4-2s-.8-2-2.4-2h-2.3v4zM46 36.1l-3-3.6h-1.2V36c0 .5-.2.8-.7.8h-.2c-.5 0-.7-.3-.7-.9v-9.1c0-.6.4-.9.9-.9h3.1c2.7 0 4 1.1 4 3.2 0 1.9-1.1 3-3.2 3.2l3.2 3.8c.1.1-.3.7-1 .7-.5 0-.8-.1-1.2-.7zm-4.2-5h2.3c1.6 0 2.4-.7 2.4-2s-.8-2-2.4-2h-2.3v4zM52.4 36v-3.7l-3.8-5.8c0-.1.3-.7 1.1-.7.3 0 .6.2.8.6l2.8 4.5 2.8-4.5c.2-.4.5-.6.8-.6.7 0 1.1.6 1 .7l-3.8 5.8V36c0 .5-.2.8-.7.8h-.2c-.5 0-.8-.2-.8-.8zM8.7 43.2c0-1.8 1.2-3 2.9-3 1.8 0 2.9 1.2 2.9 3s-1.2 3-2.9 3-2.9-1.2-2.9-3zm4.9 0c0-1.2-.8-2.2-2-2.2s-2 .9-2 2.2.8 2.2 2 2.2 2-1 2-2.2zM15.5 45.6v-4.8c0-.3.2-.5.5-.5h3.1c.3 0 .4.1.4.4v.1c0 .2-.1.4-.4.4h-2.7V43h2c.3 0 .4.1.4.4 0 .2-.1.4-.4.4h-2v2c0 .3-.1.4-.4.4h-.1c-.3-.1-.4-.3-.4-.6zM20.2 45.6v-4.8c0-.3.2-.5.5-.5h3.1c.3 0 .4.1.4.4v.1c0 .2-.1.4-.4.4h-2.7V43h2c.3 0 .4.1.4.4 0 .2-.1.4-.4.4h-2v2c0 .3-.1.4-.4.4h-.1c-.2-.1-.4-.3-.4-.6zM25 45.6v-4.7c0-.3.2-.5.5-.5h3.3c.3 0 .4.1.4.4v.1c0 .2-.1.4-.4.4H26v1.6h2.3c.3 0 .4.1.4.4 0 .2-.1.4-.4.4H26v1.8h3c.3 0 .4.1.4.4 0 .3-.1.4-.4.4h-3.4c-.3-.2-.6-.4-.6-.7zM33.3 45.8l-1.5-2h-.6v1.9c0 .2-.1.4-.4.4h-.1c-.2 0-.4-.2-.4-.5v-4.8c0-.3.2-.5.5-.5h1.6c1.4 0 2.2.6 2.2 1.8 0 .9-.6 1.6-1.8 1.6l1.6 2c0 .1-.1.4-.5.4-.2 0-.4-.1-.6-.3zm-2.2-2.7h1.2c.8 0 1.2-.4 1.2-1s-.4-1-1.2-1h-1.1v2.1h-.1zM36.9 45.6v-4.7c0-.3.2-.5.5-.5h3.3c.3 0 .4.1.4.4v.1c0 .2-.1.4-.4.4h-2.9v1.6h2.3c.3 0 .4.1.4.4 0 .2-.1.4-.4.4h-2.3v1.8h3c.3 0 .4.1.4.4 0 .3-.1.4-.4.4h-3.4c-.3-.2-.5-.4-.5-.7zM42.1 45.7v-4.9c0-.3.1-.5.4-.5h.2c.3 0 .4.1.5.3l2.9 4v-4c0-.3.1-.4.4-.4h.1c.2 0 .4.1.4.4v4.9c0 .3-.2.5-.4.5h-.1c-.3 0-.3-.1-.5-.3l-3-4.2v4.1c0 .3-.1.4-.4.4h-.1c-.3.1-.4 0-.4-.3zM48.1 45.6v-4.7c0-.3.2-.5.5-.5H50c2 0 3.1 1 3.1 2.9 0 1.8-1.2 2.9-3.2 2.9h-1.3c-.3-.1-.5-.4-.5-.6zm1.9-.3c1.4 0 2.3-.7 2.3-2.1s-.8-2.1-2.3-2.1h-.9v4.2h.9zM53.7 45.1c0-.3.4-.5.4-.5.3.5.9.9 1.8.9s1.2-.3 1.2-.9c0-.6-.7-.8-1.4-1-.9-.2-1.9-.5-1.9-1.6 0-.9.8-1.6 2.1-1.6s2 .6 2 1c0 .3-.4.5-.4.5-.3-.4-.8-.8-1.5-.8s-1.2.3-1.2.9.5.7 1.3.9c.9.2 2 .6 2 1.8 0 1-.8 1.8-2.2 1.8-1.4-.3-2.2-1-2.2-1.4z"/></svg>