<svg xmlns="http://www.w3.org/2000/svg" viewBox="0 0 41.7 28.7" enable-background="new 0 0 41.7 28.7"><style type="text/css">.st0{fill:#FFFFFF;}</style><path class="st0" d="M3.6 11.5V1.2C3.6.5 4.1.1 4.7.1h3c4.2 0 6.8 2.3 6.8 6.2 0 3.9-2.6 6.3-6.9 6.3H4.7c-.6 0-1.1-.5-1.1-1.1zm4-.6c3 0 4.8-1.7 4.8-4.5s-1.8-4.5-4.8-4.5H5.5v9h2.1zM23.8 8.9h-5l-1.1 2.9c-.3.7-.7.9-1.1.9-.6 0-1.1-.4-1.1-.6L20 .6c.1-.4.4-.6 1.4-.6.9 0 1.2.2 1.4.6l4.5 11.5c.1.2-.5.6-1.1.6-.4 0-.9-.2-1.2-.9l-1.2-2.9zm-4.5-1.6h4l-2-5.3-2 5.3zM32 11.8V7.5L27.6.9c-.1-.2.3-.9 1.2-.9.4 0 .7.2 1 .7L33 5.8 36.2.7c.3-.5.7-.7 1-.7.9 0 1.3.7 1.2.8L34 7.5v4.3c0 .6-.3.9-.9.9h-.3c-.5 0-.8-.3-.8-.9zM0 27.5V16.9c0-.6.3-.9.8-.9h.3c.6 0 .9.3.9.9v9.9h5.4c.6 0 .9.3.9.8v.1c0 .6-.3.9-.9.9H1.1c-.7 0-1.1-.4-1.1-1.1zM10.2 27.5V17.2c0-.7.4-1.1 1.1-1.1h7.2c.6 0 .9.3.9.8v.1c0 .5-.3.8-.9.8h-6.3v3.5H17c.6 0 .9.3.9.8v.1c0 .5-.3.8-.9.8h-4.9v3.8h6.4c.6 0 .9.3.9.8v.1c0 .6-.3.9-.9.9h-7.3c-.6 0-1-.4-1-1.1zM21.5 27.6V17.2c0-.7.4-1.1 1.1-1.1h6.7c.6 0 .9.3.9.8v.1c0 .5-.3.8-.9.8h-5.8v4h4.3c.6 0 .9.3.9.8v.1c0 .5-.3.8-.9.8h-4.3v4.2c0 .6-.3.9-.9.9h-.3c-.5.1-.8-.3-.8-1zM31 17c0-.6.3-.9.9-.9h8.8c.6 0 .9.3.9.8v.1c0 .5-.3.8-.9.8h-3.4v9.9c0 .6-.3.9-.9.9h-.3c-.6 0-.8-.3-.8-.9v-9.9h-3.4c-.6.1-.9-.2-.9-.8z"/></svg>