<svg xmlns="http://www.w3.org/2000/svg" viewBox="0 0 44.9 28.8" enable-background="new 0 0 44.9 28.8"><style type="text/css">.st0{fill:#FFFFFF;}</style><path class="st0" d="M0 11.6V1.4C0 .7.5.3 1.1.3h3c4.2 0 6.8 2.3 6.8 6.2 0 3.9-2.6 6.3-6.9 6.3H1.1c-.6-.1-1.1-.6-1.1-1.2zm4-.6c3 0 4.8-1.7 4.8-4.5C8.9 3.6 7.1 2 4.1 2H2v9h2zM20.2 9.1h-5L14.1 12c-.3.7-.7.9-1.1.9-.6 0-1.1-.4-1.1-.6L16.3.8c.2-.4.5-.6 1.4-.6.9 0 1.2.2 1.4.6l4.5 11.5c.1.2-.5.6-1.1.6-.4 0-.9-.2-1.2-.9l-1.1-2.9zm-4.5-1.6h4l-2-5.3-2 5.3zM28.4 11.9V7.6L24 1c-.1-.1.3-.8 1.3-.8.4 0 .7.2 1 .7L29.4 6 32.6.9c.3-.5.7-.7 1-.7.9 0 1.3.7 1.2.8l-4.4 6.6v4.3c0 .6-.3.9-.9.9h-.3c-.5 0-.8-.3-.8-.9zM35.5 10.5c0-.7.8-1.1.9-1.1.7 1 2 1.9 3.8 1.9 1.7 0 2.7-.7 2.7-1.9 0-1.4-1.5-1.7-3.1-2.1-1.9-.4-3.9-1.1-3.9-3.6 0-2.1 1.8-3.6 4.5-3.6 2.8 0 4.3 1.3 4.3 2.2 0 .7-.9 1.2-.9 1.1-.7-.9-1.9-1.7-3.3-1.7-1.6 0-2.6.8-2.6 1.9 0 1.4 1.2 1.6 3 2 2.1.5 4.2 1.3 4.2 3.7 0 2.3-1.8 3.7-4.7 3.7-3.2 0-4.9-1.5-4.9-2.5zM1.8 27.6V17.1c0-.6.3-.9.8-.9h.3c.6 0 .9.3.9.9V27h5.4c.6 0 .9.3.9.8v.1c0 .6-.3.9-.9.9H2.8c-.6-.1-1-.5-1-1.2zM11.9 27.6V17.4c0-.7.4-1.1 1.1-1.1h7.2c.6 0 .9.3.9.8v.1c0 .5-.3.8-.9.8h-6.3v3.5h4.9c.6 0 .9.3.9.8v.1c0 .5-.3.8-.9.8h-4.9V27h6.4c.6 0 .9.3.9.8v.1c0 .6-.3.9-.9.9H13c-.6-.1-1.1-.5-1.1-1.2zM23.3 27.8V17.4c0-.7.4-1.1 1.1-1.1h6.7c.6 0 .9.3.9.8v.1c0 .5-.3.8-.9.8h-5.8v4h4.3c.6 0 .9.3.9.8v.1c0 .5-.3.8-.9.8h-4.3v4.2c0 .6-.3.9-.9.9h-.3c-.5 0-.8-.4-.8-1zM32.8 17.2c0-.6.3-.9.9-.9h8.8c.6 0 .9.3.9.8v.1c0 .5-.3.8-.9.8h-3.4v9.9c0 .6-.3.9-.9.9H38c-.6 0-.8-.3-.8-.9V18h-3.4c-.7 0-1-.3-1-.8z"/></svg>