<svg xmlns="http://www.w3.org/2000/svg" viewBox="0 0 205.05 158.6"><defs><style>.cls-1 { fill: #d7d9da; }</style></defs><title>assets_horizonthree</title><g id="Layer_2"><g id="Layer_1-2"><path class="cls-1" d="M139.29 156h-19.83a1.32 1.32 0 1 0 0 2.64h19.83a1.32 1.32 0 1 0 0-2.64M160.44 148h-25.12a1.32 1.32 0 1 0 0 2.64h25.12a1.32 1.32 0 1 0 0-2.64M179 156h-30.46a1.32 1.32 0 0 0 0 2.64H179a1.32 1.32 0 1 0 0-2.64M199.15 26.42a1 1 0 0 0-.69.29 1 1 0 0 0-.28.69l-.6 3.28-3.29.61a1 1 0 1 0 0 2l3.2.71.73 3.18a1 1 0 0 0 1 1 1 1 0 0 0 1-1l.71-3.18 3.18-.72a1 1 0 0 0 1-1 1 1 0 0 0-1-1l-3.11-.81-.84-3.08a1 1 0 0 0-1-1"/><path class="cls-1" d="M46.57 13.74a12.74 12.74 0 0 0-8.7-3.36h-.48a11.27 11.27 0 0 0-3.58-7 12.94 12.94 0 0 0-17.4 0 11.27 11.27 0 0 0-3.58 7h-.48a12.74 12.74 0 0 0-8.7 3.36 11.06 11.06 0 0 0 0 16.41 12.73 12.73 0 0 0 8.7 3.35h25.52a12.73 12.73 0 0 0 8.7-3.35 11.06 11.06 0 0 0 0-16.41zm-1.63 14.62A10.31 10.31 0 0 1 37.87 31H12.35a10.31 10.31 0 0 1-7.08-2.66 8.64 8.64 0 0 1 0-12.89 10.35 10.35 0 0 1 7.08-2.71 10.73 10.73 0 0 1 1.45.11l1.43.19-.08-1.51A8.81 8.81 0 0 1 18 5.1a10.56 10.56 0 0 1 14.15 0 8.81 8.81 0 0 1 2.89 6.45v.07L35 13.07l1.43-.19a10.72 10.72 0 0 1 1.45-.11 10.36 10.36 0 0 1 7.08 2.72 8.62 8.62 0 0 1 0 12.87z"/></g></g></svg>